<svg xmlns="http://www.w3.org/2000/svg"
    xmlns:xlink="http://www.w3.org/1999/xlink" viewBox="0 0 537.76 433.07">
    <defs>
        <style>
        .cls-1,.cls-4{fill:none;}.cls-1{stroke:#1536ff;}.cls-2{opacity:0.25;isolation:isolate;fill:url(#linear-gradient);}.cls-3{fill:url(#linear-gradient-2);}
        
        .shield-bdr,.cen {
            fill: none;
        }
        .shield-bdr{
            stroke:url(#lg-shield-bdr);
        }
        .key-hole {
            fill:#00000066;
        }
        .shield {
            fill:hsl(210deg 79% 19%);
        }
        .shield-half {
            fill:url(#lg-shield-half);
            opacity: .25;
        }
        .arch {
            fill:url(#lg-arch);
            mask:url(#mask-arch);
        }

        .arch-mask-shape {
            fill:url(#rg-arch-mask-shape);
            _transform: translate(-113px, 0px);
        }
        </style>
        <linearGradient id="linear-gradient" x1="141.19" y1="584.04" x2="142.19" y2="584.04" gradientTransform="matrix(157.81, 0, 0, -390.51, -22166.32, 228269.14)" gradientUnits="userSpaceOnUse">
            <stop offset="0" stop-color="aqua" stop-opacity="0.2"/>
            <stop offset="1" stop-color="aqua" stop-opacity="0.8"/>
        </linearGradient>
        <linearGradient id="linear-gradient-2" x1="141.32" y1="584.06" x2="142.32" y2="584.06" gradientTransform="matrix(537.76, 0, 0, -406.37, -75997.63, 237572.42)" gradientUnits="userSpaceOnUse">
            <stop offset="0"/>
            <stop offset="0.5"/>
            <stop offset="1"/>
        </linearGradient>
        <linearGradient id="lg-shield-bdr">
            <stop offset="0" stop-color="transparent" stop-opacity="0" />
            <stop offset="1" stop-color="aqua" stop-opacity=".25" />
        </linearGradient>
        <linearGradient id="lg-shield-half">
            <stop offset="0" stop-color="aqua" stop-opacity=".2" />
            <stop offset="1" stop-color="aqua" stop-opacity=".8" />
        </linearGradient>
        <linearGradient id="lg-arch">
            <stop offset="0" stop-color="hsla(180,100%,50%,.75)" />
            <stop offset=".5" stop-color="hsla(180,100%,50%,.75)" />
            <stop offset=".5" stop-color="hsla(210,100%,60%,.75)" />
            <stop offset="1" stop-color="hsla(210,100%,60%,.75)" />
        </linearGradient>
        <radialGradient id="rg-arch-mask-shape">
            <stop offset="0" stop-color="white" />
            <stop offset="1" stop-color="black" />
        </radialGradient>
        <mask id="mask-arch" maskContentUnits="userSpaceOnUse" transform="translate(-36 45.5)">
            <path id="arch-mask-shape" class="arch-mask-shape" d="M429.3,91.74q-8.26-3.9-16.39-7.67C366.76,62.54,323.16,42.21,275.55,2L274,.67,272.5,2C229.34,39.2,196.1,54.75,135.76,83q-9.21,4.29-19.23,9l-1.38.65v1.53c1.25,62.14,13.88,118.36,37.52,167.09,26.55,54.71,66.47,98.49,118.65,130.1l1.26.76,1.24-.8c54.59-35.49,93.67-78.88,119.47-132.64,22.08-46,34.29-99.87,37.32-164.66l.07-1.57Z"/>
        </mask>
    </defs>
    <g id="Layer_2" data-name="Layer 2">
        <g id="Layer_1-2" data-name="Layer 1">
            <g id="mi-logo-dark">
                <path id="shield-bdr" class="shield-bdr" d="M429.3,91.74q-8.26-3.9-16.39-7.67C366.76,62.54,323.16,42.21,275.55,2L274,.67,272.5,2C229.34,39.2,196.1,54.75,135.76,83q-9.21,4.29-19.23,9l-1.38.65v1.53c1.25,62.14,13.88,118.36,37.52,167.09,26.55,54.71,66.47,98.49,118.65,130.1l1.26.76,1.24-.8c54.59-35.49,93.67-78.88,119.47-132.64,22.08-46,34.29-99.87,37.32-164.66l.07-1.57Z"/>
                <path id="shield" class="shield" d="M429.3,91.74q-8.26-3.9-16.39-7.67C366.76,62.54,323.16,42.21,275.55,2L274,.67,272.5,2C229.34,39.2,196.1,54.75,135.76,83q-9.21,4.29-19.23,9l-1.38.65v1.53c1.25,62.14,13.88,118.36,37.52,167.09,26.55,54.71,66.47,98.49,118.65,130.1l1.26.76,1.24-.8c54.59-35.49,93.67-78.88,119.47-132.64,22.08-46,34.29-99.87,37.32-164.66l.07-1.57ZM286.63,209v46.81H256.85V209c-12.74-5.91-20.59-18.36-20.59-32.86a36.32,36.32,0,0,1,36.2-36.37c20,0,35.73,16,35.73,36.37C308.19,190.16,299.78,202.9,286.63,209Z"/>
                <path id="shield-half" class="shield-half" d="M273,255.77H256.85V209c-12.74-5.91-20.59-18.36-20.59-32.86a36.32,36.32,0,0,1,36.2-36.37h.47V1.6L272.5,2c-43.16,37.19-76.4,52.74-136.74,81q-9.21,4.29-19.23,9l-1.38.65v1.53C116.4,156.3,129,212.52,152.67,261.25c26.55,54.71,66.47,98.49,118.65,130.1l1.26.76.32-.21Z"/>
                <path id="key-hole" class="key-hole" d="M272.46,139.73a36.32,36.32,0,0,0-36.2,36.37c0,14.5,7.85,27,20.59,32.86v46.81h29.78V209c13.15-6.06,21.56-18.8,21.56-32.86C308.19,155.71,292.5,139.73,272.46,139.73Zm8.89,66.51-1.52.65v48.22h-21.3V206.89l-1.52-.65c-12.34-5.2-20-17.11-20-31.08,0-18.63,14.78-33.78,32.94-33.78s32.44,14.84,32.44,33.78a33.9,33.9,0,0,1-21,31.08Z"/>
                <path id="arch" class="arch" d="M272.43,206.66a30.22,30.22,0,1,1,30.21-30.23h0A30.26,30.26,0,0,1,272.43,206.66Zm0-58.65a28.44,28.44,0,1,0,28.43,28.45v0A28.46,28.46,0,0,0,272.43,148Zm10.63,173.9-.13-1.78H283a144.35,144.35,0,0,0,32.93-6.3H316l.55,1.69h-.09a146.66,146.66,0,0,1-33.33,6.38Zm36.73-7.47-.56-1.69h.07a144.29,144.29,0,0,0,91-178.09v-.09l1.68-.51v.09a146.28,146.28,0,0,1,6.23,42.34A144.69,144.69,0,0,1,390.54,262a146.19,146.19,0,0,1-70.66,52.38ZM138.36,234v-.09c-.48-1.1-.89-2.13-1.28-3.1L137,231v-.45h.06l1.56-.62V230c.48,1.16.91,2.23,1.35,3.26v.07Zm-10.22-36.08v-.09A145.87,145.87,0,0,1,205.26,47h.07l.82,1.58h-.07a144.4,144.4,0,0,0-76.19,149.05v.08Zm268.83-94v-.07c-.62-1.06-1.21-2.06-1.81-3l-.06-.09,1.52-.93.05.08c.55.9,1.14,1.88,1.83,3.06v.08h0ZM209.14,47l-.78-1.6h.09a145.15,145.15,0,0,1,32-11.23h.09l.39,1.75h-.09a143.26,143.26,0,0,0-31.61,11Zm-46.81,235.5-.07-.05-11.53,11.1.07.07c1.64,1.71,3.36,3.42,5.14,5.13l.08.05L167,287.3h.2l-.16-.15C165.42,285.64,163.87,284.09,162.33,282.51Zm-10-11.5v-.23l-.09.09a153.29,153.29,0,0,1-29.9-65.41v-.09l-15.63,3h-.09v.09a168.19,168.19,0,0,0,33,72.41l.07.07,12.48-9.84ZM121.2,199.09V199c-.75-5-1.24-10.14-1.49-15.25v-.09l-15.91.75h-.09v.08c.26,5.66.82,11.32,1.63,16.86v.09l15.77-2.34ZM229.34,323.18h-.07l-4.5,15.38h.07c5.45,1.58,11,2.9,16.48,3.93v-.09h.09l2.9-15.58v-.08h-.09C239.22,325.79,234.22,324.6,229.34,323.18ZM422.4,146.64l-.28.12h.39l15.64-3.08v-.09c-.47-2.31-1-4.69-1.57-7.08v-.09L421,140.2v.08C421.51,142.38,422,144.52,422.4,146.64Zm18.17,13.72v-.09l-15.93,1.5v.09c.44,4.8.67,9.71.67,14.59a151.29,151.29,0,0,1-16.92,70v.09l14.15,7.3.09,0v-.09a168.18,168.18,0,0,0,18.7-77.33c0-5.41-.26-10.82-.76-16.11Zm-35.29,91.79v.07c-2.54,4.43-5.32,8.77-8.27,12.92l-.06.07,13,9.24.07.05.05-.07a168,168,0,0,0,9.1-14.22h.3l-14.06-8Zm-82.74,68.77h-.09a154.25,154.25,0,0,1-71.71,6.85h-.1l-2.23,15.77v.09h.09a174,174,0,0,0,23.93,1.68h0a169,169,0,0,0,55.21-9.21h.09L322.55,321Zm20.1-8.65-.13.07c-1.92,1-3.91,2-5.89,2.88h-.07l6.73,14.52h.09c2.15-1,4.34-2.07,6.49-3.19H350l-7.31-14.16ZM272.4,246.56a70.12,70.12,0,1,1,70.11-70.13h0a70.2,70.2,0,0,1-70.08,70.12Zm0-138.46a68.34,68.34,0,1,0,68.34,68.34A68.33,68.33,0,0,0,272.4,108.1Zm-75.61,41L16.93,81.58l.34-.84a272,272,0,0,1,23-47l.51-.82.83.5L204.49,133.67l-.46.76a78,78,0,0,0-6.78,13.82ZM19.25,80.55l176.62,66.32a78.76,78.76,0,0,1,6.18-12.61L41.36,35.38A268.74,268.74,0,0,0,19.25,80.55Zm42,268.07-.55-.73a272.72,272.72,0,0,1-45.25-262l.25-.72,1,.13,180.4,63.58-.34.85a80.55,80.55,0,0,0,13.29,77.17l.58.72-.77.68ZM16.81,87.21A270.59,270.59,0,0,0,61.5,346.1L208.11,227.35a82.34,82.34,0,0,1-13.36-77.43ZM220.34,238.65l.07-.08h-.21L97.64,384.19l-.13.14h.13c1.48,1.25,2.85,2.39,4.2,3.47l.07.06L221.5,239.76l.07-.07-.07-.06A13.94,13.94,0,0,1,220.34,238.65ZM362.79,433.07l-.29-.46L298.83,252.67l.49-.1a81.86,81.86,0,0,0,13.95-6.5l.41-.25.34.45,96.87,164.29-.44.32a273.71,273.71,0,0,1-47.26,22.05ZM300,253.28,363.22,432a273.88,273.88,0,0,0,46.47-21.69L313.42,247A82.4,82.4,0,0,1,300,253.28Zm-29.18,34.66h-1.19v-.09l.64-26.59h.93v.09Zm5.88-.07-1-26.68h.94l1.26,26.66Zm-12.94-.27h-1.2L264.87,261h.94Zm20-.23v-.09l-2.69-26.47h.34l.52-.06H282v.09l2.92,26.44h-.34l-.75.09Zm-27-.54-1.18-.16v-.08l4-26.31.37.05.48.06h.09v.1Zm34-.39-4.38-26.34h.09l.66-.1h.18l4.6,26.22Zm-41-.82h-.11l-1-.2h-.09v-.09l5.64-26h.09a1.51,1.51,0,0,1,.41.09,1,1,0,0,1,.34.07h.09Zm47.93-.55V285l-6-25.91L292,259l.49-.11h.09V259l6.27,25.88h-.11l-.59.14ZM242.87,284l-1.16-.3v-.09L249,258h.09l.37.11.36.1h.09Zm61.65-.71v-.09l-7.67-25.49h.07l.67-.19V257l8.08,26h-.09l-.62.19Zm-68.41-1.37H236l-1-.34H235l8.93-25.14H244l.28.11.45.14h.07Zm75.12-.89-9.3-25,.89-.32,9.5,24.87V281l-.12-.25-.88.32Zm-81.76-1.64-.37-.14c-.22-.11-.43-.2-.65-.29h-.08v-.07l10.5-24.46h.07c.14,0,.29.12.45.17l.17.09.15-.33v.4Zm88.31-1v-.09L306.92,254l.73-.32v-.35L318.9,277.9h-.09l-.92.43ZM223,276.49h-.09L222,276H222L234,252.2h.07c.24.12.47.25.7.35h.07v.09Zm101.11-1.17v-.07l-12.43-23.64h.09l.27-.15.41-.22h.07v.07l12.6,23.46Zm-107.36-2.17h-.09c-.28-.18-.57-.34-.87-.52l-.07-.05,13.56-23,.34.2c.14.07.26.16.41.23v.11h0Zm113.52-1.32-.06-.07L316.4,249l.21-.15c.18-.1.34-.21.52-.32h.07l.05.07,14,22.6h-.07l-.85.53Zm-119.54-2.49h-.07l-.71-.48-.21-.14,0-.07,15-22,.21.14a3.65,3.65,0,0,0,.5.34l.07.06v.07Zm125.45-1.43-.06-.07L320.9,246l.07,0c.16-.13.32-.23.48-.34l.23-.16v.07l15.45,21.66ZM205,265.25l-.41-.33a5.74,5.74,0,0,1-.47-.35l-.07-.05.06-.08,16.3-21,.07.06.62.48.08.05-.08.07Zm136.86-1.57-16.65-20.86.07,0a1.23,1.23,0,0,1,.28-.23,2,2,0,0,1,.32-.26l.07-.07.06.07L342.86,263h-.16c-.27.2-.51.41-.76.61Zm-142.36-2.9-.07-.06-.75-.65,0-.06,17.65-20,.31.25c.1.11.23.21.35.32h0v.07Zm147.76-1.68-17.94-19.77h0l.57-.54H330v.07l18.14,19.63h-.16l-.73.66ZM194.3,256h0c-.25-.24-.48-.48-.73-.71l-.06-.08h.06l18.83-18.81.07.07.37.37.11.11.09-.09v.28Zm158-1.8-.05-.05-19.1-18.55.07-.07.45-.46.07-.05v-.18l.07.09.1-.11v.2l19.23,18.33-.07.07c-.24.23-.47.48-.7.73ZM189.3,251v-.16c-.21-.25-.42-.48-.64-.73l0-.07h.07l20-17.59.18.2.39.44v.11h0Zm167.77-2-.05-.06-20.22-17.3.21-.25c.11-.14.23-.26.34-.4h.09l20.37,17.12-.06.07-.64.77Zm-172.2-3.5-.06-.05c-.21-.27-.41-.54-.62-.8v-.07l.07-.06,21-16.28v.07l.48.6V229Zm176.66-2-21.34-16,.06-.07c.16-.21.32-.41.46-.62l.05-.07h.07l21.41,15.81v.07c-.11.16-.23.3-.34.46Zm-180.89-3.68-.06-.07c-.19-.26-.37-.55-.57-.83l0-.08.09-.05,22-14.91,0,.07.43.64v.07h-.07Zm185-2.11L343.31,223l.05-.07c.12-.2.27-.41.39-.62v-.13h.07l.11-.18v.25l22.3,14.41v.22l-.07-.07c-.16.25-.34.5-.5.74Zm3.7-6h-.07l-23.12-13.17.05-.09.18-.34a2.14,2.14,0,0,1,.2-.32v-.09h.09l23.23,13-.18.32c-.13.21-.23.43-.36.64Zm3.33-6.26h-.09l-23.94-11.75v-.08l.34-.69h.09l24,11.46v.07c-.14.32-.3.62-.45.93Zm2.9-6.46h-.07l-24.62-10.13v-.07c.07-.18.14-.34.19-.5l.13-.3h.09L376,218h0c-.09.25-.19.49-.28.73Zm2.49-6.64H378l-25.2-8.52v-.09c.05-.14.1-.3.16-.45l.17-.34h0l25.29,8.3v.09c-.11.32-.22.64-.32,1Zm2.07-6.78H380l-25.7-6.89.12-.41.11-.42v-.08h.08l25.76,6.66v.09l-.27,1Zm1.62-6.89-26.17-5.27.06-.3a3.41,3.41,0,0,1,.1-.54v-.08h.09l26.13,5v.09c-.07.34-.13.66-.2,1Zm1.17-7L356.44,188l.13-.93h.07l26.4,3.35v.07a1.57,1.57,0,0,1-.05.48c-.05.16,0,.36-.07.53Zm.75-7h-.09L357,182.75v-.94h.09l26.56,1.75c0,.34-.06.67-.07,1Zm.28-7.06h-.09l-26.6-.24v-.85l.08-.27H384v1.36Zm-26.82-5.81v-.94h.09l26.55-1.73v1.2Zm-.46-5.35v-.27c0-.2,0-.4-.07-.59v-.09h0l26.4-3.39.14,1.2Zm-.8-5.33-.09-.44a.75.75,0,0,0-.07-.39h.07v-.09l26.12-5v.08a4.28,4.28,0,0,0,.13.68l.07.39H382Zm-1.14-5.25v-.09c-.07-.25-.12-.49-.2-.74v-.09l25.82-6.73v.09c.07.27.12.53.19.82l.07.25h-.09Zm-1.46-5.16-.25-.76h-.5l25.79-8.53v.09c.1.32.21.64.32,1v.09h-.09Zm-1.8-5.07-.36-.87,24.78-9.95h0c.12.3.25.62.37,1v.07Zm-2.12-4.93v-.09c-.11-.21-.22-.45-.32-.66l-.06-.1,24.08-11.54.52,1.07h-.09Zm-2.42-4.79-.14-.27-.27-.48v-.08l23.3-13,.21.37.32.59v.07h-.07Zm-2.72-4.63-.06-.09a4.38,4.38,0,0,0-.28-.42l-.18-.29h.07L366.12,116l.05.08.23.37c.11.16.22.32.31.48l.05.07-.12,0Zm-3-4.44-.25-.34-.27-.36v-.07h.07l21.4-15.83v.07c.18.24.36.47.52.72l.12.17Zm-3.29-4.28h-.07l-.4-.48h0l-.07.07v-.24h0l20.36-17.14v.07c.13.16.27.32.39.48l.3.36-.07.07Zm-3.56-4h-.07c-.18-.2-.34-.37-.52-.55v-.11h0L353,99.51l.07.07c.13.13.25.27.38.39l.37.41Zm-3.81-3.81h-.07c-.18-.18-.38-.35-.55-.53v-.09h0L348,94.6h.21l-.09.09.13.12.55.5v.07h0Zm-4-3.56h-.07c-.16-.14-.34-.28-.5-.43l-.13.25v-.41h0l16.77-20.67.07.06.48.41.37.3Zm-4.25-3.31h-.08c-.21-.14-.42-.28-.62-.44l-.07-.06L337,85.62l1,.7-.06.07ZM537.76,175H308.42v.89H537.76ZM243,26.7a7.45,7.45,0,1,0,7.45,7.45h0A7.45,7.45,0,0,0,243,26.7Zm41.89,286.77a7.45,7.45,0,1,0,7.45,7.45,7.44,7.44,0,0,0-7.45-7.45ZM290.45,243l-2-7.21h.08a61.65,61.65,0,0,0,45.37-59.37l.08-.08,7.4.08A69,69,0,0,1,290.52,243Zm-72.14-23.82v-.06a69,69,0,0,1-1.28-83.8v-.06l6,4.45v.06a61.56,61.56,0,0,0,1.15,74.71v.06Zm115.6-44.6v-.08a61.55,61.55,0,0,0-47.11-57.95l-.12.51v-.6h0l1.72-7.21h.06A68.26,68.26,0,0,1,309.14,118a69,69,0,0,1,32.25,56.32v.08Z"/>
                <circle id="cen" class="cen" cx="272.42" cy="176.44" r="7.53"/>
            </g>
        </g>
    </g>
</svg>