<svg xmlns="http://www.w3.org/2000/svg" viewBox="0 0 1906.03 633.93">
    <defs>
        <style>
            :root {
                --m-red: hsla(350, 65%, 50%, 1);
                --m-red: hsl(350, 67%, 48%);
                --m-red: hsl(350, 65%, 45%);
                --m-blue: hsla(190, 100%, 45%, 1);
                --m-blue-highlight: hsla(190, 100%, 65%, 1);
                --m-blue-dark: hsla(190, 100%, 40%, 1);
                --dark-trans: hsla(0, 0%, 0%, .5);
            }

            .circle-center {
                opacity: 0;
            }

            .brand {
                fill: url(#brand-gradient);
                fill: url(#brand-gradient2);
                fill: url(#brand-gradient);
                _fill: var(--m-red);
            }

            .product {
                fill: hsla(210, 20%, 50%, .5)
            }


            .wings {
                opacity: 0;
            }



            .vertical-bricks,
            .horizontal-bricks,
            .dial-outer-solid,
            .dial-middle {
                fill: var(--m-blue)
            }

            .dial-inner-rings-fill {
                opacity: .25;
                fill: white;
                filter: url(#strongGlow);
            }

            .dial-inner-rings-strokes {
                fill: var(--m-blue);
                stroke: var(--m-blue);
                filter: url(#subtleGlow);
            }

            .shield {
                fill: white;
                filter: url(#strongGlow);
                stroke: var(--m-blue-highlight);
                stroke-width: 7.5px;
            }

            .check {
                fill: var(--m-blue);
                stroke: var(--m-blue);
                stroke-width: .5%;
            }

            .filled {
                fill: #00ffff11;
                \ 
            }

            .blanked {
                fill: gray;
                opacity: .5;
                _fill: #000000;
                _opacity: 0;
            }

            .wings2 {
                fill: url(#scanlines);
            }

            .vertical-bricks,
            .horizontal-bricks,
            .dial-middle {
                animation: mspin 60s linear infinite;
                transform-origin: 387.81px 316.2px;
                filter: url(#subtleGlow);
            }

            .dial-outer-solid {
                animation: mspin 60s linear infinite reverse;
                transform-origin: 387.81px 316.2px;
                filter: url(#subtleGlow);
            }

            .dial-inner-rings-fill,
            .dial-inner-rings-strokes {
                animation: mspin 2s linear infinite;
                transform-origin: 387.81px 316.2px;
                filter: url(#subtleGlow);
            }

            @keyframes mspin {
                0% {
                    transform: rotate(0deg);
                }

                100% {
                    transform: rotate(360deg);
                }
            }
        </style>
        <pattern id="scanlines" patternUnits="userSpaceOnUse" width="1" height="15">
            <rect class="filled" width="1" height="10" />
            <rect class="blanked" y="10" width="1" height="5" />
            <animateTransform attributeType="xml" attributeName="patternTransform" type="translate" from="0,0"
                to="0,-15" dur="2" begin="0" repeatCount="indefinite" />
        </pattern>
        <radialGradient id="bg-gradient" r=".5">
            <stop offset="0" stop-color="hsl(215, 50%, 20%)" />
            <stop offset="1" stop-color="hsl(215, 35%, 15%)" />
        </radialGradient>

        <!-- subtleGlow: Tiny subtle soft glow -->
        <filter id="subtleGlow" height="200%" width="200%" x="-50%" y="-50%">
            <!-- Thicken out the original shape -->
            <feMorphology operator="dilate" radius="0" in="SourceAlpha" result="thicken" />
            <!-- Use a gaussian blur to create the soft blurriness of the glow -->
            <feGaussianBlur in="thicken" stdDeviation="1" result="blurred" />
            <!-- Change the colour -->
            <feFlood flood-color="hsla(190, 100%, 50%, .25)" result="glowColor" />
            <!-- Color in the glows -->
            <feComposite in="glowColor" in2="blurred" operator="in" result="techGlow_colored" />
            <!--	Layer the effects together -->
            <feMerge>
                <feMergeNode in="techGlow_colored" />
                <feMergeNode in="SourceGraphic" />
            </feMerge>
        </filter>

        <filter id="strongGlow" height="800%" width="800%" x="-200%" y="-200%">
            <!-- The feMorphology filter is used to expand the alpha channel of the input image.
                 'dilate' increases the dimensions of all elements. Here, it's used to thicken the edges of the source graphic by a given radius.
                Shiv: Essentially it scales the input without blurring.
                -->
            <feMorphology operator="dilate" radius="10" in="SourceGraphic" result="thicken" />

            <!-- The feGaussianBlur filter blurs the image. It's applied to the thickened edges, creating a blurred effect with a standard deviation of stdDeviation. -->
            <feGaussianBlur in="thicken" stdDeviation="80" result="blurred1" />

            <!-- The feFlood filter floods the filter subregion with the specified color (hsla(190, 100%, 45%,1)).
                 This creates a colored overlay over the entire filter area. -->
            <feFlood flood-color="hsla(180, 100%, 100%, 1)" id="flood" result="glowColor1">
                <!-- This animate element is used to animate the flood-color attribute of the feFlood element below.
                 The color transitions from a solid hsla color to transparent over 4 seconds, repeating indefinitely. -->
                <animate attributeName="flood-color" values="white;aqua;white" dur="5s" repeatCount="indefinite"
                    calcMode="paced" />
            </feFlood>

            <!-- The feComposite filter performs pixel-wise combination of two input images.
                 Here, it combines the blurred image with the flood color, using the 'in' operator to intersect them. -->
            <feComposite in="glowColor1" in2="blurred1" operator="in" result="softGlow_colored1" />
            <!-- Use feBlend to blend the glow with the source graphic -->
            <feBlend mode="screen" in="softGlow_colored1" in2="SourceGraphic" result="blendedGlow" />
            <!-- The feMerge filter layers images on top of each other.
                 In this case, it layers the colored glow on top of the original source graphic. -->
            <feMerge>
                <feMergeNode in="blendedGlow" />
                <feMergeNode in="SourceGraphic" />
            </feMerge>
        </filter>

        <linearGradient id="brand-gradient" gradientTransform="rotate(90)">
            <stop offset="0%" stop-color="hsla(350, 100%, 45%,1)" />
            <stop offset="7%" stop-color="hsla(350, 100%, 45%,1)" />
            <stop offset="15%" stop-color="hsla(350, 0%, 0%,1)" />
            <stop offset="15%" stop-color="hsla(350, 65%, 45%,1)" />
            <stop offset="100%" stop-color="hsla(350, 65%, 45%,1)" />
        </linearGradient>

        <linearGradient id="brand-gradient-w" gradientTransform="rotate(90)">
            <stop offset="0%" stop-color="hsla(350, 100%, 45%,1)" />
            <stop offset="7%" stop-color="hsla(350, 100%, 45%,1)" />
            <stop offset="15%" stop-color="hsla(350, 0%, 100%,1)" />
            <stop offset="15%" stop-color="hsla(350, 65%, 45%,1)" />
            <stop offset="100%" stop-color="hsla(350, 65%, 45%,1)" />
        </linearGradient>

    </defs>

    <g id="mss-logo-full">
        <g id="Text2">
            <g id="product">
                <path class="product"
                    d="M889.53,402.9a9.72,9.72,0,0,1-3.8-2.2,11.74,11.74,0,0,1-2.7-4,15.92,15.92,0,0,1-1-6.1V373.8a6.77,6.77,0,0,1,.9-3.2,17.19,17.19,0,0,1,2.3-3.2,11.33,11.33,0,0,1,3-2.4,6.41,6.41,0,0,1,3.1-.9h62.3v16.5h-54.5v6.6h42.5a14.08,14.08,0,0,1,4.5.7,9.72,9.72,0,0,1,3.8,2.2,10.84,10.84,0,0,1,2.7,4,15.25,15.25,0,0,1,1,6.1V417a6.77,6.77,0,0,1-.9,3.2,11.36,11.36,0,0,1-2.3,3.1,13.76,13.76,0,0,1-3,2.4,6.77,6.77,0,0,1-3.2.9H882V410.1h54.5v-6.6h-42.6A11.17,11.17,0,0,1,889.53,402.9Z" />
                <path class="product"
                    d="M1038.93,364v16.4h-66.2L961.23,364Zm-66.2,23h49.4v16.5h-49.4V387Zm0,23.1h66.1v16.6h-66.1V410.1Z" />
                <path class="product"
                    d="M1115.13,426.7h-53.3c-4.4,0-7.9-1.2-10.3-3.7s-3.7-5.8-3.7-10V364h67.4v16.4H1065v29.9h50.1Z" />
                <path class="product" d="M1124,364h17.2v46.2h39.2V364h17.3v62.7H1124Z" />
                <path class="product"
                    d="M1274,364c4.3,0,7.3,1.2,9.1,3.5a14.48,14.48,0,0,1,2.7,9.1v16c0,4.2-1.3,7.4-3.8,9.7s-6,3.4-10.5,3.5l16.8,20.9H1267l-16.8-20.5h-16.7v20.5h-17.2V389.8h52.4v-9.5h-52.4l-11.4-16.4H1274Z" />
                <path class="product" d="M1289.53,364h28.6v62.7H1301V380.4Z" />
                <path class="product" d="M1361.63,380.4h-24.9l-11.4-16.4h81v16.4h-27.4v46.3h-17.3V380.4Z" />
                <path class="product"
                    d="M1462.83,426.7h-17.2V398.9l-32.2-34.9H1437l17.3,18.6,17.3-18.6h23.6L1463,398.9v27.8Z" />
                <path class="product"
                    d="M1548.43,402.9a9.72,9.72,0,0,1-3.8-2.2,11.74,11.74,0,0,1-2.7-4,15.92,15.92,0,0,1-1-6.1V373.8a6.77,6.77,0,0,1,.9-3.2,17.19,17.19,0,0,1,2.3-3.2,11.33,11.33,0,0,1,3-2.4,6.41,6.41,0,0,1,3.1-.9h62.3v16.5H1558v6.6h42.5a14.08,14.08,0,0,1,4.5.7,9.72,9.72,0,0,1,3.8,2.2,10.84,10.84,0,0,1,2.7,4,15.25,15.25,0,0,1,1,6.1V417a6.77,6.77,0,0,1-.9,3.2,11.36,11.36,0,0,1-2.3,3.1,13.76,13.76,0,0,1-3,2.4,6.77,6.77,0,0,1-3.2.9h-62.3V410.1h54.5v-6.6h-42.6A10.68,10.68,0,0,1,1548.43,402.9Z" />
                <path class="product" d="M1621.93,364h17.2v46.2h39.2V364h17.3v62.7H1622l-.1-62.7Z" />
                <path class="product" d="M1702.63,364h28.6v62.7H1714V380.4Z" />
                <path class="product" d="M1774.73,380.4h-24.9l-11.4-16.4h81v16.4H1792v46.3h-17.3Z" />
                <path class="product"
                    d="M1904.23,364v16.4H1838l-11.4-16.4ZM1838,387h49.4v16.5H1838Zm0,23.1h66.1v16.6H1838Z" />
            </g>
            <g id="brand">
                <path class="brand"
                    d="M882,207.3h44.4L973,257.8l46.6-50.5h24.2v112h-30.9v-58L973,304.8l-40.1-43.4v58h-30.7V236.3Z" />
                <path class="brand"
                    d="M1091.73,207.3H1142l60.1,112h-34.6l-16.3-29.5h-43.8l-16.5,29.5h-34.6l31.6-58.8h47.9l-7.9-14.9h-31.6l9.4-17.9Z" />
                <path class="brand" d="M1319.83,319.3h-107.5V236.6l-20.4-29.3H1243V290h76.8Z" />
                <path class="brand"
                    d="M1455.83,319.3h-95.1c-7.9,0-14-2.2-18.5-6.6s-6.7-10.3-6.7-17.8V207.3h120.3v29.3h-89.4V290h89.4v29.3Z" />
                <path class="brand" d="M1471.73,207.3h30.7v82.5h70V207.3h30.9v112h-131.5l-.1-112Z" />
                <path class="brand"
                    d="M1739.63,207.3q11.4,0,16.2,6.3c3.2,4.2,4.8,9.6,4.8,16.3v28.5c0,7.5-2.3,13.2-6.8,17.3s-10.8,6.2-18.8,6.3l30.1,37.3H1727l-30.1-36.6H1667v36.6h-30.7V253.5h93.5V236.6h-93.5l-20.4-29.3Z" />
                <path class="brand"
                    d="M1906,207.3v29.3h-118.3l-20.4-29.3Zm-118.3,41.1h88.2v29.5h-88.2Zm0,41.2h118.1v29.7h-118.1Z" />
            </g>
        </g>
        <g id="Mono">
            <circle class="circle-center" cx="387.81" cy="316.2" r="258" />

            <g id="dial-inner">
                <g id="dial-inner-rings">
                    <path class="dial-inner-rings-fill"
                        d="M480.44,315.67a84.7,84.7,0,0,0-.82-11.57l-.21-1.47a36.59,36.59,0,0,0-.81-4.52c-.05-.28-.1-.59-.15-.9a14,14,0,0,0-.46-2l-.69-2.87a14.18,14.18,0,0,0-.41-1.49,11.6,11.6,0,0,1-.38-1.4c-.14-.4-.23-.76-.34-1.13-.17-.6-.34-1.23-.59-1.87s-.41-1.12-.61-1.68c-.46-1.31-.94-2.67-1.51-4a119.89,119.89,0,0,0-5.32-10.94l-.58-.94a88.25,88.25,0,0,0-6.21-9.2,40.6,40.6,0,0,0-2.53-3.19c-.43-.5-.86-1-1.28-1.52a13.67,13.67,0,0,0-1.24-1.39c-.28-.28-.54-.56-.78-.83s-.55-.59-.81-.88a14.54,14.54,0,0,0-1.35-1.38l-2.08-2.09c-.36-.36-.74-.69-1.13-1s-.73-.64-1.07-1c-.9-.84-1.82-1.57-2.72-2.27-.65-.51-1.3-1-1.93-1.57a83.77,83.77,0,0,0-10.12-6.69,92.37,92.37,0,0,0-45.47-12.4h-2.18a86.75,86.75,0,0,0-10.85.82l-1.46.2a41.34,41.34,0,0,0-4.53.81c-.28.06-.59.11-.9.16a14,14,0,0,0-2,.46l-2.87.69a12.11,12.11,0,0,0-1.49.41,11.6,11.6,0,0,1-1.4.38l-.9.26a21.14,21.14,0,0,0-2.1.67c-.55.21-1.12.41-1.68.61-1.31.46-2.67.94-4,1.51-3.56,1.44-7.09,3.29-10.51,5.09l-6.39-11.12a116.51,116.51,0,0,1,12-5.83,39.12,39.12,0,0,1,3.81-1.5c.89-.31,1.8-.64,2.72-1s2.17-.69,3.25-1c.55-.15,1.11-.33,1.67-.51s1.09-.35,1.64-.49l3.29-.8a31.92,31.92,0,0,1,3.37-.7c2.21-.5,4.54-.8,6.79-1.1a117.29,117.29,0,0,1,12.59-.91h2.13a105.21,105.21,0,0,1,51.86,14.17,109,109,0,0,1,11.5,7.6c1.75,1.36,3.58,2.78,5.26,4.37l1,.83c.57.49,1.12,1,1.63,1.47l2.51,2.41a18.54,18.54,0,0,1,1.46,1.49c.31.35.62.69.94,1s.63.68.95,1a18,18,0,0,1,1.32,1.45l1.09,1.3c1.16,1.38,2.26,2.67,3.31,4.11a101.31,101.31,0,0,1,7.15,10.59l.55.9a120.58,120.58,0,0,1,6.08,12.46,40.15,40.15,0,0,1,1.5,3.81c.31.89.64,1.8,1,2.72s.68,2.16,1,3.22c.15.58.33,1.14.51,1.7s.35,1.09.49,1.63l.8,3.3a31.92,31.92,0,0,1,.7,3.37c.5,2.22.8,4.55,1.1,6.81a113.36,113.36,0,0,1,.81,13.34Z" />
                    <path class="dial-inner-rings-strokes"
                        d="M386.7,211.12l1.22,0h.92a104.64,104.64,0,0,1,51.62,14.12,107.07,107.07,0,0,1,11.4,7.53c1.75,1.37,3.57,2.78,5.26,4.37.32.29.64.56,1,.83.57.48,1.11.94,1.62,1.45l2.54,2.43c.5.45.93.93,1.4,1.44.3.33.61.68.93,1s.65.69,1,1a17.64,17.64,0,0,1,1.3,1.43l1.08,1.29c1.16,1.37,2.25,2.66,3.32,4.12a100,100,0,0,1,7.1,10.53l.53.87a119.37,119.37,0,0,1,6.05,12.4l0,0v0a36.11,36.11,0,0,1,1.46,3.73c.32.89.65,1.81,1,2.7.39,1.06.67,2.11,1,3.22.15.58.34,1.15.51,1.7s.35,1.08.48,1.59l.81,3.34a29.69,29.69,0,0,1,.68,3.3v.06c.49,2.16.8,4.48,1.09,6.7a115.13,115.13,0,0,1,.81,12.76H481a88.77,88.77,0,0,0-.83-11.13c-.08-.48-.14-1-.21-1.44a40.38,40.38,0,0,0-.81-4.56c-.06-.29-.11-.59-.16-.88a12.93,12.93,0,0,0-.46-2.08l-.68-2.82a13.79,13.79,0,0,0-.43-1.57c-.14-.46-.28-.9-.37-1.34v-.07l0-.06c-.11-.34-.2-.69-.3-1a19,19,0,0,0-.61-1.9c-.21-.56-.41-1.13-.6-1.69-.47-1.32-1-2.69-1.52-4a120.63,120.63,0,0,0-5.36-11l0,0,0,0-.55-.89a87.06,87.06,0,0,0-6.22-9.22,39.55,39.55,0,0,0-2.57-3.23c-.42-.5-.85-1-1.24-1.49a15.21,15.21,0,0,0-1.3-1.45c-.27-.29-.53-.55-.75-.81l0,0,0,0-.76-.82a16.38,16.38,0,0,0-1.37-1.41L451.66,248c-.38-.38-.78-.72-1.16-1.06s-.72-.62-1.07-1c-.9-.84-1.83-1.58-2.73-2.29-.67-.52-1.3-1-1.92-1.55l0,0,0,0a84.2,84.2,0,0,0-10.12-6.68,92.9,92.9,0,0,0-45.76-12.5h-.9l-1.29,0a88.63,88.63,0,0,0-10.94.83l-1.44.21a37.74,37.74,0,0,0-4.55.81l-.89.16a12.93,12.93,0,0,0-2.08.46l-2.82.68a13.79,13.79,0,0,0-1.57.43c-.46.14-.9.28-1.34.37h0l-.05,0-.85.24a20.67,20.67,0,0,0-2.12.68c-.56.21-1.13.41-1.69.6-1.32.47-2.69.95-4,1.52-3.44,1.39-6.83,3.15-10.12,4.88l-5.86-10.2a108.86,108.86,0,0,1,11.46-5.54l0,0h0a38.57,38.57,0,0,1,3.73-1.47c.89-.31,1.81-.64,2.7-1,1.06-.39,2.16-.69,3.23-1,.57-.15,1.14-.34,1.69-.51s1.09-.35,1.59-.48l3.34-.81a29.69,29.69,0,0,1,3.3-.68h.06c2.16-.49,4.48-.8,6.7-1.09a119.19,119.19,0,0,1,12.52-.91m0-1.06a119.17,119.17,0,0,0-12.63.91c-2.31.3-4.62.61-6.82,1.11a33.65,33.65,0,0,0-3.41.7l-3.31.8c-1.11.3-2.21.7-3.31,1s-2.21.61-3.32,1c-2.2.9-4.41,1.5-6.52,2.51a120.71,120.71,0,0,0-12.53,6.11l6.92,12c3.61-1.9,7.22-3.81,10.93-5.31,1.81-.81,3.71-1.41,5.62-2.11,1-.4,1.9-.6,2.91-.9s1.9-.61,2.91-.81l2.91-.7a24.75,24.75,0,0,1,2.9-.6,56.66,56.66,0,0,1,5.92-1,87.06,87.06,0,0,1,10.78-.82h2.19a93,93,0,0,1,22.94,3.11,94.18,94.18,0,0,1,22.27,9.23,84,84,0,0,1,10,6.62c1.51,1.31,3.11,2.41,4.62,3.81.7.71,1.5,1.31,2.21,2l2.1,2.11c.8.7,1.41,1.5,2.11,2.2s1.4,1.41,2,2.21c1.31,1.61,2.71,3.11,3.82,4.72a99,99,0,0,1,6.72,10c1.9,3.61,3.81,7.22,5.31,10.93.81,1.81,1.41,3.71,2.11,5.62.4,1,.6,2,.9,2.91s.61,1.9.81,2.91l.7,2.91a24.75,24.75,0,0,1,.6,2.9,56.66,56.66,0,0,1,1,5.92,81.28,81.28,0,0,1,.81,12h13.94a109.64,109.64,0,0,0-.8-13.94c-.3-2.31-.61-4.62-1.11-6.82a34.43,34.43,0,0,0-.7-3.42l-.8-3.31c-.3-1.1-.7-2.2-1-3.31s-.61-2.2-1-3.31c-.9-2.2-1.5-4.41-2.51-6.52A121.86,121.86,0,0,0,479.8,263a110.4,110.4,0,0,0-7.73-11.53c-1.4-1.91-2.91-3.61-4.41-5.42-.7-.9-1.51-1.6-2.31-2.51s-1.5-1.7-2.41-2.5l-2.5-2.41c-.81-.8-1.71-1.51-2.61-2.31-1.71-1.6-3.51-3-5.32-4.41A108.6,108.6,0,0,0,441,224.31a105.54,105.54,0,0,0-52.13-14.24H386.7Z" />
                    <path class="dial-inner-rings-fill"
                        d="M389.12,421.81H387a106,106,0,0,1-51.51-13.91l6.39-11.11a95,95,0,0,0,21.93,9,93.56,93.56,0,0,0,23.08,3.13h2.2a86.73,86.73,0,0,0,10.84-.82l1.47-.21a38.52,38.52,0,0,0,4.52-.8c.28-.06.59-.11.9-.16a14.32,14.32,0,0,0,2-.46l2.87-.69a14.18,14.18,0,0,0,1.49-.41,12.7,12.7,0,0,1,1.4-.38l.9-.26a21.14,21.14,0,0,0,2.1-.67c.55-.21,1.12-.41,1.68-.61,1.31-.46,2.67-.94,4-1.51a119.72,119.72,0,0,0,10.93-5.32l.94-.57a87.42,87.42,0,0,0,9.21-6.22c1.1-.82,2.14-1.69,3.25-2.6L449,386a13.67,13.67,0,0,0,1.39-1.24c.28-.27.56-.54.83-.78s.59-.55.88-.81a14.54,14.54,0,0,0,1.38-1.35l2.09-2.19c.36-.35.69-.73,1-1.12s.64-.73,1-1.07c.84-.9,1.57-1.82,2.27-2.71.51-.66,1-1.31,1.57-1.94a81.62,81.62,0,0,0,6.69-10.12,94.19,94.19,0,0,0,9.27-22.38,93,93,0,0,0,3.13-23.49h12.88a105.17,105.17,0,0,1-14.17,52.26,109,109,0,0,1-7.6,11.5c-.5.6-1,1.22-1.49,1.84-.95,1.2-1.84,2.32-2.88,3.42-.41.41-.8.88-1.18,1.33a15.82,15.82,0,0,1-1.12,1.27L462.56,391a18.63,18.63,0,0,1-1.5,1.46c-.34.31-.68.62-1,.94s-.68.63-1,.95a18.12,18.12,0,0,1-1.46,1.32l-1.3,1.09c-1.37,1.16-2.67,2.25-4.11,3.31a100.12,100.12,0,0,1-10.61,7.16l-.88.54a120.58,120.58,0,0,1-12.46,6.08,52.54,52.54,0,0,1-5,2l-1.53.54c-1.08.4-2.19.7-3.26,1-.56.15-1.12.33-1.68.51s-1.09.35-1.63.49l-3.3.8a31.92,31.92,0,0,1-3.37.7c-2.23.5-4.55.8-6.81,1.1A116.92,116.92,0,0,1,389.12,421.81Z" />
                    <path class="dial-inner-rings-strokes"
                        d="M492.88,317.37a106,106,0,0,1-3.58,26.13,104.69,104.69,0,0,1-10.54,25.35,109.66,109.66,0,0,1-7.53,11.4c-.52.62-1,1.24-1.5,1.85-.94,1.19-1.83,2.3-2.83,3.36-.43.44-.83.92-1.21,1.38s-.73.86-1.11,1.25l-2.43,2.54c-.45.5-.93.93-1.44,1.4-.33.3-.68.61-1,.93s-.69.65-1,1a17.64,17.64,0,0,1-1.43,1.3L456,396.31c-1.37,1.16-2.66,2.25-4.12,3.32a100,100,0,0,1-10.53,7.1l-.87.53a119.37,119.37,0,0,1-12.4,6.05l0,0h0a51,51,0,0,1-4.9,1.93l-1.53.54c-1.06.39-2.11.67-3.22,1-.58.15-1.15.34-1.7.51s-1.08.35-1.59.48l-3.34.81a29.69,29.69,0,0,1-3.3.68h-.06c-2.16.49-4.48.8-6.7,1.09a119.19,119.19,0,0,1-12.52.91l-1.22,0H387A105.57,105.57,0,0,1,336.2,407.7l5.86-10.19a96.28,96.28,0,0,0,21.61,8.8,94,94,0,0,0,23.21,3.15h.9l1.29,0a88.63,88.63,0,0,0,10.94-.83l1.44-.21a38.25,38.25,0,0,0,4.56-.81l.88-.16A12.93,12.93,0,0,0,409,407l2.82-.68a13.79,13.79,0,0,0,1.57-.43c.46-.14.9-.28,1.34-.37h.05l.05,0,.85-.24a20.67,20.67,0,0,0,2.12-.68c.56-.21,1.13-.41,1.69-.6,1.32-.47,2.69-1,4-1.52a120.63,120.63,0,0,0,11-5.36l0,0,0,0,.89-.54a88.65,88.65,0,0,0,9.22-6.23c1.13-.84,2.22-1.75,3.28-2.63l1.44-1.18a15.21,15.21,0,0,0,1.45-1.3c.29-.27.55-.53.81-.75l0,0,0,0,.82-.76a13.79,13.79,0,0,0,1.4-1.36l2.09-2.19c.38-.38.72-.78,1.06-1.16s.62-.72,1-1.07c.84-.9,1.58-1.83,2.29-2.73.52-.67,1-1.3,1.55-1.92l0,0,0,0A84.2,84.2,0,0,0,468.57,363a92.92,92.92,0,0,0,12.5-45.62h11.81m1.06-1.07H480a92,92,0,0,1-3.11,23.87,94.18,94.18,0,0,1-9.23,22.27,84,84,0,0,1-6.62,10c-1.31,1.51-2.41,3.11-3.81,4.62-.71.7-1.31,1.5-2,2.21l-2.11,2.2c-.7.81-1.5,1.41-2.2,2.11s-1.41,1.4-2.21,2c-1.61,1.3-3.11,2.6-4.72,3.81a99,99,0,0,1-10,6.72c-3.61,1.9-7.22,3.81-10.93,5.31-1.81.81-3.71,1.41-5.62,2.11-1,.4-1.9.6-2.91.9s-1.9.61-2.91.81l-2.91.7a24.75,24.75,0,0,1-2.9.6,56.66,56.66,0,0,1-5.92,1,87.06,87.06,0,0,1-10.78.82h-2.19a93,93,0,0,1-22.94-3.11,94.18,94.18,0,0,1-22.27-9.23l-6.92,12A106.23,106.23,0,0,0,387,422.33h2.14a119.17,119.17,0,0,0,12.63-.91c2.31-.3,4.62-.61,6.82-1.11a34.43,34.43,0,0,0,3.42-.7l3.31-.8c1.1-.3,2.2-.7,3.31-1s2.2-.61,3.31-1c2.2-.8,4.41-1.5,6.52-2.51A120.71,120.71,0,0,0,441,408.19a109.49,109.49,0,0,0,11.54-7.73c1.91-1.4,3.61-2.91,5.42-4.41.9-.7,1.6-1.51,2.51-2.31s1.7-1.5,2.5-2.41l2.41-2.5c.8-.81,1.51-1.81,2.31-2.61,1.6-1.71,2.91-3.51,4.41-5.32a107,107,0,0,0,7.62-11.54,105.37,105.37,0,0,0,14.25-53.06Z" />
                    <path class="dial-inner-rings-fill"
                        d="M334.34,407.36a112.11,112.11,0,0,1-11-7.33c-.6-.5-1.22-1-1.84-1.49-1.2-1-2.32-1.84-3.42-2.88-.33-.3-.66-.57-1-.84-.58-.49-1.12-.95-1.63-1.46L313,391a18.63,18.63,0,0,1-1.46-1.5c-.31-.34-.62-.68-.94-1s-.63-.68-.95-1a18.12,18.12,0,0,1-1.32-1.46l-1.09-1.3c-1.16-1.37-2.25-2.67-3.31-4.11a98.89,98.89,0,0,1-7.15-10.6l-.55-.89a120.58,120.58,0,0,1-6.08-12.46,39.12,39.12,0,0,1-1.5-3.81c-.31-.89-.64-1.8-1-2.72s-.69-2.17-1-3.24c-.15-.56-.33-1.12-.51-1.69s-.35-1.08-.49-1.63l-.8-3.29a31.92,31.92,0,0,1-.7-3.37c-.5-2.22-.8-4.55-1.1-6.81a106.82,106.82,0,0,1-.9-13.76,105.16,105.16,0,0,1,14.17-52.8,109,109,0,0,1,7.6-11.5c.5-.6,1-1.22,1.49-1.84.95-1.2,1.84-2.32,2.88-3.42l.83-1c.49-.58,1-1.13,1.47-1.64l2.41-2.51a18.54,18.54,0,0,1,1.49-1.46c.35-.31.69-.62,1-.94l1-1a18,18,0,0,1,1.45-1.32l1.3-1.09c1.38-1.16,2.67-2.25,4.11-3.31a124.48,124.48,0,0,1,10.63-7l.6-.36L341,236.27l-.45.28a89.85,89.85,0,0,0-9.2,6.21,38.71,38.71,0,0,0-3.18,2.53l-1.53,1.28a13.67,13.67,0,0,0-1.39,1.24c-.28.27-.56.54-.83.78s-.59.55-.88.81a14.54,14.54,0,0,0-1.38,1.35L320,252.83c-.36.36-.69.74-1,1.13s-.64.73-1,1.07c-.84.9-1.56,1.82-2.27,2.71-.51.65-1,1.3-1.57,1.94a81.62,81.62,0,0,0-6.69,10.12,94.37,94.37,0,0,0-9.27,22.38,92.88,92.88,0,0,0-3.13,24,82,82,0,0,0,.81,12.09c.07.5.14,1,.2,1.46a41.34,41.34,0,0,0,.81,4.53c.06.28.11.59.16.9a14,14,0,0,0,.46,2l.69,2.87a14.18,14.18,0,0,0,.41,1.49A12.12,12.12,0,0,1,299,343c.1.34.18.63.26.91a20.87,20.87,0,0,0,.67,2.09c.21.55.41,1.12.6,1.68.47,1.31.95,2.67,1.52,4,1.51,3.72,3.45,7.4,5.33,11l.57.93a89.71,89.71,0,0,0,6.21,9.19c.74,1.07,1.65,2.15,2.53,3.19.43.5.86,1,1.28,1.52a14.83,14.83,0,0,0,1.24,1.39c.27.28.54.56.78.83s.55.59.81.88a14.54,14.54,0,0,0,1.35,1.38l2.08,2.09c.36.36.74.69,1.13,1s.73.64,1.07,1c.9.84,1.82,1.56,2.71,2.26.65.52,1.3,1,1.94,1.58a83.28,83.28,0,0,0,9.64,6.42Z" />
                    <path class="dial-inner-rings-strokes"
                        d="M334.37,225.9l5.86,10.19h0a87.06,87.06,0,0,0-9.22,6.22,39.55,39.55,0,0,0-3.23,2.57l-1.49,1.24a15.21,15.21,0,0,0-1.45,1.3c-.29.27-.55.53-.81.75l0,0,0,0-.82.76a16.38,16.38,0,0,0-1.41,1.37l-2.08,2.08c-.38.38-.72.78-1.06,1.16s-.62.72-1,1.07c-.84.9-1.58,1.83-2.29,2.73-.52.67-1,1.3-1.55,1.92l0,0,0,0a85,85,0,0,0-6.68,10.12,94.21,94.21,0,0,0-9.35,22.55,92.8,92.8,0,0,0-3.14,24.11,82.38,82.38,0,0,0,.81,12.23l.21,1.44a38.25,38.25,0,0,0,.81,4.56c.06.29.11.59.16.88a12.93,12.93,0,0,0,.46,2.08l.68,2.82a13.79,13.79,0,0,0,.43,1.57c.14.46.28.9.37,1.34v.05l0,.05.24.85a20.67,20.67,0,0,0,.68,2.12c.21.56.41,1.13.6,1.69.47,1.32.95,2.69,1.52,4a121.91,121.91,0,0,0,5.36,11l0,0,0,0,.54.89a88.7,88.7,0,0,0,6.23,9.22c.77,1.12,1.68,2.19,2.56,3.23.43.5.86,1,1.25,1.49a15.21,15.21,0,0,0,1.3,1.45c.27.29.53.55.75.81l0,0,0,0,.76.82a16.38,16.38,0,0,0,1.37,1.41l2.08,2.08c.38.38.78.72,1.16,1.06s.72.62,1.07,1c.9.84,1.83,1.58,2.73,2.29.67.52,1.3,1,1.92,1.55l0,0,0,0a87.47,87.47,0,0,0,9.2,6.17l-5.85,10.19a117.48,117.48,0,0,1-10.49-7c-.62-.52-1.24-1-1.85-1.5-1.19-.94-2.3-1.83-3.41-2.87-.32-.29-.64-.56-1-.83-.57-.49-1.11-.94-1.62-1.45l-2.54-2.43c-.5-.45-.93-.93-1.4-1.44-.3-.33-.61-.68-.94-1s-.64-.69-1-1a17.64,17.64,0,0,1-1.3-1.43l-1.08-1.29c-1.16-1.37-2.25-2.66-3.32-4.12a99,99,0,0,1-7.1-10.53l-.53-.87a119.37,119.37,0,0,1-6-12.4l0,0v0a38.57,38.57,0,0,1-1.47-3.73c-.31-.89-.64-1.81-1-2.7-.39-1.06-.67-2.11-1-3.22-.15-.58-.34-1.15-.51-1.7s-.35-1.08-.48-1.59l-.81-3.34a29.69,29.69,0,0,1-.68-3.3v-.06c-.49-2.16-.8-4.48-1.09-6.7a106.62,106.62,0,0,1-.89-13.74,104.44,104.44,0,0,1,14.11-52.54,108.46,108.46,0,0,1,7.53-11.39c.52-.62,1-1.25,1.5-1.86.94-1.18,1.83-2.3,2.87-3.41.29-.32.56-.64.83-1,.48-.57.94-1.11,1.45-1.62l2.43-2.53a17.32,17.32,0,0,1,1.44-1.4c.33-.31.68-.62,1-.94s.69-.65,1-1a17.64,17.64,0,0,1,1.43-1.3l1.29-1.08c1.37-1.15,2.66-2.24,4.1-3.3a122.74,122.74,0,0,1,10.59-7l.12-.07m.38-1.48A135.33,135.33,0,0,0,323,232.14c-1.91,1.4-3.61,2.91-5.42,4.41-.9.71-1.6,1.51-2.51,2.31s-1.7,1.5-2.5,2.41l-2.41,2.51c-.8.8-1.51,1.7-2.31,2.6-1.6,1.71-2.91,3.51-4.41,5.32a108.6,108.6,0,0,0-7.63,11.54,106.15,106.15,0,0,0-13.34,66.9c.3,2.31.61,4.62,1.11,6.82a34.43,34.43,0,0,0,.7,3.42l.8,3.31c.3,1.1.7,2.2,1,3.31s.61,2.2,1,3.31c.9,2.2,1.5,4.41,2.51,6.52a120.71,120.71,0,0,0,6.11,12.53,109.49,109.49,0,0,0,7.73,11.54c1.4,1.91,2.91,3.61,4.41,5.42.7.9,1.51,1.6,2.31,2.51s1.5,1.7,2.41,2.5l2.5,2.41c.81.8,1.71,1.51,2.61,2.31,1.71,1.6,3.51,2.91,5.32,4.41a109.49,109.49,0,0,0,11.53,7.63l6.93-12a84,84,0,0,1-10-6.62c-1.51-1.31-3.11-2.41-4.62-3.81-.7-.71-1.5-1.31-2.21-2l-2.1-2.11c-.81-.7-1.41-1.5-2.11-2.2s-1.4-1.41-2-2.21c-1.3-1.61-2.7-3.11-3.81-4.72a99,99,0,0,1-6.72-10c-1.9-3.61-3.81-7.22-5.31-10.93-.81-1.81-1.41-3.71-2.11-5.62-.4-1-.6-1.9-.9-2.91s-.61-1.9-.81-2.91l-.7-2.91a24.75,24.75,0,0,1-.6-2.9,56.66,56.66,0,0,1-1-5.92,81.28,81.28,0,0,1-.81-12,92,92,0,0,1,3.11-23.87A94.18,94.18,0,0,1,308,270.06a84,84,0,0,1,6.62-10c1.31-1.51,2.41-3.11,3.81-4.62.71-.7,1.31-1.5,2-2.21l2.11-2.1c.7-.8,1.5-1.41,2.2-2.11s1.41-1.4,2.21-2c1.61-1.31,3.11-2.71,4.72-3.82a99,99,0,0,1,10-6.72l-6.92-12Z" />
                </g>
            </g>
            <g id="dial_middle" data-name="dial middle">
                <g id="dial_middle-2" data-name="dial middle">
                    <path class="dial-middle"
                        d="M533.5,316.2a128.94,128.94,0,0,0-1.24-19c-.51-3.19-.93-6.28-1.54-9.37a38.6,38.6,0,0,0-1-4.64l-1.14-4.64c-.31-1.54-.92-3.09-1.34-4.53s-.82-3.09-1.44-4.53c-1.13-3-2.06-6-3.4-8.86a155.2,155.2,0,0,0-8.45-17.11,165.42,165.42,0,0,0-10.61-15.87c-1.85-2.57-4-4.94-6-7.41-1-1.24-2.16-2.37-3.19-3.51s-2.16-2.37-3.3-3.4l-3.4-3.29c-1.13-1.14-2.37-2.06-3.5-3.2-2.37-2.16-4.84-4.12-7.32-6.08a137.43,137.43,0,0,0-15.86-10.51,148.16,148.16,0,0,0-35.14-14.52,145.57,145.57,0,0,0-37.71-5,131.3,131.3,0,0,0-19.06,1.24c-3.09.51-6.28.92-9.37,1.54-1.55.31-3.09.62-4.64,1l-4.64,1.14c-1.54.31-3.09.92-4.53,1.34s-3.09.92-4.53,1.44c-3,1.13-6,2.06-8.86,3.4a155.2,155.2,0,0,0-17.11,8.45l3.09,5.25a139.09,139.09,0,0,1,63.06-18.54l.72,15.66a123.28,123.28,0,0,0-56,16.48l5.77,10a106,106,0,0,1,13.29-6.49c2.27-1,4.54-1.76,6.91-2.58,1.13-.41,2.37-.72,3.5-1.13a33.19,33.19,0,0,1,3.5-1l3.61-.93a34.92,34.92,0,0,1,3.61-.72c2.37-.52,4.84-.83,7.21-1.24a99.83,99.83,0,0,1,14.63-.93A112,112,0,0,1,417.28,208a114.93,114.93,0,0,1,27.09,11.23,105.17,105.17,0,0,1,12.27,8.14c1.85,1.54,3.91,3,5.66,4.63A30,30,0,0,1,465,234.5l2.58,2.57c.92.83,1.65,1.75,2.57,2.68s1.75,1.75,2.48,2.68c1.54,1.85,3.19,3.71,4.63,5.67a110.81,110.81,0,0,1,8.25,12.26A107.42,107.42,0,0,1,492,273.65c1,2.26,1.75,4.53,2.57,6.9.41,1.13.72,2.37,1.14,3.5s.82,2.27,1,3.51l.92,3.6a35.46,35.46,0,0,1,.72,3.61c.52,2.37.83,4.84,1.24,7.21a115.89,115.89,0,0,1,.93,14.63l33-.41ZM459.73,215.33a123.74,123.74,0,0,0-67.08-22.87l.62-15.66a139.21,139.21,0,0,1,75.52,25.86l-9.06,12.67Zm18.65,16.38c-.83-.92-1.65-1.75-2.48-2.68l-2.57-2.47,10.82-11.33,2.88,2.88c.93.93,1.86,2,2.78,3l-11.43,10.61ZM527,306.31l-15.56,1.13a125.15,125.15,0,0,0-3.19-20.4l-.62-2.47a24.75,24.75,0,0,0-.72-2.47l-1.55-5-1.75-4.84c-.52-1.65-1.34-3.2-2-4.74l14.43-6.18c.72,1.85,1.54,3.6,2.16,5.35l2,5.47,1.75,5.56a28.41,28.41,0,0,1,.72,2.78l.72,2.78a134.93,134.93,0,0,1,3.61,23Z" />
                    <path class="dial-middle"
                        d="M315,442.42a148.09,148.09,0,0,0,35.13,14.52,145.63,145.63,0,0,0,37.71,4.95,131.21,131.21,0,0,0,19.06-1.24c3.09-.51,6.29-.93,9.38-1.54a38.45,38.45,0,0,0,4.63-1l4.64-1.14c1.55-.31,3.09-.92,4.53-1.34s3.09-.92,4.54-1.44c3-1.13,6-2.06,8.86-3.4a155.06,155.06,0,0,0,17.1-8.45,165.42,165.42,0,0,0,15.87-10.61c2.57-1.85,4.94-4,7.42-6,1.23-1,2.37-2.16,3.5-3.19s2.37-2.16,3.4-3.3l3.3-3.4c1.13-1.13,2.06-2.37,3.19-3.5,2.16-2.37,4.12-4.84,6.08-7.32a136.14,136.14,0,0,0,10.51-15.86,145.66,145.66,0,0,0,19.47-72.85h-6.08a131.46,131.46,0,0,1-3.91,32.87A142.45,142.45,0,0,1,518.46,365a156.92,156.92,0,0,1-6.7,15.14l-13.91-7.11a120.82,120.82,0,0,0,6-13.49,111.32,111.32,0,0,0,4.23-14.12,137.05,137.05,0,0,0,2.68-14.53,116.16,116.16,0,0,0,.82-14.73H500a110.68,110.68,0,0,1-3.81,29.06A115.7,115.7,0,0,1,485,372.35a104.22,104.22,0,0,1-8.14,12.26c-1.55,1.86-3,3.92-4.64,5.67-.82.93-1.54,1.86-2.47,2.78l-2.57,2.58c-.83.93-1.76,1.65-2.68,2.57s-1.76,1.76-2.68,2.48c-1.86,1.54-3.71,3.19-5.67,4.63a111.76,111.76,0,0,1-12.26,8.25,106,106,0,0,1-13.29,6.49c-2.27,1-4.53,1.75-6.9,2.57-1.14.42-2.37.72-3.51,1.14a35,35,0,0,1-3.5,1l-3.61.92c-1.13.31-2.37.52-3.6.73-2.37.51-4.85.82-7.22,1.23a115.77,115.77,0,0,1-14.63.93,112.39,112.39,0,0,1-29.15-3.81,116,116,0,0,1-27.1-11.23L315,442.42ZM439.12,429a123.18,123.18,0,0,0,53.37-46.57l13.29,8.35a138.84,138.84,0,0,1-60.17,52.44L439.12,429ZM415.73,437l3.5-.92,1.76-.42,1.75-.51,4.43,15-2,.62-2,.52-3.91,1L415.73,437Zm-88.92,4.74,6.8-14.11a129.84,129.84,0,0,0,39.57,11.64l-1.86,15.56a140.48,140.48,0,0,1-44.51-13.09Z" />
                    <path class="dial-middle"
                        d="M315,190.09A165.42,165.42,0,0,0,299.1,200.7c-2.58,1.85-5,4-7.42,6-1.24,1-2.37,2.16-3.5,3.19s-2.37,2.16-3.4,3.3l-3.3,3.4c-1.13,1.13-2.06,2.37-3.19,3.5-2.17,2.37-4.12,4.84-6.08,7.32a136.14,136.14,0,0,0-10.51,15.86,145.81,145.81,0,0,0-19.48,72.85,132.73,132.73,0,0,0,1.24,19.06c.52,3.09.93,6.28,1.55,9.37.31,1.55.61,3.09,1,4.64l1.13,4.64c.31,1.54.93,3.09,1.34,4.53s.93,3.09,1.44,4.53c1.14,3,2.06,6,3.4,8.86a155.2,155.2,0,0,0,8.45,17.11,165.42,165.42,0,0,0,10.61,15.87c1.86,2.57,4,4.94,6,7.41,1,1.24,2.16,2.37,3.19,3.51s2.17,2.37,3.3,3.4l3.4,3.29c1.13,1.14,2.37,2.06,3.5,3.2,2.37,2.16,4.85,4.12,7.32,6.08A137.55,137.55,0,0,0,315,442.11l3.09-5.36a138.18,138.18,0,0,1-47.6-45.34L283.64,383a123.28,123.28,0,0,0,42.25,40.18l5.77-10A104.22,104.22,0,0,1,319.4,405c-1.86-1.54-3.92-3-5.67-4.63a30,30,0,0,1-2.68-2.48l-2.58-2.57c-.92-.83-1.64-1.75-2.57-2.68s-1.75-1.75-2.47-2.68c-1.55-1.85-3.2-3.71-4.64-5.67A109.36,109.36,0,0,1,290.55,372a104.66,104.66,0,0,1-6.49-13.29c-1-2.26-1.76-4.53-2.58-6.9-.41-1.13-.72-2.37-1.13-3.5a33.38,33.38,0,0,1-1-3.51l-.93-3.5a34.92,34.92,0,0,1-.72-3.61c-.52-2.37-.83-4.84-1.24-7.21a117.78,117.78,0,0,1-.93-14.63,112,112,0,0,1,3.82-29.16,115.6,115.6,0,0,1,11.23-27.1,105.9,105.9,0,0,1,8.14-12.26c1.54-1.85,3-3.91,4.63-5.66A30,30,0,0,1,305.8,239l2.57-2.58c.83-.92,1.75-1.65,2.68-2.57s1.75-1.75,2.68-2.48c1.85-1.54,3.71-3.19,5.67-4.63a110.81,110.81,0,0,1,12.26-8.25L315,190.09ZM264.48,304.35c-.41,3-.41,6-.62,9,0,3-.1,6,.1,9s.42,6,.73,9c.2,1.45.41,3,.61,4.43.11.72.21,1.45.31,2.17L266,340l.41,2.16a16.64,16.64,0,0,0,.51,2.17l1.14,4.33,1.23,4.32.62,2.17.82,2.06A124,124,0,0,0,278,373.69L264.17,381A134.78,134.78,0,0,1,256,362.46l-.82-2.37-.72-2.47c-.52-1.65-1-3.19-1.45-4.84l-1.23-4.95a19.75,19.75,0,0,1-.52-2.47l-.51-2.47-.52-2.48c-.2-.82-.2-1.65-.41-2.47-.21-1.65-.52-3.3-.72-5.05-.31-3.4-.72-6.7-.83-10.1s-.1-6.69-.1-10.09c.21-3.4.21-6.7.62-10.1l15.66,1.75ZM269.32,280l-1,3.5c-.31,1.13-.62,2.37-.93,3.5l-15.24-3.71c.31-1.34.61-2.68,1-3.91l1.13-3.92,15,4.54Zm40.39-79.34,8.76,13-2.16,1.44-1,.73-1,.82-4.12,3.09-3.91,3.3c-1.34,1.13-2.58,2.37-3.81,3.5A121.69,121.69,0,0,0,288.69,242l-12.57-9.38a136.84,136.84,0,0,1,15.46-17.31c1.44-1.34,2.78-2.68,4.32-3.91l4.44-3.71L305,204.2l1.14-.92,1.23-.83,2.37-1.75Z" />
                </g>
            </g>
            <g id="dial-outer">
                <g id="dial-outer-solid">
                    <g id="dial">
                        <path class="dial-outer-solid"
                            d="M540.34,316.2H570v-5.43l-.31-5.44c-4.49-2.61-9.3-4.91-14-7.1-.21-3.34-.94-6.79-1.36-10.13-.21-1.68-.62-3.35-.94-5s-.63-3.34-1-5c3.65-3.56,7.31-7.32,10.86-11.29a180.76,180.76,0,0,0-14.73-36.46c-5.33-.42-10.34-.62-15.67-.52a154.84,154.84,0,0,0-15.67-22,146.65,146.65,0,0,0,4.6-14.94c-1.57-1.68-3.14-3.45-4.81-5.12l-5-4.91c-1.68-1.57-3.45-3.14-5.23-4.7s-3.55-3-5.43-4.5c-3.66-2.92-7.42-5.64-11.28-8.36l-5.85-3.76c-2-1.25-4-2.4-6.06-3.55-4.6,2.4-9.2,5.12-13.59,7.84-3-1.67-6.26-3-9.4-4.5-1.57-.73-3.24-1.35-4.8-2s-3.24-1.36-4.81-1.88c-.94-5-2.09-10.24-3.45-15.25l-7-2.09-7.1-1.67c-1.88,1.77-3.66,3.76-5.43,5.64s-3.56,3.86-5.23,5.85c-1.67-.32-3.45-.53-5.12-.84s-3.45-.52-5.12-.73l-5.22-.52-2.61-.21-2.61-.11c-2.41-4.59-5-9.19-7.74-13.58a177.88,177.88,0,0,0-32.38,2.61c-2,4.91-3.87,9.83-5.43,14.74a173.87,173.87,0,0,0-27.17,8.56c-2.09-1.56-4.18-3-6.27-4.59-1-.74-2.19-1.47-3.24-2.2l-3.23-2.09c-2.41,1.15-4.91,2.3-7.32,3.55l-7.21,3.87L311.44,184a149.91,149.91,0,0,1,17.86-8.78c3-1.35,6.17-2.4,9.3-3.55a43,43,0,0,1,4.7-1.46,36.37,36.37,0,0,1,4.81-1.36l4.81-1.25c1.56-.42,3.23-.63,4.91-1,3.23-.73,6.58-1.15,9.82-1.67a141.11,141.11,0,0,1,20-1.25,152.27,152.27,0,0,1,39.49,5.22,155.51,155.51,0,0,1,36.78,15.25,148.5,148.5,0,0,1,16.61,11.08c2.61,2.09,5.22,4.07,7.73,6.37,1.25,1.15,2.51,2.2,3.66,3.35l3.55,3.44c1.25,1.15,2.3,2.41,3.45,3.55s2.29,2.41,3.34,3.66c2.09,2.51,4.39,5,6.27,7.73a149.35,149.35,0,0,1,11.07,16.61,144.21,144.21,0,0,1,8.78,18c1.36,3,2.4,6.17,3.55,9.3a40.9,40.9,0,0,1,1.46,4.7,34.9,34.9,0,0,1,1.36,4.81l1.25,4.8c.42,1.57.74,3.24,1,4.91.73,3.24,1.15,6.59,1.67,9.83a107.34,107.34,0,0,1,1.67,19.95ZM322.83,176c-2.51,1.25-5.12,2.29-7.53,3.76L310.08,170c2.61-1.46,5.33-2.72,8.05-4l4.7,9.93Zm5.12-2.3-1.78.73-4.39-10.14,1.88-.83L328,173.7Zm5.12-2.09a9.21,9.21,0,0,0-1.78.73l-4.08-10.24a11.69,11.69,0,0,1,2-.73l3.87,10.24Zm5.22-1.88-1.78.62-3.65-10.44,2-.73,3.45,10.55Zm5.22-1.57-1.88.52-3.34-10.55,2-.63,3.24,10.66Zm5.33-1.57-1.88.53L344,156.46l2-.52,2.82,10.65Zm5.43-1.25c-.62.1-1.25.31-1.88.42L349.89,155c.62-.21,1.35-.32,2-.53l2.4,10.87Zm34.58-3.66h-4.17c-1.36,0-2.83.11-4.18.21L380,150.82c1.47,0,3-.21,4.5-.21H389l-.11,11.07Zm16.51.94-1.88-.21,1.15-11,2.09.21-1.36,11Zm16.4,2.82c-2.71-.62-5.43-1-8.25-1.67l1.88-10.86c2.93.62,5.85,1,8.78,1.77l-2.41,10.76Zm10.66,2.82-1.88-.52,3-10.55,2,.63-3.13,10.44Zm15.67,5.65-3.86-1.57c-1.26-.52-2.62-1.05-4-1.46L444,160.53c1.46.53,2.82,1.05,4.18,1.57l4.18,1.67-4.29,10.14Zm10,4.7-1.67-.94,4.91-9.93,1.88.94Zm12.75,7.21c-1.05-.63-2-1.36-3-1.88l-.84-.42-.94-.52,5.54-9.51.94.52.83.52a34.52,34.52,0,0,1,3.24,2.09l-5.74,9.2ZM490.82,201l-3.13-2.71c-1.05-.94-2.2-1.78-3.24-2.61l6.89-8.57c1.15.94,2.41,1.88,3.45,2.82l3.34,2.93L490.82,201Zm4.08,3.77-1.36-1.36,7.52-8.05,1.46,1.47Zm3.86,3.86a17.44,17.44,0,0,0-1.36-1.36l7.84-7.73A18.35,18.35,0,0,1,506.7,201l-7.94,7.62Zm3.87,4.08-1.36-1.47,8.15-7.52,1.46,1.57Zm3.55,4.18-1.25-1.47,8.35-7.21,1.36,1.57Zm6.48,8.25-1.15-1.57,8.88-6.58,1.25,1.67-9,6.48Zm6.16,9.09-1-1.67,9.29-6,1,1.78Zm2.93,4.8-1-1.67,9.51-5.64,1,1.78-9.5,5.53Zm5.12,9.72c-1.15-2.51-2.51-5-3.87-7.42l9.61-5.33c1.46,2.62,2.93,5.23,4.18,7.94ZM534.7,268l-.63-1.88,10.45-3.56c.21.63.52,1.26.73,2L534.7,268ZM541,295l-.31-1.88,10.86-1.67.31,2.09L541,295Zm.63,5.54-.21-1.88,11-1.26.21,2.09-11,1Z" />
                        <path class="dial-outer-solid"
                            d="M311.54,448.36l-14.83,25.7c3.13,1.88,6.37,3.45,9.61,5.22,2.19-1.35,4.49-2.71,6.69-4.17s4.28-2.93,6.37-4.39c1.57.73,3.13,1.36,4.7,2l4.7,1.88,4.81,1.67,2.4.84c.84.21,1.67.52,2.4.73.63,2.51,1.26,5,2,7.52l1,3.76,1.15,3.77a182.39,182.39,0,0,0,39,5.53l2.2-3.24,2.08-3.34c1.36-2.19,2.72-4.49,4-6.69a167.2,167.2,0,0,0,27-2.5c3.34,3.86,6.89,7.73,10.66,11.49a198.7,198.7,0,0,0,26.74-8.25,207.27,207.27,0,0,0,25.18-12.23q.32-8,0-15.67l4.28-2.92a39.17,39.17,0,0,0,4.29-3c2.71-2.09,5.53-4.18,8.15-6.48a147.62,147.62,0,0,0,14.94,4.6l2.61-2.51c.94-.84,1.77-1.67,2.61-2.51l5.12-5.22c-1.36-5.12-2.93-10.14-4.6-14.94,1.15-1.36,2.2-2.72,3.24-4.08s2.19-2.71,3.13-4.07c2-2.82,4.08-5.64,6-8.57,2.61.11,5.22.21,7.83.21s5.23-.1,7.84-.1A175.59,175.59,0,0,0,558.52,379c-3.24-4.18-6.48-8.15-10-12a169.18,169.18,0,0,0,6.27-27.79c2.4-.94,4.81-2,7.1-3.13s4.71-2.3,7-3.45c.11-1.36.32-2.71.32-4.07l.21-4.08.21-4.07V316.3H539.92a152.29,152.29,0,0,1-5.22,39.5,155.44,155.44,0,0,1-15.25,36.77,148.5,148.5,0,0,1-11.08,16.61c-2.09,2.61-4.07,5.23-6.37,7.73-1.15,1.26-2.19,2.51-3.34,3.66l-3.45,3.55c-1.15,1.26-2.4,2.3-3.66,3.45s-2.4,2.3-3.65,3.34c-2.62,2.09-5,4.39-7.73,6.27A151.66,151.66,0,0,1,445.69,457c-3,1.36-6.17,2.4-9.3,3.55a40.37,40.37,0,0,1-4.7,1.47,36.34,36.34,0,0,1-4.81,1.35l-4.8,1.26c-1.57.42-3.24.73-4.91,1-3.24.73-6.58,1.15-9.82,1.67a141.35,141.35,0,0,1-20,1.26,152.28,152.28,0,0,1-39.49-5.23,150.18,150.18,0,0,1-36.36-15ZM541.8,330.1c.32-2.83.42-5.54.53-8.36l11.07.42c-.1,3-.21,5.95-.52,9l-11.08-1Zm-.62,5.53a11.89,11.89,0,0,0,.21-1.88l11,1.26c0,.73-.21,1.35-.21,2.08l-11-1.46Zm-.73,5.43.31-1.88,10.87,1.68-.32,2.09Zm-1.05,5.44.32-1.88,10.86,2.09-.42,2.09-10.76-2.3Zm-1.15,5.43.42-1.88,10.76,2.4-.52,2Zm-1.36,5.43c.21-.62.32-1.25.53-1.88l10.65,2.82c-.21.63-.31,1.36-.52,2l-10.66-2.93Zm-1.56,5.23.52-1.88,10.55,3.13-.63,2-10.44-3.24Zm-14.11,31.86,2.09-3.66,1.88-3.76,9.82,5-2.09,4-2.29,3.86-9.41-5.43ZM512,408.24l1.15-1.57,9,6.48-1.25,1.67L512,408.24Zm-10.55,12.85c1.88-2.09,3.76-4.18,5.54-6.37l8.46,7c-1.88,2.3-4,4.49-5.85,6.79Zm-7.84,7.84,1.46-1.36,7.63,7.94L501.16,437l-7.52-8ZM481,439.58l3.34-2.5c1.05-.84,2.09-1.78,3.24-2.72l7.11,8.46c-1.15.94-2.3,2-3.45,2.93l-3.55,2.71L481,439.58ZM471.91,446l1.57-1,6.16,9.2L478,455.26Zm-12.64,7.41,3.13-1.77.84-.42.94-.52,5.43,9.61-.94.52-.83.42-3.35,1.88-5.22-9.72Zm-23.09,9.72,7.84-2.82,4.07,10.24c-2.82,1-5.64,2.09-8.46,3l-3.45-10.45Zm-5.33,1.67,1.88-.52L436,474.79l-2,.63-3.14-10.66Zm-5.32,1.46,1.88-.52,2.82,10.66-2,.52-2.71-10.66Zm-5.44,1.26a12.42,12.42,0,0,0,1.88-.42l2.41,10.76a14.11,14.11,0,0,1-2,.42Zm-5.43,1,1.88-.41L418.63,479l-2.09.42-1.88-10.87ZM404.32,470l1.88-.21,1.36,11-2.09.21-1.15-11Zm-11,.83,2-.1.52,11.07-2.08.11Zm-5.54,0h2l.1,11.08h-2.09Zm-11.07-.31c2.82.1,5.53.31,8.35.42L384.88,482c-3-.1-5.95-.21-9-.42l.84-11.07Zm-20.69-2.93,1.88.32-2.09,10.86-2.09-.42,2.3-10.76Zm-26.43-8,1.77.73-4,10.24-1.88-.73,4.08-10.24Zm-5-2.2,1.78.84L322,468.31l-1.88-.83,4.49-10.14Z" />
                        <path class="dial-outer-solid"
                            d="M311.54,184.14l-14.83-25.7-4.6,2.82c-1.57,1-3.13,1.89-4.6,2.93.11,5.33.42,10.45.84,15.57a185.52,185.52,0,0,0-15.78,13.06c-2.5-.74-5-1.47-7.52-2.09s-5-1.15-7.62-1.78a183.81,183.81,0,0,0-24.35,31c2.3,4.7,4.81,9.4,7.32,13.79a180.92,180.92,0,0,0-11.29,24.66c-5,.94-10.23,2.09-15.25,3.44a187.37,187.37,0,0,0-6.27,27.27c-.31,2.3-.73,4.6-.94,6.9l-.63,7c-.2,4.7-.52,9.29-.41,14,2.19,1.46,4.49,2.71,6.68,4.07l6.9,3.76a173.18,173.18,0,0,0,2.3,20.69c-3.87,3.34-7.73,6.89-11.5,10.65,1.15,4.7,2.3,9.41,3.77,14.11,2.5.73,5,1.36,7.62,1.88s5.12,1,7.63,1.57a171.21,171.21,0,0,0,8.25,19c-2.71,4.28-5.33,8.88-7.83,13.48a178.76,178.76,0,0,0,18.49,26.64c5.22-.73,10.34-1.46,15.46-2.61,1.67,1.77,3.24,3.55,4.91,5.22l5.12,5,5.33,4.71c1.78,1.56,3.66,3,5.54,4.49l-.53,3.86c-.1,1.26-.21,2.62-.31,3.87-.21,2.61-.42,5.22-.52,7.83,2.19,1.68,4.49,3,6.79,4.6l3.45,2.2,3.55,2.08,14.83-25.7a147.06,147.06,0,0,1-16.61-11.07c-2.61-2.09-5.22-4.07-7.73-6.37-1.25-1.15-2.51-2.2-3.66-3.35L280,424.23c-1.25-1.15-2.3-2.41-3.44-3.56s-2.3-2.4-3.35-3.65c-2.09-2.61-4.39-5-6.27-7.73a152.08,152.08,0,0,1-19.85-34.48c-1.35-3-2.4-6.16-3.55-9.3a40.29,40.29,0,0,1-1.46-4.7c-.42-1.57-1-3.13-1.36-4.81l-1.25-4.8c-.42-1.57-.63-3.24-1.05-4.91-.73-3.24-1.15-6.58-1.67-9.82a139.78,139.78,0,0,1-1.25-20A152.27,152.27,0,0,1,240.71,277,155.44,155.44,0,0,1,256,240.25,147.59,147.59,0,0,1,267,223.64c2.09-2.62,4.07-5.23,6.37-7.74,1.15-1.25,2.19-2.5,3.34-3.76l3.45-3.55c1.15-1.25,2.4-2.3,3.66-3.45s2.4-2.29,3.65-3.34c2.62-2.09,5-4.39,7.74-6.27a116.62,116.62,0,0,1,16.29-11.39ZM298.8,442.61l1.67,1.26,1.78,1.15,3.55,2.3-5.85,9.4-3.76-2.41-1.88-1.25-1.88-1.25,6.37-9.2Zm-4.49-3.23c.52.41,1,.73,1.56,1.14l-6.58,8.88c-.52-.41-1.15-.83-1.67-1.25l6.69-8.77ZM290,435.93l1.57,1.25-6.9,8.67-1.56-1.25,6.89-8.67Zm-4.28-3.55,1.46,1.25L280,442l-1.56-1.36,7.31-8.25Zm-4.08-3.66a15.85,15.85,0,0,1,1.36,1.36l-7.52,8.15a20.17,20.17,0,0,1-1.46-1.47l7.62-8Zm-4-3.87,1.36,1.36-7.73,7.84-1.46-1.47,7.83-7.73Zm-3.76-4.07,1.36,1.36-8,7.52-1.47-1.46Zm-20.47-28.1c1.35,2.4,2.92,4.8,4.28,7.2l-9.3,6c-1.57-2.61-3.13-5.12-4.6-7.73l9.62-5.43ZM246,377.84l.73,1.78-10,4.49-.84-1.88L246,377.84Zm-5.75-15.57c.73,2.72,1.78,5.33,2.72,7.94l-10.34,3.87c-1-2.82-2.09-5.64-2.93-8.46l10.55-3.35Zm-3-10.65.42,1.88L227,356.11l-.52-2,10.76-2.5Zm-2.92-16.3c.42,2.72.83,5.54,1.25,8.25l-10.86,2c-.53-2.93-.94-6-1.36-8.88l11-1.36Zm-.94-11.08.1,1.89-11,.73-.1-2.09Zm0-14.62-.11,3.55v2l-11.07-.11V313c0-1.25.1-2.61.21-3.86l11,.52Zm3.13-25-.83,4.07-.42,2.09L235,292.9l-10.86-1.67.31-2.19.42-2.2.84-4.39,10.86,2.2Zm1.26-5.33-.42,1.88-10.76-2.51.52-2Zm1.35-5.33-.52,1.88L228,273l.63-2,10.55,3Zm1.57-5.33a12.29,12.29,0,0,0-.52,1.88l-10.55-3.23c.21-.63.41-1.36.62-2l10.45,3.34Zm1.78-5.22-.63,1.88-10.45-3.66.63-2,10.45,3.76Zm4-9.72a14.29,14.29,0,0,1-.84,1.78l-10.13-4.28a14.75,14.75,0,0,1,.83-1.88l10.14,4.38Zm4.8-9.92-.94,1.67-9.82-5,.94-1.88ZM254,239l-.94,1.68-9.61-5.44,1-1.77L254,239Zm5.85-9.4-2.3,3.55a38.51,38.51,0,0,0-2.19,3.56l-9.51-5.65c.73-1.25,1.57-2.5,2.4-3.76l2.41-3.76,9.19,6.06Zm12.75-16.51-1.26,1.47L263,207.23l1.36-1.56Zm20.26-18.8-1.56,1.15-6.9-8.67,1.67-1.26,6.79,8.78Zm4.39-3.34-1.57,1.14-6.58-8.88,1.67-1.25,6.48,9Z" />
                    </g>
                </g>
                <g id="bricks">
                    <g id="horizontal_bricks" data-name="horizontal bricks">
                        <path class="horizontal-bricks"
                            d="M241.86,453.58l2.51,2.72c.83.84,1.77,1.67,2.61,2.61,1.77,1.67,3.45,3.45,5.33,5.12,3.65,3.24,7.31,6.48,11.18,9.51,1.88,1.57,3.86,3,5.85,4.49s4,2.82,6,4.28c4.08,2.62,8.15,5.33,12.43,7.73l4.5-7.73c-4.08-2.29-7.94-4.8-11.91-7.41-1.88-1.36-3.76-2.72-5.75-4.08S270.8,468,269,466.54c-3.65-2.82-7.21-6-10.65-9.09-1.68-1.57-3.35-3.24-5-4.81-.83-.83-1.67-1.56-2.51-2.5l-2.4-2.51-6.58,5.95Z" />
                        <path class="horizontal-bricks"
                            d="M203.2,394.45l1.47,3.34c.52,1.15,1,2.2,1.56,3.35,1.05,2.19,2.09,4.39,3.24,6.58,2.3,4.28,4.6,8.57,7.21,12.75,1.26,2.08,2.51,4.17,3.87,6.16l4.07,6.06c1.36,2,2.93,4,4.39,5.85l2.19,2.92c.73.94,1.57,1.89,2.3,2.83l6.9-5.75c-.73-.94-1.47-1.78-2.2-2.72L236.11,433c-1.35-1.88-2.82-3.65-4.18-5.64l-4-5.75c-1.35-1.88-2.5-4-3.76-5.85-2.5-4-4.59-8-6.89-12.12-1.05-2.08-2-4.17-3-6.26-.52-1.05-1.05-2.09-1.46-3.14L211.46,391l-8.26,3.45Z" />
                        <path class="horizontal-bricks"
                            d="M189.73,285.38l-.94,6.58c-.32,2.2-.42,4.39-.63,6.69l-.31,3.34c-.11,1.15-.11,2.2-.21,3.34l-.32,6.69,9,.21.31-6.37c.11-1.05.11-2.09.21-3.24l.31-3.14c.21-2.09.42-4.28.63-6.37l.94-6.27-9-1.46Z" />
                        <path class="horizontal-bricks"
                            d="M341.84,121.15l-7.1,1.77c-2.3.63-4.7,1.36-7,2.09-1.15.32-2.3.73-3.55,1l-3.45,1.25c-2.3.84-4.6,1.57-6.9,2.61a209.91,209.91,0,0,0-26.33,12.75l4.5,7.73a205.09,205.09,0,0,1,25.07-12.12c2.19-.94,4.39-1.67,6.58-2.4l3.24-1.15c1.15-.42,2.2-.73,3.34-1,2.2-.62,4.5-1.35,6.69-2l6.79-1.67-1.88-8.88Z" />
                        <path class="horizontal-bricks"
                            d="M412.47,117.28a200.4,200.4,0,0,0-58.41,1.36l1.47,8.88a207.36,207.36,0,0,1,27.79-2.72,190.89,190.89,0,0,1,27.89,1.47l1.26-9Z" />
                        <path class="horizontal-bricks"
                            d="M513.6,160.12a201,201,0,0,0-21.94-15.36l-4.6,7.62A193.92,193.92,0,0,1,508,167.12Z" />
                        <path class="horizontal-bricks"
                            d="M588.09,306.27c-.11-2.19-.21-4.49-.42-6.68L587,292.9c-.21-2.19-.62-4.39-.94-6.68s-.62-4.39-1-6.59l-8.78,1.68c.42,2.09.73,4.17,1.05,6.26a62.07,62.07,0,0,1,.83,6.38l.63,6.37c.21,2.09.31,4.28.42,6.37l8.88-.42Z" />
                        <path class="horizontal-bricks"
                            d="M579.73,374a204,204,0,0,0,6.37-28.52c.32-2.4.73-4.8.94-7.21l.73-7.31c.21-2.4.21-4.91.42-7.31,0-1.26.11-2.41.11-3.66V316.3h-9v3.45c0,1.15-.1,2.3-.1,3.45-.11,2.3-.21,4.7-.32,7l-.62,7c-.21,2.3-.63,4.6-.94,6.89a190.74,190.74,0,0,1-6.06,27.27l8.46,2.61Z" />
                        <path class="horizontal-bricks"
                            d="M547.86,437.08a219,219,0,0,0,15.88-24.55,217.23,217.23,0,0,0,12.12-26.65l-8.35-3.13a192.22,192.22,0,0,1-11.6,25.39,213.15,213.15,0,0,1-15.15,23.5Z" />
                        <path class="horizontal-bricks"
                            d="M460.21,503.21c2.09-.84,4.18-1.67,6.16-2.61l3.14-1.26c1-.41,2-.94,3-1.46L478.6,495c2-1,4-2.09,5.85-3.14L480.17,484c-1.89,1-3.77,2.08-5.65,3l-5.74,2.71c-.94.42-1.88.94-2.93,1.36l-2.92,1.25c-2,.84-4,1.67-5.85,2.51l3.13,8.36Z" />
                        <path class="horizontal-bricks"
                            d="M296.5,494.64c4,2.09,8,3.87,12.12,5.75l6.16,2.51,3.14,1.25,3.13,1.15,3-8.46-3-1-2.92-1.15-6-2.4c-3.86-1.78-7.83-3.45-11.49-5.43l-4.18,7.83Z" />
                        <path class="horizontal-bricks"
                            d="M279.05,147.79c-1.88,1.25-3.65,2.51-5.53,3.76l-2.72,1.88c-.94.63-1.78,1.36-2.72,2l-5.33,4.08c-1.77,1.36-3.44,2.82-5.11,4.28l5.85,6.79c1.67-1.36,3.23-2.71,4.91-4.07l5.12-3.87c.83-.62,1.67-1.25,2.61-1.88l2.61-1.77c1.78-1.15,3.55-2.41,5.33-3.56l-5-7.62Z" />
                    </g>
                    <g id="vertical_bricks" data-name="vertical bricks">
                        <polygon class="vertical-bricks"
                            points="268.19 135.15 265.99 136.71 272.57 146.43 274.66 144.97 268.19 135.15" />
                        <polygon class="vertical-bricks"
                            points="259.1 141.52 257.01 143.09 264.01 152.49 266.1 150.92 259.1 141.52" />
                        <polygon class="vertical-bricks"
                            points="250.43 148.31 248.34 149.98 255.86 158.97 257.84 157.4 250.43 148.31" />
                        <polygon class="vertical-bricks"
                            points="172.18 291.44 171.97 294.05 183.67 295.31 183.88 292.8 172.18 291.44" />
                        <polygon class="vertical-bricks"
                            points="197.15 419.84 198.5 422.24 208.74 416.5 207.49 414.2 197.15 419.84" />
                        <polygon class="vertical-bricks"
                            points="202.68 429.35 204.04 431.64 213.97 425.48 212.71 423.29 202.68 429.35" />
                        <polygon class="vertical-bricks"
                            points="208.64 438.64 210.2 440.84 219.82 434.15 218.35 432.06 208.64 438.64" />
                        <polygon class="vertical-bricks"
                            points="253.87 487.01 255.96 488.69 263.17 479.39 261.08 477.82 253.87 487.01" />
                        <polygon class="vertical-bricks"
                            points="262.75 493.6 264.95 495.16 271.63 485.55 269.55 483.99 262.75 493.6" />
                        <polygon class="vertical-bricks"
                            points="271.95 499.76 274.25 501.22 280.41 491.19 278.22 489.84 271.95 499.76" />
                        <polygon class="vertical-bricks"
                            points="604.49 303.14 604.28 300.42 592.58 301.26 592.79 303.87 604.49 303.14" />
                        <polygon class="vertical-bricks"
                            points="603.55 292.17 603.24 289.45 591.64 290.81 591.85 293.43 603.55 292.17" />
                        <path class="vertical-bricks"
                            d="M602,281.1a23.25,23.25,0,0,0-.42-2.72l-11.49,2.09a19.92,19.92,0,0,1,.42,2.51L602,281.1Z" />
                        <polygon class="vertical-bricks"
                            points="517.04 141.94 514.85 140.26 508.06 149.77 510.15 151.34 517.04 141.94" />
                        <path class="vertical-bricks" d="M393.56,99.31h-2.72l-.21,11.7h2.61l.32-11.7Z" />
                        <path class="vertical-bricks"
                            d="M382.48,99.21c-.94,0-1.77.1-2.71.1l.41,11.7c.84,0,1.67-.1,2.62-.1Z" />
                        <polygon class="vertical-bricks"
                            points="371.41 99.83 368.69 100.04 369.74 111.74 372.24 111.53 371.41 99.83" />
                        <polygon class="vertical-bricks"
                            points="306.84 114.88 304.33 115.92 308.83 126.79 311.23 125.74 306.84 114.88" />
                        <polygon class="vertical-bricks"
                            points="296.71 119.27 294.31 120.42 299.32 131.07 301.62 129.92 296.71 119.27" />
                        <polygon class="vertical-bricks"
                            points="286.78 124.18 284.49 125.43 290.02 135.77 292.32 134.52 286.78 124.18" />
                        <path class="vertical-bricks"
                            d="M291,510.42c.84.42,1.57.83,2.41,1.25l5.11-10.55a15.31,15.31,0,0,1-2.29-1.15L291,510.42Z" />
                        <path class="vertical-bricks"
                            d="M300.89,515.12a24.08,24.08,0,0,0,2.5,1L308,505.4a22.61,22.61,0,0,1-2.4-1Z" />
                        <path class="vertical-bricks"
                            d="M311.23,519.3l2.51.94,4-11c-.84-.32-1.57-.52-2.41-.84l-4.07,10.87Z" />
                        <polygon class="vertical-bricks"
                            points="474.21 515.33 476.72 514.28 471.91 503.52 469.51 504.57 474.21 515.33" />
                        <polygon class="vertical-bricks"
                            points="572.94 429.55 574.3 427.26 564.27 421.3 562.91 423.5 572.94 429.55" />
                        <polygon class="vertical-bricks"
                            points="578.48 420.05 579.73 417.54 569.39 412.11 568.13 414.41 578.48 420.05" />
                        <polygon class="vertical-bricks"
                            points="583.49 410.12 584.64 407.72 573.98 402.7 572.94 405.11 583.49 410.12" />
                        <polygon class="vertical-bricks"
                            points="602.61 346.92 603.03 344.2 591.43 342.74 591.01 345.24 602.61 346.92" />
                        <polygon class="vertical-bricks"
                            points="603.97 335.95 604.18 333.23 592.48 332.29 592.27 334.9 603.97 335.95" />
                        <polygon class="vertical-bricks"
                            points="604.7 324.87 604.8 322.15 593.1 321.84 593 324.45 604.7 324.87" />
                    </g>

                </g>
            </g>
            <g id="wings">
                <path class="wings" d="M139.78,154.2h77.31c1.93-2,3.9-4,5.9-6H129.66Z" />
                <polygon class="wings" points="61.09 154.2 50.16 148.2 43.62 148.2 46.58 154.2 61.09 154.2" />
                <path class="wings" d="M552.72,148.2c2,2,4,4,5.92,6h77.08l10.08-6Z" />
                <polygon class="wings" points="79.31 164.2 68.38 158.2 48.56 158.2 51.52 164.2 79.31 164.2" />
                <path class="wings" d="M152.63,324.2c-.06-2-.09-4-.11-6H105.44l3,6Z" />
                <path class="wings" d="M562.35,158.2c1.79,2,3.56,4,5.28,6h51.3l10.08-6Z" />
                <path class="wings" d="M194.17,182.41q1.47-2.13,3-4.21H180.29l7.11,4.21Z" />
                <path class="wings" d="M571,168.2c1.6,2,3.15,4,4.69,6h26.49l10.08-6Z" />
                <path class="wings" d="M146.54,158.2l10.12,6h51.46c1.72-2,3.48-4,5.26-6Z" />
                <path class="wings" d="M200.13,174.2c1.53-2,3.08-4,4.68-6h-41.4l10.13,6Z" />
                <path class="wings" d="M578.63,178.2c1,1.39,2,2.78,3,4.19h6.77l7-4.19Z" />
                <polygon class="wings" points="115.76 184.2 104.83 178.2 58.43 178.2 61.4 184.2 115.76 184.2" />
                <path class="wings" d="M163.82,244.2q1-3,2-6H103.69l9.39,6Z" />
                <path class="wings" d="M158.34,264.2c.45-2,.94-4,1.45-6H135l9.38,6Z" />
                <path class="wings" d="M157.47,268.2h-6.85l6.07,3.88C156.94,270.78,157.2,269.49,157.47,268.2Z" />
                <polygon class="wings" points="117.13 294.2 107.73 288.2 90.65 288.2 93.61 294.2 117.13 294.2" />
                <polygon class="wings" points="101.47 284.2 92.08 278.2 85.72 278.2 88.68 284.2 101.47 284.2" />
                <polygon class="wings" points="132.78 304.2 123.39 298.2 95.58 298.2 98.54 304.2 132.78 304.2" />
                <polygon class="wings" points="148.44 314.2 139.05 308.2 100.51 308.2 103.47 314.2 148.44 314.2" />
                <path class="wings" d="M175.86,214.2c.49-1,1-2,1.48-3l-7.08-3h-97l3,6Z" />
                <polygon class="wings" points="160.75 204.2 146.49 198.2 68.31 198.2 71.27 204.2 160.75 204.2" />
                <path class="wings" d="M160.85,254.2q.83-3,1.72-6H119.33l9.39,6Z" />
                <polygon class="wings"
                    points="136.98 194.2 135.39 193.53 123.63 188.2 63.37 188.2 66.33 194.2 136.98 194.2" />
                <path class="wings" d="M167.31,234.2q1.13-3,2.33-6H88.05l9.38,6Z" />
                <path class="wings" d="M227.17,144.2q3.27-3.06,6.66-6h-121l10.12,6Z" />
                <polygon class="wings" points="97.54 174.2 86.61 168.2 53.49 168.2 56.46 174.2 97.54 174.2" />
                <polygon class="wings" points="82.78 272.26 82.8 272.27 82.79 272.25 82.78 272.26" />
                <polygon class="wings" points="85.82 274.2 82.8 272.27 83.75 274.2 85.82 274.2" />
                <polygon class="wings" points="41.19 143.28 41.64 144.2 42.87 144.2 41.19 143.28" />
                <path class="wings" d="M174,218.2H78.18l2.67,5.4.94.6h89.52C172.17,222.19,173.05,220.19,174,218.2Z" />
                <polygon class="wings" points="44.01 24.2 33.1 18.2 7.66 18.2 10.18 24.2 44.01 24.2" />
                <polygon class="wings" points="25.83 14.2 14.91 8.2 3.45 8.2 5.97 14.2 25.83 14.2" />
                <polygon class="wings" points="0 0 1.77 4.2 7.64 4.2 0 0" />
                <path class="wings" d="M601.56,218.2q1.37,3,2.65,6h89.12l1-.62L697,218.2Z" />
                <polygon class="wings" points="773.9 4.2 775.68 0 768.03 4.2 773.9 4.2" />
                <path class="wings" d="M154.65,348.2H120.23l1.86,3.78,3.24,2.22h30.23Q155.07,351.2,154.65,348.2Z" />
                <path class="wings" d="M238.58,134.2c2.5-2,5-4,7.62-6H95.9l10.12,6Z" />
                <polygon class="wings" points="691.77 274.2 692.71 272.3 689.73 274.2 691.77 274.2" />
                <path class="wings" d="M620.92,348.2q-.4,3-.9,6h30.43l2.66-1.82,2.07-4.18Z" />
                <polygon class="wings" points="212.7 94.2 200.29 88.2 37.11 88.2 39.64 94.2 212.7 94.2" />
                <polygon class="wings" points="233.4 104.2 220.98 98.2 45.26 98.2 55.39 104.2 233.4 104.2" />
                <polygon class="wings" points="192.01 84.2 179.6 78.2 32.9 78.2 35.43 84.2 192.01 84.2" />
                <path class="wings" d="M251.65,124.2c2.91-2.07,5.87-4.06,8.88-6H79l10.13,6Z" />
                <polygon class="wings" points="62.2 34.2 51.29 28.2 11.87 28.2 14.39 34.2 62.2 34.2" />
                <polygon class="wings" points="156.72 74.2 171.32 74.2 162.69 70.03 162.69 70.25 156.72 74.2" />
                <polygon class="wings" points="254.09 114.2 241.67 108.2 62.14 108.2 72.27 114.2 254.09 114.2" />
                <polygon class="wings" points="104.34 54.2 90.2 48.2 20.28 48.2 22.8 54.2 104.34 54.2" />
                <polygon class="wings" points="80.78 44.2 79.08 43.48 69.48 38.2 16.07 38.2 18.6 44.2 80.78 44.2" />
                <polygon class="wings" points="151.1 74.2 137.1 68.2 28.7 68.2 31.22 74.2 151.1 74.2" />
                <polygon class="wings" points="127.77 64.2 113.76 58.2 24.49 58.2 27.01 64.2 127.77 64.2" />
                <polygon class="wings" points="612.93 70.25 604.72 74.2 618.9 74.2 612.93 70.25" />
                <polygon class="wings" points="733.53 144.2 734.08 143.09 732.06 144.2 733.53 144.2" />
                <polygon class="wings" points="662.06 58.2 647.99 64.2 748.46 64.2 751 58.2 662.06 58.2" />
                <polygon class="wings" points="742.54 18.2 731.62 24.2 765.42 24.2 767.96 18.2 742.54 18.2" />
                <polygon class="wings" points="685.52 48.2 671.45 54.2 752.7 54.2 755.24 48.2 685.52 48.2" />
                <polygon class="wings" points="638.61 68.2 624.53 74.2 744.22 74.2 746.76 68.2 638.61 68.2" />
                <polygon class="wings" points="724.34 28.2 713.41 34.2 761.18 34.2 763.72 28.2 724.34 28.2" />
                <polygon class="wings"
                    points="706.13 38.2 696.19 43.66 696.19 43.65 694.9 44.2 756.94 44.2 759.48 38.2 706.13 38.2" />
                <polygon class="wings" points="596.41 78.2 583.94 84.2 739.98 84.2 742.52 78.2 596.41 78.2" />
                <polygon class="wings" points="575.62 88.2 563.15 94.2 735.74 94.2 738.28 88.2 575.62 88.2" />
                <path class="wings" d="M529.5,128.2q3.87,2.93,7.62,6H669.3l10.08-6Z" />
                <path class="wings" d="M548.54,144.2h104l10.08-6H541.87Q545.26,141.14,548.54,144.2Z" />
                <polygon class="wings" points="724.78 148.2 713.86 154.2 728.59 154.2 731.55 148.2 724.78 148.2" />
                <polygon class="wings" points="534.05 108.2 521.58 114.2 702.88 114.2 712.96 108.2 534.05 108.2" />
                <polygon class="wings" points="554.84 98.2 542.37 104.2 719.67 104.2 729.75 98.2 554.84 98.2" />
                <path class="wings" d="M515.18,118.2c3,1.94,6,3.93,8.87,6h162l10.08-6Z" />
                <path class="wings" d="M427.28,548.2a235.58,235.58,0,0,1-78.94,0H302.16l.92,6H472.61l.91-6Z" />
                <polygon class="wings" points="306.75 578.2 307.66 584.2 468.05 584.2 468.96 578.2 306.75 578.2" />
                <polygon class="wings" points="305.22 568.2 306.14 574.2 469.57 574.2 470.48 568.2 305.22 568.2" />
                <polygon class="wings" points="303.69 558.2 304.61 564.2 471.09 564.2 472 558.2 303.69 558.2" />
                <path class="wings" d="M329.57,544.2q-10-2.55-19.83-6h-9.1l.91,6Z" />
                <path class="wings" d="M465.88,538.2q-9.81,3.45-19.83,6h28.08l.91-6Z" />
                <polygon class="wings" points="308.27 588.2 309.19 594.2 466.52 594.2 467.44 588.2 308.27 588.2" />
                <polygon class="wings" points="314.38 628.2 315.26 633.93 460.48 633.93 461.35 628.2 314.38 628.2" />
                <polygon class="wings" points="760.75 8.2 749.83 14.2 769.66 14.2 772.2 8.2 760.75 8.2" />
                <polygon class="wings" points="312.86 618.2 313.77 624.2 461.96 624.2 462.87 618.2 312.86 618.2" />
                <polygon class="wings" points="309.8 598.2 310.72 604.2 465 604.2 465.92 598.2 309.8 598.2" />
                <polygon class="wings" points="311.33 608.2 312.25 614.2 463.48 614.2 464.39 608.2 311.33 608.2" />
                <path class="wings" d="M617.32,368.2q-.68,3-1.42,6h5.36l8.76-6Z" />
                <path class="wings" d="M622.05,338.2q-.27,3-.62,6h35.72l3-6Z" />
                <path class="wings" d="M619.34,358.2q-.54,3-1.15,6h17.67l8.75-6Z" />
                <path class="wings" d="M622.76,328.2q-.15,3-.38,6H662.1l3-6Z" />
                <polygon class="wings" points="636.48 308.2 627.08 314.2 671.99 314.2 674.96 308.2 636.48 308.2" />
                <path class="wings" d="M623,318.2q0,3-.11,6h44.13l3-6Z" />
                <path class="wings" d="M153.18,334.2q-.23-3-.38-6H110.37l3,6Z" />
                <path class="wings" d="M160.78,378.2h-.38l.47.32Z" />
                <path class="wings" d="M157.41,364.2q-.61-3-1.16-6H131.18l8.77,6Z" />
                <path class="wings" d="M154.14,344.2c-.24-2-.44-4-.63-6H115.3l3,6Z" />
                <path class="wings" d="M614.85,378.2c0,.14-.07.28-.11.42h.07l.61-.42Z" />
                <path class="wings" d="M159.73,374.2q-.76-3-1.44-6h-12.5l8.77,6Z" />
                <polygon class="wings" points="652.14 298.2 642.74 304.2 676.93 304.2 679.9 298.2 652.14 298.2" />
                <polygon class="wings" points="683.47 278.2 674.07 284.2 686.83 284.2 689.79 278.2 683.47 278.2" />
                <polygon class="wings" points="627.88 198.2 613.91 204.2 703.88 204.2 706.84 198.2 627.88 198.2" />
                <polygon class="wings" points="651.16 188.2 637.19 194.2 708.82 194.2 711.79 188.2 651.16 188.2" />
                <path class="wings" d="M604.6,208.2,598.1,211c.53,1.07,1.06,2.14,1.57,3.21h99.27l3-6Z" />
                <polygon class="wings" points="667.8 288.2 658.41 294.2 681.88 294.2 684.85 288.2 667.8 288.2" />
                <polygon class="wings" points="688.37 168.2 677.45 174.2 718.71 174.2 721.67 168.2 688.37 168.2" />
                <path class="wings" d="M605.87,228.2q1.2,3,2.33,6h69.51l9.37-6Z" />
                <polygon class="wings" points="670.17 178.2 659.24 184.2 713.76 184.2 716.73 178.2 670.17 178.2" />
                <path class="wings" d="M618.75,272l5.86-3.75H618Q618.39,270.08,618.75,272Z" />
                <polygon class="wings" points="706.57 158.2 695.65 164.2 723.65 164.2 726.61 158.2 706.57 158.2" />
                <path class="wings" d="M612.91,248.2c.61,2,1.17,4,1.72,6h31.84l9.38-6Z" />
                <path class="wings" d="M615.69,258.2c.5,2,1,4,1.44,6h13.72l9.38-6Z" />
                <path class="wings" d="M609.64,238.2q1.05,3,2,6h50.42l9.37-6Z" />
            </g>
            <g>
                <path class="wings2"
                    d="M82.79,272.25,122.09,352l38.78,26.54a232.81,232.81,0,0,1-8.36-61.72L82.78,272.26Zm37.42-85.61-79-43.36L80.85,223.6l75.84,48.48a233.34,233.34,0,0,1,20.65-60.9l-42-17.65-15.18-6.88ZM162.69,70.25l-8.18,5.41L113.32,58,79.08,43.48,0,0,40,95.09,187.4,182.41h6.77a236,236,0,0,1,67.14-64.72L162.69,70v.22ZM598.1,211a233.75,233.75,0,0,1,20.65,61l75.55-48.37,39.78-80.49-79.26,43.54L598.1,211ZM696.19,43.65l-75.08,32-8.18-5.41h0l-98.56,47.42a237.87,237.87,0,0,1,67.25,64.72h6.77l147.1-87.61L775.68,0,696.19,43.66ZM300.08,534.55l15.18,99.38H460.48l15.12-99.38a235.34,235.34,0,0,1-175.58,0ZM614.81,378.62l38.3-26.24,39.6-80.08L623,316.78a234.88,234.88,0,0,1-8.3,61.84h.07Z" />
            </g>
            <g id="shield-check" data-name="shield check">
                <path id="shield" class="shield"
                    d="M452.23,273.1l-6.75-3.16c-19-8.87-37-17.25-56.59-33.83l-.63-.53-.63.54c-17.78,15.32-31.47,21.72-56.33,33.35l-7.92,3.71-.57.27v.63c.52,25.6,5.72,48.76,15.46,68.83a126,126,0,0,0,48.88,53.6l.52.31.51-.33c22.49-14.62,38.59-32.49,49.21-54.64,9.1-19,14.13-41.14,15.38-67.83l0-.65Z" />
                <polygon id="check" class="check"
                    points="382.47 338.44 357.86 313.6 362.29 312.23 382.47 320.79 411.67 293.96 417.86 293.96 382.47 338.44 382.47 338.44" />
            </g>
        </g>
    </g>
</svg>