<?xml version="1.0" encoding="UTF-8"?>
<svg xmlns="http://www.w3.org/2000/svg" 
    xmlns:xlink="http://www.w3.org/1999/xlink" viewBox="0 0 585 586">
    <defs>
        <style>
        .cls-1 {
    isolation: isolate
}

.cls-2, .cls-3, .cls-4 {
    fill: none
}

.cls-2, .cls-3, .cls-4, .cls-5 {
    stroke: #00c5e9
}

.cls-2, .cls-3, .cls-5 {
    stroke-miterlimit: 10
}

.cls-2, .cls-5 {
    stroke-width: 8px
}

.cls-4, .cls-6 {
    stroke-width: 2px
}

.cls-5 {
    fill: #fff
}

.cls-6 {
    fill: #fff;
    stroke: #fff
}

#checkmark {
    aanimation: blink 1.5s ease-in-out infinite alternate none running
}

@keyframes blink {
    0% {
        fill: #fff;
        stroke: #fff
    }
    25% {
        fill: #fff;
        stroke: #fff
    }
    100% {
        fill: transparent;
        stroke: transparent
    }
}

.cls-1 {
    isolation: isolate
}

.cls-2, .cls-3, .cls-4 {
    fill: none
}

.cls-2, .cls-3, .cls-4, .cls-5 {
    stroke: #00c5e9
}

.cls-2, .cls-3, .cls-5 {
    stroke-miterlimit: 10
}

.cls-2, .cls-5 {
    stroke-width: 8px
}

.cls-4, .cls-6 {
    stroke-width: 2px
}

.cls-5 {
    fill: #fff
}

.cls-6 {
    fill: #fff;
    stroke: #fff
}

#checkmark {
    aanimation: blink 1.5s ease-in-out infinite alternate none running;
    fill: hsl(189, 70%, 36%);
    stroke: hsl(189, 70%, 36%);
}

@keyframes blink {
    0% {
        fill: #fff;
        stroke: #fff
    }
    25% {
        fill: #fff;
        stroke: #fff
    }
    100% {
        fill: transparent;
        stroke: transparent
    }
}
        </style>
    </defs>
    <title>brand-logo</title>
    <g id="Layer_2" data-name="Layer 2">
        <g id="Layer_1-2" data-name="Layer 1">
            
            <polygon class="cls-2" points="446.5 61 369.5 138 369.5 369 215.5 369 215.5 292 369.5 292 369.49 215 369.5 215 369.49 138 215.5 138 138.5 61 61.5 61 61.5 215 138.5 292 138.5 369 292.5 523 446.5 369 446.5 292 523.5 215 523.5 61 446.5 61"></polygon>
            <g id="graphics">
                
                <path class="cls-3" d="M397.29,287a112.38,112.38,0,0,1-.93,13.72c-.22,2.29-.72,4.52-1.08,6.77-.18,1.13-.51,2.22-.75,3.34a31.5,31.5,0,0,1-.81,3.32l-.93,3.29c-.28,1.11-.72,2.16-1.07,3.25-.66,2.18-1.57,4.27-2.38,6.4a105.58,105.58,0,0,1-56.75,56.75c-2.13.81-4.22,1.72-6.4,2.38-1.09.35-2.14.79-3.25,1.07l-3.29.93c-1.09.36-2.22.54-3.32.81s-2.21.57-3.34.75c-2.25.36-4.48.86-6.77,1.08a101.67,101.67,0,0,1-27.44,0c-2.29-.22-4.52-.72-6.77-1.08-1.13-.18-2.22-.51-3.34-.75a31.5,31.5,0,0,1-3.32-.81l-3.29-.93c-1.11-.28-2.16-.72-3.25-1.07-2.18-.66-4.27-1.57-6.4-2.38a103.51,103.51,0,0,1-12.26-6.08l-16.27,28.11a136.12,136.12,0,0,0,16.09,8c2.78,1.09,5.55,2.24,8.41,3.14,1.42.46,2.82,1,4.26,1.39l4.36,1.2c1.43.45,2.91.71,4.36,1.07s2.91.72,4.39,1c3,.5,5.88,1.12,8.87,1.42a133.58,133.58,0,0,0,35.84,0c3-.3,5.92-.92,8.87-1.42,1.48-.25,2.92-.65,4.39-1s2.93-.62,4.36-1.07l4.32-1.23c1.44-.38,2.84-.93,4.26-1.39,2.86-.9,5.63-2.05,8.41-3.14a138.66,138.66,0,0,0,74.34-74.34c1.09-2.78,2.24-5.55,3.14-8.41.46-1.42,1-2.82,1.39-4.26l1.23-4.32c.45-1.43.71-2.91,1.07-4.36s.72-2.91,1-4.39c.5-3,1.12-5.88,1.42-8.87A144.53,144.53,0,0,0,429.77,287h-5.86a135.72,135.72,0,0,1-3.82,31.48c-.27,1.3-.66,2.56-1,3.83L418,326.13l-1.28,3.76c-.42,1.25-.82,2.51-1.34,3.73l-1.45,3.7c-.46,1.24-1.07,2.41-1.6,3.63s-1.06,2.43-1.66,3.6l-1.81,3.54-13.67-7.19,1.6-3.12c.54-1,1-2.12,1.47-3.18s1-2.11,1.41-3.2l1.28-3.26c.46-1.07.81-2.18,1.18-3.29l1.13-3.31.95-3.37c.31-1.12.67-2.23.9-3.38A120.46,120.46,0,0,0,408.47,287ZM276.66,417.43l-2.74-.35-1.37-.17-1.36-.24-5.43-1-5.38-1.25c-1.79-.42-3.54-1-5.31-1.47a135.23,135.23,0,0,1-20.54-8l6.82-13.86a118.65,118.65,0,0,0,18.11,7.08c1.56.42,3.11.92,4.68,1.3l4.75,1.1,4.79.86,1.2.21,1.2.15,2.42.31Zm52.52-4.25-4,1.13-4,.92-3.35-15.07,3.54-.81,3.49-1Zm73.92-55.26a131.93,131.93,0,0,1-55.86,48.54l-6.44-14a116.45,116.45,0,0,0,49.31-42.86Z"></path>
                <path class="cls-3" d="M242,374.53l7.2-12.44a85,85,0,0,0,10.13,5c1.76.67,3.49,1.43,5.29,2,.9.28,1.76.66,2.68.88l2.72.77c.89.31,1.83.44,2.74.67s1.82.48,2.75.62c1.87.29,3.71.72,5.6.89a83.41,83.41,0,0,0,22.76,0c1.89-.17,3.73-.6,5.6-.89.93-.14,1.83-.43,2.75-.62a21.46,21.46,0,0,0,2.74-.67l2.72-.77c.92-.22,1.78-.6,2.68-.88,1.8-.54,3.53-1.3,5.29-2a85,85,0,0,0,10.13-5,86.16,86.16,0,0,0,31.8-31.8,85,85,0,0,0,5-10.13c.67-1.76,1.43-3.49,2-5.29.28-.9.66-1.76.88-2.68l.77-2.72c.31-.89.44-1.83.67-2.74s.48-1.82.62-2.75c.29-1.87.72-3.71.89-5.6a94,94,0,0,0,.78-11.38h14.37a104.67,104.67,0,0,1-.9,13.24c-.2,2.2-.69,4.35-1,6.53-.17,1.08-.49,2.14-.72,3.21a30,30,0,0,1-.78,3.21l-.9,3.17c-.26,1.07-.7,2.08-1,3.13-.65,2.1-1.52,4.12-2.31,6.18a102,102,0,0,1-54.77,54.68c-2.06.79-4.08,1.66-6.18,2.31-1.05.32-2.06.76-3.13,1l-3.17.9c-1.05.35-2.14.52-3.21.78s-2.13.55-3.21.72c-2.18.35-4.33.84-6.53,1a97.84,97.84,0,0,1-26.48,0c-2.2-.2-4.35-.69-6.53-1-1.08-.17-2.14-.49-3.21-.72a30,30,0,0,1-3.21-.78l-3.17-.9c-1.07-.26-2.08-.7-3.13-1-2.1-.65-4.12-1.52-6.18-2.31A99.91,99.91,0,0,1,242,374.53Z"></path>
                <path class="cls-3" d="M472.07,340.24l-8.2-2.43,1.75-6.21,1.46-6.28c.51-2.09.87-4.21,1.25-6.32l.56-3.18c.2-1.06.37-2.12.49-3.18l.81-6.39c.26-2.13.37-4.28.55-6.41l.23-3.21c.08-1.07.08-2.14.12-3.21l.15-6.42h8.55l-.16,6.72a31.44,31.44,0,0,1-.12,3.36l-.24,3.37c-.19,2.23-.3,4.48-.57,6.71l-.85,6.7c-.13,1.11-.31,2.22-.51,3.33l-.59,3.33c-.4,2.22-.78,4.44-1.32,6.63l-1.53,6.58Z"></path>
                <path class="cls-3" d="M442.48,399.19l-6.85-5.13a193.5,193.5,0,0,0,13.91-21.66,190.43,190.43,0,0,0,10.66-23.46l8,3a187.44,187.44,0,0,1-25.74,47.29Z"></path>
                <path class="cls-3" d="M361,461.32l-3.13-8a171.91,171.91,0,0,0,21.45-10.11l4.16,7.47A182.42,182.42,0,0,1,361,461.32Z"></path>
                <path class="cls-3" d="M207.19,453.72l3.9-7.61c3.49,1.86,7.11,3.46,10.72,5.08,1.8.82,3.67,1.49,5.5,2.23s3.67,1.48,5.56,2.09L230,463.57c-2-.64-3.89-1.44-5.82-2.19s-3.88-1.48-5.76-2.34C214.64,457.34,210.85,455.67,207.19,453.72Z"></path>
                <path class="cls-3" d="M221.48,410l-13.6,23.5c1.48.84,2.94,1.71,4.43,2.51l4.53,2.32c3.71-2.27,7.36-4.78,10.86-7.32a160.94,160.94,0,0,0,18,6.85q1.43,6.27,3.3,12.65a166.24,166.24,0,0,0,37.5,5.54c2.42-3.71,4.69-7.36,6.82-11.14a159.15,159.15,0,0,0,26.68-2.4c2.76,3.31,5.68,6.67,8.72,9.78a161.44,161.44,0,0,0,25.73-7.83,163.9,163.9,0,0,0,24.15-11.79c.1-4.35-.06-8.81-.28-13.1,2.73-1.68,5.29-3.62,7.91-5.46,1.31-.91,2.54-1.95,3.81-2.93s2.55-1.94,3.74-3q6.06,2.22,12.44,4.13l5.53-5.26c1.79-1.8,3.52-3.66,5.28-5.5-1.19-4.21-2.6-8.42-4-12.46.52-.61,1.05-1.2,1.56-1.83l1.48-1.88,3-3.78,2.79-3.92c.93-1.3,1.87-2.6,2.71-4,4.28.25,8.7.4,13.1.36a168.39,168.39,0,0,0,13.93-29.15q-4.17-5.2-8.52-10A161.86,161.86,0,0,0,449,308.7q6-2.42,12-5.3c.2-2.74.44-5.49.6-8.23l.2-8.24H434.56a149.3,149.3,0,0,1-1.24,18.54c-.32,3.09-1,6.13-1.48,9.18-.26,1.53-.68,3-1,4.54s-.65,3-1.11,4.51l-1.27,4.47c-.4,1.5-1,2.95-1.44,4.42-.93,3-2.13,5.82-3.26,8.71A142.22,142.22,0,0,1,363.52,410a140.72,140.72,0,0,1-16.65,8.24c-2.89,1.13-5.75,2.33-8.71,3.26-1.47.47-2.92,1-4.42,1.44l-4.47,1.27c-1.48.46-3,.74-4.51,1.11s-3,.74-4.54,1c-3.05.52-6.09,1.16-9.18,1.48a139.5,139.5,0,0,1-37.08,0c-3.09-.32-6.13-1-9.18-1.48-1.53-.26-3-.68-4.54-1s-3-.65-4.51-1.11L251.26,423c-1.5-.4-2.95-1-4.42-1.44-3-.93-5.82-2.13-8.71-3.26A141.13,141.13,0,0,1,221.48,410ZM436.79,296.31l.14-1.79.05-1.8.09-3.6,10.52.15-.09,3.86-.06,1.92L447.3,297Zm-.38,5.06.15-2,10.49.89-.17,2.17Zm-.62,5,.26-2,10.45,1.25-.28,2.17Zm-.76,5,.36-2,10.4,1.61-.39,2.16Zm-.9,5c.14-.66.24-1.33.37-2l10.33,2c-.13.72-.24,1.44-.4,2.15Zm-1.13,5,.46-2,10.26,2.35-.49,2.13Zm-1.29,4.9.55-2L442.41,327l-.59,2.1ZM418,358.91l1.79-3.13,1.64-3.2,9.37,4.78L429,360.8l-1.92,3.35Zm-8.25,12.78,1.18-1.66,8.61,6.05-1.27,1.78Zm-9.54,11.85c1.55-1.83,3.18-3.6,4.67-5.48l8.17,6.63c-1.6,2-3.34,3.91-5,5.87Zm-7,7.29,1.47-1.4,7.43,7.45-1.58,1.51Zm-11.47,10,2.84-2.22,2.72-2.36,6.9,7.95-2.93,2.52-3,2.39Zm-8.17,6,1.66-1.18,6,8.63-1.78,1.26Zm-8.61,5.36,1.76-1,5.4,9-1.89,1.09Zm-4.43,2.48a16.61,16.61,0,0,0,1.79-1l5.08,9.22a18.43,18.43,0,0,1-1.92,1Zm-23.32,9.9,3.41-1.16,1.71-.57,1.67-.67L347.7,432l-1.8.71-1.83.62-3.66,1.24ZM332.27,426l2-.55,3,10.07-2.11.6Zm-4.9,1.33c.66-.16,1.33-.3,2-.5L332,437.05c-.7.21-1.41.36-2.12.53Zm-4.95,1.14,2-.46,2.31,10.26-2.13.49Zm-5,.93,2-.36,1.95,10.34-2.15.39Zm-10.05,1.43,2-.26L310.58,441l-2.16.27Zm-10.12.63,2,0,.48,10.51-2.18.06Zm-5.07.12h2l.13,10.52h-2.18ZM282,431.17c1.2.08,2.39.21,3.59.24l3.6.09L289,442.06l-3.86-.1c-1.28,0-2.56-.17-3.85-.25Zm-20-2.8c.66.15,1.31.32,2,.43l-2.07,10.32c-.72-.12-1.42-.3-2.14-.46Zm-24.21-7.49,1.9.75-3.85,9.79-2-.8Zm-9,7.58,4.33-9.59,1.86.84-4.19,9.65Z"></path>
                <polygon class="cls-3" points="201.04 468.57 204.44 470.29 209.15 460.5 205.94 458.87 201.04 468.57"></polygon>
                <path class="cls-3" d="M210.43,473c1.17.51,2.31,1.06,3.49,1.53l4.2-10c-1.11-.45-2.2-1-3.3-1.45Z"></path>
                <path class="cls-3" d="M220,477c1.19.45,2.36.94,3.57,1.34l3.68-10.22c-1.14-.37-2.25-.84-3.37-1.27Z"></path>
                <polygon class="cls-3" points="373.24 473.61 376.71 472.04 372.21 462.16 368.92 463.64 373.24 473.61"></polygon>
                <path class="cls-3" d="M465.78,393.36c.69-1.06,1.3-2.18,1.94-3.27l-9.35-5.52c-.61,1-1.18,2.1-1.84,3.1Z"></path>
                <path class="cls-3" d="M471,384.39c.62-1.11,1.18-2.25,1.77-3.38l-9.63-5c-.55,1.06-1.08,2.14-1.67,3.19Z"></path>
                <polygon class="cls-3" points="475.74 375.15 477.33 371.69 467.45 367.16 465.96 370.44 475.74 375.15"></polygon>
                <polygon class="cls-3" points="493.76 315.71 494.25 311.94 483.46 310.62 483.01 314.19 493.76 315.71"></polygon>
                <polygon class="cls-3" points="494.95 305.41 495.25 301.63 484.41 300.86 484.13 304.44 494.95 305.41"></polygon>
                <polygon class="cls-3" points="495.62 295.09 495.72 291.31 484.86 291.08 484.77 294.66 495.62 295.09"></polygon>
                <path class="cls-3" d="M240.15,377.76a105.58,105.58,0,0,1-44.49-50.67c-.81-2.13-1.72-4.22-2.38-6.4-.35-1.09-.79-2.14-1.07-3.25l-.93-3.29c-.36-1.09-.54-2.22-.81-3.32s-.57-2.21-.75-3.34c-.36-2.25-.86-4.48-1.08-6.77a101.67,101.67,0,0,1,0-27.44c.22-2.29.72-4.52,1.08-6.77.18-1.13.51-2.22.75-3.34a31.5,31.5,0,0,1,.81-3.32l.93-3.29c.28-1.11.72-2.16,1.07-3.25.66-2.18,1.57-4.27,2.38-6.4a105.58,105.58,0,0,1,44.49-50.67l-16.27-28.11a138.66,138.66,0,0,0-58.25,66.34c-1.09,2.78-2.24,5.55-3.14,8.41-.46,1.42-1,2.82-1.39,4.26l-1.23,4.32c-.45,1.43-.71,2.91-1.07,4.36s-.72,2.91-1,4.39c-.5,3-1.12,5.88-1.42,8.87a133.58,133.58,0,0,0,0,35.84c.3,3,.92,5.92,1.42,8.87.25,1.48.65,2.92,1,4.39s.62,2.93,1.07,4.36l1.23,4.32c.38,1.44.93,2.84,1.39,4.26.9,2.86,2,5.63,3.14,8.41a138.66,138.66,0,0,0,58.25,66.34l2.94-5.07a134.25,134.25,0,0,1-13.26-8.74l-3.12-2.46-1.57-1.23-1.5-1.3-3-2.6c-1-.89-1.92-1.83-2.89-2.73-2-1.79-3.73-3.76-5.57-5.67-.94-.93-1.75-2-2.64-3s-1.76-2-2.58-3c-1.6-2.11-3.34-4.12-4.82-6.32l-2.3-3.23-2.15-3.35,13.05-8.26,1.89,3,2,2.85c1.3,1.95,2.85,3.71,4.26,5.58.72.92,1.53,1.77,2.28,2.66s1.49,1.81,2.33,2.63c1.63,1.68,3.18,3.43,4.92,5,.86.8,1.68,1.63,2.55,2.42l2.65,2.29,1.33,1.16,1.38,1.08,2.75,2.17a117.63,117.63,0,0,0,11.71,7.71ZM187.43,208.08a134.66,134.66,0,0,1,31.93-30.27L228,190.63a119,119,0,0,0-28.21,26.73Zm-22.55,47.57c.28-1.34.68-2.66,1.05-4l1.13-4,14.74,4.61-1,3.49c-.34,1.17-.69,2.33-.93,3.51Zm10.87,91.66a131.27,131.27,0,0,1-14.07-72.64l15.38,1.43a115.72,115.72,0,0,0,12.41,64.11Z"></path>
                <path class="cls-3" d="M242,199.47l7.2,12.44a86.16,86.16,0,0,0-31.8,31.8,85,85,0,0,0-5,10.13c-.67,1.76-1.43,3.49-2,5.29-.28.9-.66,1.76-.88,2.68l-.77,2.72c-.31.89-.44,1.83-.67,2.74s-.48,1.82-.62,2.75c-.29,1.87-.72,3.71-.89,5.6a83.41,83.41,0,0,0,0,22.76c.17,1.89.6,3.73.89,5.6.14.93.43,1.83.62,2.75a21.46,21.46,0,0,0,.67,2.74l.77,2.72c.22.92.6,1.78.88,2.68.54,1.8,1.3,3.53,2,5.29a85,85,0,0,0,5,10.13,86.16,86.16,0,0,0,31.8,31.8L242,374.53a101.68,101.68,0,0,1-42.86-48.82c-.79-2.06-1.66-4.08-2.31-6.18-.32-1-.76-2.06-1-3.13l-.9-3.17c-.35-1.05-.52-2.14-.78-3.21s-.55-2.13-.72-3.21c-.35-2.18-.84-4.33-1-6.53a97.84,97.84,0,0,1,0-26.48c.2-2.2.69-4.35,1-6.53.17-1.08.49-2.14.72-3.21a30,30,0,0,1,.78-3.21l.9-3.17c.26-1.07.7-2.08,1-3.13.65-2.1,1.52-4.12,2.31-6.18A101.33,101.33,0,0,1,242,199.51Z"></path>
                <path class="cls-3" d="M156.64,415.85l6.2-5.88c2.91,3.15,6,6.08,9.16,9,1.59,1.44,3.23,2.83,4.84,4.24s3.3,2.75,5,4.07c3.33,2.71,6.85,5.16,10.36,7.64,1.78,1.19,3.6,2.33,5.41,3.49s3.65,2.26,5.52,3.32l-4.29,7.41c-2-1.12-3.9-2.25-5.78-3.48s-3.8-2.42-5.66-3.67c-3.68-2.59-7.37-5.16-10.86-8-1.77-1.39-3.54-2.77-5.22-4.27s-3.41-2.93-5.08-4.43C163,422.23,159.68,419.16,156.64,415.85Z"></path>
                <path class="cls-3" d="M120.36,360.84l7.85-3.38a178.7,178.7,0,0,0,26.84,43.79l-6.57,5.47a197.79,197.79,0,0,1-15.71-21.91A195.53,195.53,0,0,1,120.36,360.84Z"></path>
                <path class="cls-3" d="M107.28,259.17l8.46,1.27c-.48,3.92-1.1,7.83-1.33,11.77-.15,2-.31,3.94-.43,5.9l-.15,5.91-8.55-.14.16-6.18c.12-2.07.29-4.13.45-6.19C106.13,267.38,106.77,263.28,107.28,259.17Z"></path>
                <path class="cls-3" d="M190.72,129.8l4.66,7.18-2.5,1.6c-.82.55-1.61,1.13-2.42,1.7l-4.83,3.44L181,147.37l-2.32,1.84-2.25,1.93-5.55-6.49,2.35-2,2.43-1.93,4.88-3.82,5.06-3.61c.85-.59,1.68-1.2,2.54-1.77Z"></path>
                <path class="cls-3" d="M221.48,164l-13.6-23.5c-3,1.64-5.8,3.51-8.65,5.34.06,2.18.18,4.38.35,6.57s.36,4.36.58,6.5l-1.95,1.4c-.65.47-1.27,1-1.9,1.47l-3.78,3c-1.25,1-2.43,2.08-3.65,3.12s-2.45,2.07-3.59,3.2c-4.1-1.28-8.32-2.47-12.63-3.51A173.37,173.37,0,0,0,149.1,197.2c1.91,3.91,4.06,7.79,6.24,11.51A161.61,161.61,0,0,0,144,233.05q-6.33,1.13-12.81,2.69a178.33,178.33,0,0,0-6.06,26.2,176.21,176.21,0,0,0-1.83,26.76q5.71,3.39,11.44,6.32l.35,4.79c.14,1.6.21,3.2.44,4.78.42,3.18.74,6.37,1.37,9.52-1.66,1.37-3.32,2.79-5,4.24l-2.46,2.21-2.37,2.25c.58,2.48,1.1,5,1.77,7.43s1.37,4.91,2.1,7.35q6.48,1.59,12.82,2.74c.5,1.52,1.14,3,1.71,4.49s1.15,3,1.81,4.45c1.34,2.91,2.56,5.89,4.08,8.71-1.19,1.8-2.36,3.64-3.51,5.5l-1.71,2.83-1.62,2.84a168.74,168.74,0,0,0,18.31,26.59c4.38-.68,8.65-1.47,12.85-2.39a160.84,160.84,0,0,0,19.7,18.2c-.31,2.14-.6,4.31-.85,6.5s-.41,4.32-.57,6.51l3.37,2.39c1.13.79,2.31,1.51,3.46,2.26l3.48,2.22c1.17.73,2.38,1.39,3.56,2.09l13.6-23.5a142.66,142.66,0,0,1-60.24-68.65c-1.13-2.89-2.33-5.75-3.26-8.71-.47-1.47-1-2.92-1.44-4.42l-1.27-4.47c-.46-1.48-.74-3-1.11-4.51s-.74-3-1-4.54c-.52-3.05-1.16-6.09-1.48-9.18a139.5,139.5,0,0,1,0-37.08c.32-3.09,1-6.13,1.48-9.18.26-1.53.68-3,1-4.54s.65-3,1.11-4.51l1.27-4.47c.4-1.5,1-2.95,1.44-4.42.93-3,2.13-5.82,3.26-8.71A143.92,143.92,0,0,1,221.48,164Zm-9.2,243.35c2,1.28,4,2.64,6.08,3.85l-5.4,9c-2.22-1.3-4.35-2.75-6.53-4.13Zm-4.16-2.91,1.66,1.18-6,8.63L202,413Zm-4.07-3,1.61,1.26-6.33,8.41-1.72-1.35Zm-4-3.16c.51.46,1.06.86,1.59,1.28L195,407.75c-.56-.46-1.16-.89-1.7-1.38ZM196.22,395l1.54,1.34-6.9,7.94-1.65-1.43Zm-3.72-3.45,1.48,1.4-7.17,7.71-1.58-1.51Zm-3.6-3.57,1.41,1.47-7.44,7.45-1.51-1.57Zm-21.44-28.2c1.15,2.11,2.48,4.11,3.78,6.13l-8.82,5.75c-1.39-2.17-2.81-4.32-4-6.58Zm-7-13.53.84,1.86-9.54,4.44-.9-2ZM155,332c.79,2.26,1.48,4.57,2.41,6.78l-9.82,3.77c-1-2.38-1.74-4.85-2.59-7.28Zm-2.82-9.74c.14.66.32,1.32.51,2L142.52,327c-.21-.7-.4-1.41-.55-2.12Zm-2.9-14.94.23,1.79.32,1.77.63,3.55-10.33,2-.68-3.81-.34-1.9-.25-1.91Zm-1-10.09.16,2-10.49.88-.16-2.18Zm-.39-10.14.05,2-10.52.15-.06-2.18ZM148,282l-.05,2-10.52-.21V281.6Zm3-25.15c-.52,2.35-.87,4.72-1.31,7.08l-10.39-1.66c.47-2.53.85-5.09,1.41-7.6Zm1.14-4.94-.45,2-10.25-2.4.49-2.13Zm1.34-4.9-.56,2-10.15-2.76.59-2.1Zm1.48-4.85-.65,1.93-10-3.11.69-2.08Zm1.62-4.8-.65,1.93L146,235.81l.7-2.07Zm3.86-9.39-.84,1.86-9.6-4.17.9-2Zm4.44-9.11-.92,1.81-9.35-4.84,1-1.94Zm2.5-4.42-1,1.76-9.15-5.2,1.09-1.89Zm5.37-8.61c-1.32,2-2.6,4-3.9,6.06l-9-5.48c1.39-2.16,2.76-4.34,4.19-6.49Zm12.54-15.94L184,191.43l-7.89-7,1.43-1.65ZM203.9,172.7,202.3,174l-6.57-8.22,1.72-1.35Zm-2.1-11.57,6.16,8.53-1.66,1.18L200,162.4Z"></path>
                <path class="cls-3" d="M180.91,117.07c-1.06.69-2.14,1.36-3.16,2.11l6.13,9c1-.71,2-1.34,3-2Z"></path>
                <polygon class="cls-3" points="172.39 122.98 170.85 124.09 169.35 125.25 175.94 133.89 177.35 132.79 178.82 131.74 172.39 122.98"></polygon>
                <path class="cls-3" d="M164.19,129.31c-1,.77-1.95,1.61-2.91,2.43l7,8.3c.91-.78,1.81-1.58,2.76-2.31Z"></path>
                <path class="cls-3" d="M90.55,263.67c-.14,1.26-.33,2.51-.41,3.77l10.81,1c.08-1.19.26-2.38.39-3.58Z"></path>
                <polygon class="cls-3" points="113.78 383.98 115.66 387.29 125.11 381.93 123.32 378.8 113.78 383.98"></polygon>
                <polygon class="cls-3" points="118.97 392.97 121.02 396.18 130.17 390.34 128.24 387.3 118.97 392.97"></polygon>
                <polygon class="cls-3" points="124.61 401.67 126.81 404.77 135.66 398.47 133.58 395.54 124.61 401.67"></polygon>
                <polygon class="cls-3" points="166.94 446.86 169.93 449.2 176.48 440.54 173.65 438.32 166.94 446.86"></polygon>
                <polygon class="cls-3" points="175.24 453.05 178.35 455.25 184.45 446.26 181.51 444.19 175.24 453.05"></polygon>
                <polygon class="cls-3" points="183.86 458.82 187.07 460.86 192.71 451.58 189.67 449.65 183.86 458.82"></polygon>
                <path class="cls-3" d="M240.15,196.24a103.51,103.51,0,0,1,12.26-6.08c2.13-.81,4.22-1.72,6.4-2.38,1.09-.35,2.14-.79,3.25-1.07l3.29-.93c1.09-.36,2.22-.54,3.32-.81s2.21-.57,3.34-.75c2.25-.36,4.48-.86,6.77-1.08a101.67,101.67,0,0,1,27.44,0c2.29.22,4.52.72,6.77,1.08,1.13.18,2.22.51,3.34.75a31.5,31.5,0,0,1,3.32.81l3.29.93c1.11.28,2.16.72,3.25,1.07,2.18.66,4.27,1.57,6.4,2.38a105.58,105.58,0,0,1,56.75,56.75c.81,2.13,1.72,4.22,2.38,6.4.35,1.09.79,2.14,1.07,3.25l.93,3.29c.36,1.09.54,2.22.81,3.32s.57,2.21.75,3.34c.36,2.25.86,4.48,1.08,6.77a112.38,112.38,0,0,1,.93,13.72h32.48a143.2,143.2,0,0,0-1.21-17.92c-.3-3-.92-5.92-1.42-8.87-.25-1.48-.65-2.92-1-4.39s-.62-2.93-1.07-4.36l-1.23-4.32c-.38-1.44-.93-2.84-1.39-4.26-.9-2.86-2.05-5.63-3.14-8.41A138.66,138.66,0,0,0,345,160.13c-2.78-1.09-5.55-2.24-8.41-3.14-1.42-.46-2.82-1-4.26-1.39l-4.3-1.2c-1.43-.45-2.91-.71-4.36-1.07s-2.91-.72-4.39-1c-3-.5-5.88-1.12-8.87-1.42a133.58,133.58,0,0,0-35.84,0c-3,.3-5.92.92-8.87,1.42-1.48.25-2.92.65-4.39,1s-2.93.62-4.36,1.07l-4.32,1.23c-1.44.38-2.84.93-4.26,1.39-2.86.9-5.63,2-8.41,3.14a136.12,136.12,0,0,0-16.09,8l2.94,5.07c1.15-.65,2.28-1.34,3.45-2l3.53-1.81,1.77-.91,1.81-.81,3.61-1.64c1.22-.52,2.46-1,3.69-1.47s2.45-1,3.71-1.4c2.51-.83,5-1.76,7.56-2.42a129.58,129.58,0,0,1,31.28-5.06l.61,15.43a113.72,113.72,0,0,0-27.6,4.46c-2.27.57-4.45,1.41-6.67,2.13-1.11.34-2.18.83-3.27,1.24s-2.18.83-3.25,1.29l-3.19,1.45-1.59.72-1.56.8-3.12,1.59c-1,.55-2,1.16-3,1.74Zm173.27,39.23a135.69,135.69,0,0,1,6.88,21l.62,2.69.31,1.34.24,1.36,1,5.43.7,5.48c.22,1.83.29,3.68.46,5.51l-15.41,1c-.15-1.62-.2-3.25-.4-4.86l-.62-4.84-.84-4.79-.22-1.2-.27-1.18-.55-2.37a119.81,119.81,0,0,0-6.06-18.47Zm-30-43.3c2,1.85,3.87,3.9,5.78,5.88L377.84,208.5c-1.69-1.74-3.31-3.56-5.11-5.19Zm-84.78-36.43a132,132,0,0,1,36.7,7l2.22.75,2.18.85c1.45.59,2.91,1.12,4.35,1.74,2.84,1.29,5.71,2.53,8.46,4s5.47,3,8.19,4.56,5.3,3.31,7.81,5.19l-8.95,12.58c-2.21-1.66-4.58-3.07-6.89-4.59-2.4-1.34-4.74-2.82-7.23-4s-5-2.39-7.46-3.54c-1.26-.55-2.56-1-3.84-1.53l-1.92-.76-1.95-.65a116,116,0,0,0-32.37-6.2Z"></path>
                <path class="cls-3" d="M393.56,287H379.19a94,94,0,0,0-.78-11.38c-.17-1.89-.6-3.73-.89-5.6-.14-.93-.43-1.83-.62-2.75a21.46,21.46,0,0,0-.67-2.74l-.77-2.72c-.22-.92-.6-1.78-.88-2.68-.54-1.8-1.3-3.53-2-5.29a85,85,0,0,0-5-10.13,86.16,86.16,0,0,0-31.8-31.8,85,85,0,0,0-10.13-5c-1.76-.67-3.49-1.43-5.29-2-.9-.28-1.76-.66-2.68-.88l-2.72-.77c-.89-.31-1.83-.44-2.74-.67s-1.82-.48-2.75-.62c-1.87-.29-3.71-.72-5.6-.89a83.41,83.41,0,0,0-22.76,0c-1.89.17-3.73.6-5.6.89-.93.14-1.83.43-2.75.62a21.46,21.46,0,0,0-2.74.67l-2.72.77c-.92.22-1.78.6-2.68.88-1.8.54-3.53,1.3-5.29,2a85,85,0,0,0-10.13,5L242,199.47a100.67,100.67,0,0,1,11.82-5.86c2.06-.79,4.08-1.66,6.18-2.31,1.05-.32,2.06-.76,3.13-1l3.17-.9c1.05-.35,2.14-.52,3.21-.78s2.13-.55,3.21-.72c2.18-.35,4.33-.84,6.53-1a97.84,97.84,0,0,1,26.48,0c2.2.2,4.35.69,6.53,1,1.08.17,2.14.49,3.21.72a30,30,0,0,1,3.21.78l3.17.9c1.07.26,2.08.7,3.13,1,2.1.65,4.12,1.52,6.18,2.31a101.65,101.65,0,0,1,54.7,54.68c.79,2.06,1.66,4.08,2.31,6.18.32,1.05.76,2.06,1,3.13l.9,3.17c.35,1.05.52,2.14.78,3.21s.55,2.13.72,3.21c.35,2.18.84,4.33,1,6.53A105.4,105.4,0,0,1,393.56,287Z"></path>
                <path class="cls-3" d="M248.87,104.87l2,8.32-3.14.74-3.11.87c-2.06.6-4.14,1.14-6.19,1.81l-6.11,2.07c-2,.68-4,1.53-6,2.3l-3,1.19c-1,.41-2,.87-2.95,1.3-2,.9-3.93,1.76-5.86,2.69-3.83,2-7.68,3.87-11.36,6.08l-4.29-7.41c3.87-2.3,7.9-4.32,11.91-6.36,2-1,4.1-1.88,6.15-2.82,1-.45,2.05-.93,3.09-1.36l3.14-1.25c2.1-.81,4.17-1.7,6.31-2.41l6.41-2.17c2.14-.7,4.32-1.27,6.49-1.9l3.25-.91Z"></path>
                <path class="cls-3" d="M314.59,101l-1,8.49c-1.07-.12-2.13-.27-3.2-.38l-3.21-.25c-2.13-.15-4.27-.36-6.41-.43-4.28-.12-8.56-.29-12.84-.1-4.28,0-8.56.41-12.83.74-2.14.2-4.27.51-6.4.77l-3.19.41-3.18.55-1.43-8.43,3.33-.57,3.34-.44c2.23-.27,4.46-.6,6.7-.8,4.48-.35,9-.75,13.44-.78,4.48-.19,9,0,13.45.1,2.24.08,4.48.3,6.72.46l3.36.27C312.36,100.75,313.47,100.91,314.59,101Z"></path>
                <path class="cls-3" d="M409.24,140.58l-5.33,6.69c-1.56-1.22-3.1-2.45-4.67-3.65l-4.83-3.43c-1.59-1.17-3.26-2.24-4.92-3.3s-3.31-2.16-5-3.16l4.41-7.33c1.78,1,3.5,2.2,5.25,3.31s3.49,2.23,5.16,3.45l5.06,3.61C406,138,407.61,139.31,409.24,140.58Z"></path>
                <path class="cls-3" d="M479.55,277.52,471,278l-.43-5.9-.23-3c-.1-1-.24-2-.35-3l-.76-5.88c-.3-1.95-.67-3.89-1-5.84l8.41-1.55c.36,2,.74,4.08,1.06,6.12l.79,6.17c.12,1,.27,2.05.36,3.08l.25,3.09Z"></path>
                <path class="cls-3" d="M434.56,287h27.15l-.12-5.07c-.06-1.7,0-3.39-.2-5.08q-5.88-3.09-11.74-5.74l-.59-4.77c-.22-1.59-.37-3.19-.68-4.76-.58-3.15-1.06-6.33-1.84-9.44,3.15-2.91,6.39-6,9.35-9.18A170.27,170.27,0,0,0,442,207.67c-2.17-.15-4.38-.24-6.58-.28s-4.36-.06-6.52,0a161.51,161.51,0,0,0-15.45-21.92c1.46-4,2.85-8.21,4.1-12.45a174.44,174.44,0,0,0-19.63-18.32c-1.77-1.36-3.49-2.81-5.33-4.09l-5.48-3.89L381.43,143c-1.88-1.22-3.87-2.27-5.8-3.41-1.92,1.07-3.8,2.12-5.68,3.27s-3.72,2.31-5.53,3.49a162,162,0,0,0-17.6-7.74q-1.11-6.33-2.66-12.8c-4.86-1.52-9.77-2.9-14.75-4-1.53,1.59-3,3.14-4.48,4.78s-2.9,3.29-4.28,4.95c-1.58-.26-3.16-.59-4.74-.81l-4.77-.61-2.39-.29-2.39-.2-4.79-.36c-1.93-3.9-4-7.65-6.24-11.48a170.62,170.62,0,0,0-32.15,2.52c-1.62,4.12-3.1,8.13-4.38,12.33a150.42,150.42,0,0,0-25.65,7.93c-3.43-2.73-6.92-5.24-10.58-7.71-1.25.57-2.51,1.12-3.75,1.72l-3.68,1.88c-1.23.63-2.46,1.24-3.67,1.91l-3.59,2,13.6,23.5a140.72,140.72,0,0,1,16.65-8.24c2.89-1.13,5.75-2.33,8.71-3.26,1.47-.47,2.92-1,4.42-1.44l4.47-1.27c1.48-.46,3-.74,4.51-1.11s3-.74,4.54-1c3.05-.52,6.09-1.16,9.18-1.48a139.5,139.5,0,0,1,37.08,0c3.09.32,6.13,1,9.18,1.48,1.53.26,3,.68,4.54,1s3,.65,4.51,1.11l4.47,1.27c1.5.4,2.95,1,4.42,1.44,3,.93,5.82,2.13,8.71,3.26a143.15,143.15,0,0,1,76.89,77c1.13,2.89,2.33,5.75,3.26,8.71.47,1.47,1,2.92,1.44,4.42l1.27,4.47c.46,1.48.74,3,1.11,4.51s.74,3,1,4.54c.52,3.05,1.16,6.09,1.48,9.18A149,149,0,0,1,434.56,287ZM228.4,157.35,225.2,159l-1.6.82-1.57.9-5.13-9.18,1.67-1,1.72-.89,3.44-1.76Zm4.59-2.16-1.85.84-4.47-9.52,2-.91Zm4.66-2c-.63.26-1.28.48-1.89.77l-4.13-9.68c.66-.31,1.35-.55,2-.82Zm4.72-1.86-1.9.75-3.79-9.82,2-.8Zm4.8-1.65-1.93.66-3.44-10,2.07-.7Zm4.84-1.5-2,.56-3-10.08,2.1-.6Zm4.89-1.36c-.67.14-1.31.36-2,.53l-2.73-10.16c.71-.19,1.4-.42,2.11-.57Zm35.15-4.41-7.2.19-.55-10.51,7.72-.21Zm15.2.73-2-.16.91-10.48,2.18.17Zm15,2.34c-2.35-.49-4.72-.86-7.08-1.3l1.63-10.39c2.54.46,5.08.87,7.61,1.39Zm9.84,2.46-2-.56,2.74-10.16,2.1.59Zm14.39,4.92c-2.23-.88-4.45-1.8-6.74-2.52l3.44-10c2.46.78,4.84,1.77,7.24,2.71Zm9.28,4.1c-.59-.32-1.22-.59-1.84-.87l4.48-9.52c.66.3,1.33.59,2,.93Zm8.95,4.79-1.77-1,5.14-9.18,1.89,1.09Zm4.35,2.6-1.72-1.09,5.45-9,1.85,1.17Zm20.23,15.25c-1.82-1.56-3.6-3.17-5.47-4.69l6.65-8.15c2,1.62,3.91,3.35,5.87,5Zm3.69,3.48-1.47-1.4,7.21-7.67,1.58,1.51Zm3.58,3.59-1.4-1.47,7.47-7.41,1.51,1.58Zm3.48,3.7c-.44-.52-.91-1-1.38-1.5l7.73-7.14a19.14,19.14,0,0,1,1.47,1.61Zm3.32,3.84L402,192.67l8-6.87,1.43,1.65Zm6.23,8-1.18-1.66,8.43-6.3,1.27,1.78Zm5.67,8.41-1.1-1.71L423,203.2l1.18,1.84Zm2.6,4.36-1-1.76,9.05-5.38,1.09,1.89Zm4.77,9c-1.1-2.13-2.16-4.29-3.31-6.4l9.23-5.06c1.23,2.26,2.37,4.58,3.55,6.86Zm7.54,18.83-.66-1.93,10-3.36.7,2.07Zm5.57,24.71-.25-2,10.4-1.56.28,2.17Zm11.1,4-10.47,1c-.06-.68-.16-1.35-.24-2l10.45-1.19c.12.72.23,1.43.29,2.16Z"></path>
                <polygon class="cls-3" points="495.47 275.43 495.19 271.64 484.36 272.45 484.62 276.04 495.47 275.43"></polygon>
                <polygon class="cls-3" points="494.62 265.11 494.15 261.33 483.38 262.69 483.82 266.27 494.62 265.11"></polygon>
                <polygon class="cls-3" points="493.25 254.82 492.59 251.07 481.9 252.98 482.52 256.53 493.25 254.82"></polygon>
                <polygon class="cls-3" points="413.78 123.82 410.69 121.61 404.37 130.44 407.3 132.54 413.78 123.82"></polygon>
                <polygon class="cls-3" points="297.89 83.81 294.11 83.72 294.02 94.58 297.61 94.66 297.89 83.81"></polygon>
                <polygon class="cls-3" points="287.57 83.8 283.78 83.9 284.24 94.75 287.83 94.65 287.57 83.8"></polygon>
                <polygon class="cls-3" points="277.24 84.3 273.46 84.6 274.47 95.41 278.05 95.13 277.24 84.3"></polygon>
                <polygon class="cls-3" points="216.78 98.32 213.24 99.74 217.48 109.74 220.83 108.4 216.78 98.32"></polygon>
                <path class="cls-3" d="M207.24,102.43c-1.15.54-2.32,1-3.46,1.61l4.75,9.77c1.07-.54,2.18-1,3.27-1.52Z"></path>
                <path class="cls-3" d="M197.93,107c-1.13.59-2.27,1.14-3.36,1.79l5.23,9.51c1-.61,2.12-1.13,3.18-1.69Z"></path>
                <path class="cls-4" d="M397.29,287a112.38,112.38,0,0,1-.93,13.72c-.22,2.29-.72,4.52-1.08,6.77-.18,1.13-.51,2.22-.75,3.34a31.5,31.5,0,0,1-.81,3.32l-.93,3.29c-.28,1.11-.72,2.16-1.07,3.25-.66,2.18-1.57,4.27-2.38,6.4a105.58,105.58,0,0,1-56.75,56.75c-2.13.81-4.22,1.72-6.4,2.38-1.09.35-2.14.79-3.25,1.07l-3.29.93c-1.09.36-2.22.54-3.32.81s-2.21.57-3.34.75c-2.25.36-4.48.86-6.77,1.08a101.67,101.67,0,0,1-27.44,0c-2.29-.22-4.52-.72-6.77-1.08-1.13-.18-2.22-.51-3.34-.75a31.5,31.5,0,0,1-3.32-.81l-3.29-.93c-1.11-.28-2.16-.72-3.25-1.07-2.18-.66-4.27-1.57-6.4-2.38a103.51,103.51,0,0,1-12.26-6.08l-16.27,28.11a136.12,136.12,0,0,0,16.09,8c2.78,1.09,5.55,2.24,8.41,3.14,1.42.46,2.82,1,4.26,1.39l4.36,1.2c1.43.45,2.91.71,4.36,1.07s2.91.72,4.39,1c3,.5,5.88,1.12,8.87,1.42a133.58,133.58,0,0,0,35.84,0c3-.3,5.92-.92,8.87-1.42,1.48-.25,2.92-.65,4.39-1s2.93-.62,4.36-1.07l4.32-1.23c1.44-.38,2.84-.93,4.26-1.39,2.86-.9,5.63-2.05,8.41-3.14a138.66,138.66,0,0,0,74.34-74.34c1.09-2.78,2.24-5.55,3.14-8.41.46-1.42,1-2.82,1.39-4.26l1.23-4.32c.45-1.43.71-2.91,1.07-4.36s.72-2.91,1-4.39c.5-3,1.12-5.88,1.42-8.87A144.53,144.53,0,0,0,429.77,287h-5.86a135.72,135.72,0,0,1-3.82,31.48c-.27,1.3-.66,2.56-1,3.83L418,326.13l-1.28,3.76c-.42,1.25-.82,2.51-1.34,3.73l-1.45,3.7c-.46,1.24-1.07,2.41-1.6,3.63s-1.06,2.43-1.66,3.6l-1.81,3.54-13.67-7.19,1.6-3.12c.54-1,1-2.12,1.47-3.18s1-2.11,1.41-3.2l1.28-3.26c.46-1.07.81-2.18,1.18-3.29l1.13-3.31.95-3.37c.31-1.12.67-2.23.9-3.38A120.46,120.46,0,0,0,408.47,287ZM276.66,417.43l-2.74-.35-1.37-.17-1.36-.24-5.43-1-5.38-1.25c-1.79-.42-3.54-1-5.31-1.47a135.23,135.23,0,0,1-20.54-8l6.82-13.86a118.65,118.65,0,0,0,18.11,7.08c1.56.42,3.11.92,4.68,1.3l4.75,1.1,4.79.86,1.2.21,1.2.15,2.42.31Zm52.52-4.25-4,1.13-4,.92-3.35-15.07,3.54-.81,3.49-1Zm73.92-55.26a131.93,131.93,0,0,1-55.86,48.54l-6.44-14a116.45,116.45,0,0,0,49.31-42.86Z"></path>
                <path class="cls-4" d="M242,374.53l7.2-12.44a85,85,0,0,0,10.13,5c1.76.67,3.49,1.43,5.29,2,.9.28,1.76.66,2.68.88l2.72.77c.89.31,1.83.44,2.74.67s1.82.48,2.75.62c1.87.29,3.71.72,5.6.89a83.41,83.41,0,0,0,22.76,0c1.89-.17,3.73-.6,5.6-.89.93-.14,1.83-.43,2.75-.62a21.46,21.46,0,0,0,2.74-.67l2.72-.77c.92-.22,1.78-.6,2.68-.88,1.8-.54,3.53-1.3,5.29-2a85,85,0,0,0,10.13-5,86.16,86.16,0,0,0,31.8-31.8,85,85,0,0,0,5-10.13c.67-1.76,1.43-3.49,2-5.29.28-.9.66-1.76.88-2.68l.77-2.72c.31-.89.44-1.83.67-2.74s.48-1.82.62-2.75c.29-1.87.72-3.71.89-5.6a94,94,0,0,0,.78-11.38h14.37a104.67,104.67,0,0,1-.9,13.24c-.2,2.2-.69,4.35-1,6.53-.17,1.08-.49,2.14-.72,3.21a30,30,0,0,1-.78,3.21l-.9,3.17c-.26,1.07-.7,2.08-1,3.13-.65,2.1-1.52,4.12-2.31,6.18a102,102,0,0,1-54.77,54.68c-2.06.79-4.08,1.66-6.18,2.31-1.05.32-2.06.76-3.13,1l-3.17.9c-1.05.35-2.14.52-3.21.78s-2.13.55-3.21.72c-2.18.35-4.33.84-6.53,1a97.84,97.84,0,0,1-26.48,0c-2.2-.2-4.35-.69-6.53-1-1.08-.17-2.14-.49-3.21-.72a30,30,0,0,1-3.21-.78l-3.17-.9c-1.07-.26-2.08-.7-3.13-1-2.1-.65-4.12-1.52-6.18-2.31A99.91,99.91,0,0,1,242,374.53Z"></path>
                <path class="cls-4" d="M472.07,340.24l-8.2-2.43,1.75-6.21,1.46-6.28c.51-2.09.87-4.21,1.25-6.32l.56-3.18c.2-1.06.37-2.12.49-3.18l.81-6.39c.26-2.13.37-4.28.55-6.41l.23-3.21c.08-1.07.08-2.14.12-3.21l.15-6.42h8.55l-.16,6.72a31.44,31.44,0,0,1-.12,3.36l-.24,3.37c-.19,2.23-.3,4.48-.57,6.71l-.85,6.7c-.13,1.11-.31,2.22-.51,3.33l-.59,3.33c-.4,2.22-.78,4.44-1.32,6.63l-1.53,6.58Z"></path>
                <path class="cls-4" d="M442.48,399.19l-6.85-5.13a193.5,193.5,0,0,0,13.91-21.66,190.43,190.43,0,0,0,10.66-23.46l8,3a187.44,187.44,0,0,1-25.74,47.29Z"></path>
                <path class="cls-4" d="M361,461.32l-3.13-8a171.91,171.91,0,0,0,21.45-10.11l4.16,7.47A182.42,182.42,0,0,1,361,461.32Z"></path>
                <path class="cls-4" d="M207.19,453.72l3.9-7.61c3.49,1.86,7.11,3.46,10.72,5.08,1.8.82,3.67,1.49,5.5,2.23s3.67,1.48,5.56,2.09L230,463.57c-2-.64-3.89-1.44-5.82-2.19s-3.88-1.48-5.76-2.34C214.64,457.34,210.85,455.67,207.19,453.72Z"></path>
                <path class="cls-4" d="M221.48,410l-13.6,23.5c1.48.84,2.94,1.71,4.43,2.51l4.53,2.32c3.71-2.27,7.36-4.78,10.86-7.32a160.94,160.94,0,0,0,18,6.85q1.43,6.27,3.3,12.65a166.24,166.24,0,0,0,37.5,5.54c2.42-3.71,4.69-7.36,6.82-11.14a159.15,159.15,0,0,0,26.68-2.4c2.76,3.31,5.68,6.67,8.72,9.78a161.44,161.44,0,0,0,25.73-7.83,163.9,163.9,0,0,0,24.15-11.79c.1-4.35-.06-8.81-.28-13.1,2.73-1.68,5.29-3.62,7.91-5.46,1.31-.91,2.54-1.95,3.81-2.93s2.55-1.94,3.74-3q6.06,2.22,12.44,4.13l5.53-5.26c1.79-1.8,3.52-3.66,5.28-5.5-1.19-4.21-2.6-8.42-4-12.46.52-.61,1.05-1.2,1.56-1.83l1.48-1.88,3-3.78,2.79-3.92c.93-1.3,1.87-2.6,2.71-4,4.28.25,8.7.4,13.1.36a168.39,168.39,0,0,0,13.93-29.15q-4.17-5.2-8.52-10A161.86,161.86,0,0,0,449,308.7q6-2.42,12-5.3c.2-2.74.44-5.49.6-8.23l.2-8.24H434.56a149.3,149.3,0,0,1-1.24,18.54c-.32,3.09-1,6.13-1.48,9.18-.26,1.53-.68,3-1,4.54s-.65,3-1.11,4.51l-1.27,4.47c-.4,1.5-1,2.95-1.44,4.42-.93,3-2.13,5.82-3.26,8.71A142.22,142.22,0,0,1,363.52,410a140.72,140.72,0,0,1-16.65,8.24c-2.89,1.13-5.75,2.33-8.71,3.26-1.47.47-2.92,1-4.42,1.44l-4.47,1.27c-1.48.46-3,.74-4.51,1.11s-3,.74-4.54,1c-3.05.52-6.09,1.16-9.18,1.48a139.5,139.5,0,0,1-37.08,0c-3.09-.32-6.13-1-9.18-1.48-1.53-.26-3-.68-4.54-1s-3-.65-4.51-1.11L251.26,423c-1.5-.4-2.95-1-4.42-1.44-3-.93-5.82-2.13-8.71-3.26A141.13,141.13,0,0,1,221.48,410ZM436.79,296.31l.14-1.79.05-1.8.09-3.6,10.52.15-.09,3.86-.06,1.92L447.3,297Zm-.38,5.06.15-2,10.49.89-.17,2.17Zm-.62,5,.26-2,10.45,1.25-.28,2.17Zm-.76,5,.36-2,10.4,1.61-.39,2.16Zm-.9,5c.14-.66.24-1.33.37-2l10.33,2c-.13.72-.24,1.44-.4,2.15Zm-1.13,5,.46-2,10.26,2.35-.49,2.13Zm-1.29,4.9.55-2L442.41,327l-.59,2.1ZM418,358.91l1.79-3.13,1.64-3.2,9.37,4.78L429,360.8l-1.92,3.35Zm-8.25,12.78,1.18-1.66,8.61,6.05-1.27,1.78Zm-9.54,11.85c1.55-1.83,3.18-3.6,4.67-5.48l8.17,6.63c-1.6,2-3.34,3.91-5,5.87Zm-7,7.29,1.47-1.4,7.43,7.45-1.58,1.51Zm-11.47,10,2.84-2.22,2.72-2.36,6.9,7.95-2.93,2.52-3,2.39Zm-8.17,6,1.66-1.18,6,8.63-1.78,1.26Zm-8.61,5.36,1.76-1,5.4,9-1.89,1.09Zm-4.43,2.48a16.61,16.61,0,0,0,1.79-1l5.08,9.22a18.43,18.43,0,0,1-1.92,1Zm-23.32,9.9,3.41-1.16,1.71-.57,1.67-.67L347.7,432l-1.8.71-1.83.62-3.66,1.24ZM332.27,426l2-.55,3,10.07-2.11.6Zm-4.9,1.33c.66-.16,1.33-.3,2-.5L332,437.05c-.7.21-1.41.36-2.12.53Zm-4.95,1.14,2-.46,2.31,10.26-2.13.49Zm-5,.93,2-.36,1.95,10.34-2.15.39Zm-10.05,1.43,2-.26L310.58,441l-2.16.27Zm-10.12.63,2,0,.48,10.51-2.18.06Zm-5.07.12h2l.13,10.52h-2.18ZM282,431.17c1.2.08,2.39.21,3.59.24l3.6.09L289,442.06l-3.86-.1c-1.28,0-2.56-.17-3.85-.25Zm-20-2.8c.66.15,1.31.32,2,.43l-2.07,10.32c-.72-.12-1.42-.3-2.14-.46Zm-24.21-7.49,1.9.75-3.85,9.79-2-.8Zm-9,7.58,4.33-9.59,1.86.84-4.19,9.65Z"></path>
                <polygon class="cls-4" points="201.04 468.57 204.44 470.29 209.15 460.5 205.94 458.87 201.04 468.57"></polygon>
                <path class="cls-4" d="M210.43,473c1.17.51,2.31,1.06,3.49,1.53l4.2-10c-1.11-.45-2.2-1-3.3-1.45Z"></path>
                <path class="cls-4" d="M220,477c1.19.45,2.36.94,3.57,1.34l3.68-10.22c-1.14-.37-2.25-.84-3.37-1.27Z"></path>
                <polygon class="cls-4" points="373.24 473.61 376.71 472.04 372.21 462.16 368.92 463.64 373.24 473.61"></polygon>
                <path class="cls-4" d="M465.78,393.36c.69-1.06,1.3-2.18,1.94-3.27l-9.35-5.52c-.61,1-1.18,2.1-1.84,3.1Z"></path>
                <path class="cls-4" d="M471,384.39c.62-1.11,1.18-2.25,1.77-3.38l-9.63-5c-.55,1.06-1.08,2.14-1.67,3.19Z"></path>
                <polygon class="cls-4" points="475.74 375.15 477.33 371.69 467.45 367.16 465.96 370.44 475.74 375.15"></polygon>
                <polygon class="cls-4" points="493.76 315.71 494.25 311.94 483.46 310.62 483.01 314.19 493.76 315.71"></polygon>
                <polygon class="cls-4" points="494.95 305.41 495.25 301.63 484.41 300.86 484.13 304.44 494.95 305.41"></polygon>
                <polygon class="cls-4" points="495.62 295.09 495.72 291.31 484.86 291.08 484.77 294.66 495.62 295.09"></polygon>
                <path class="cls-4" d="M240.15,377.76a105.58,105.58,0,0,1-44.49-50.67c-.81-2.13-1.72-4.22-2.38-6.4-.35-1.09-.79-2.14-1.07-3.25l-.93-3.29c-.36-1.09-.54-2.22-.81-3.32s-.57-2.21-.75-3.34c-.36-2.25-.86-4.48-1.08-6.77a101.67,101.67,0,0,1,0-27.44c.22-2.29.72-4.52,1.08-6.77.18-1.13.51-2.22.75-3.34a31.5,31.5,0,0,1,.81-3.32l.93-3.29c.28-1.11.72-2.16,1.07-3.25.66-2.18,1.57-4.27,2.38-6.4a105.58,105.58,0,0,1,44.49-50.67l-16.27-28.11a138.66,138.66,0,0,0-58.25,66.34c-1.09,2.78-2.24,5.55-3.14,8.41-.46,1.42-1,2.82-1.39,4.26l-1.23,4.32c-.45,1.43-.71,2.91-1.07,4.36s-.72,2.91-1,4.39c-.5,3-1.12,5.88-1.42,8.87a133.58,133.58,0,0,0,0,35.84c.3,3,.92,5.92,1.42,8.87.25,1.48.65,2.92,1,4.39s.62,2.93,1.07,4.36l1.23,4.32c.38,1.44.93,2.84,1.39,4.26.9,2.86,2,5.63,3.14,8.41a138.66,138.66,0,0,0,58.25,66.34l2.94-5.07a134.25,134.25,0,0,1-13.26-8.74l-3.12-2.46-1.57-1.23-1.5-1.3-3-2.6c-1-.89-1.92-1.83-2.89-2.73-2-1.79-3.73-3.76-5.57-5.67-.94-.93-1.75-2-2.64-3s-1.76-2-2.58-3c-1.6-2.11-3.34-4.12-4.82-6.32l-2.3-3.23-2.15-3.35,13.05-8.26,1.89,3,2,2.85c1.3,1.95,2.85,3.71,4.26,5.58.72.92,1.53,1.77,2.28,2.66s1.49,1.81,2.33,2.63c1.63,1.68,3.18,3.43,4.92,5,.86.8,1.68,1.63,2.55,2.42l2.65,2.29,1.33,1.16,1.38,1.08,2.75,2.17a117.63,117.63,0,0,0,11.71,7.71ZM187.43,208.08a134.66,134.66,0,0,1,31.93-30.27L228,190.63a119,119,0,0,0-28.21,26.73Zm-22.55,47.57c.28-1.34.68-2.66,1.05-4l1.13-4,14.74,4.61-1,3.49c-.34,1.17-.69,2.33-.93,3.51Zm10.87,91.66a131.27,131.27,0,0,1-14.07-72.64l15.38,1.43a115.72,115.72,0,0,0,12.41,64.11Z"></path>
                <path class="cls-4" d="M242,199.47l7.2,12.44a86.16,86.16,0,0,0-31.8,31.8,85,85,0,0,0-5,10.13c-.67,1.76-1.43,3.49-2,5.29-.28.9-.66,1.76-.88,2.68l-.77,2.72c-.31.89-.44,1.83-.67,2.74s-.48,1.82-.62,2.75c-.29,1.87-.72,3.71-.89,5.6a83.41,83.41,0,0,0,0,22.76c.17,1.89.6,3.73.89,5.6.14.93.43,1.83.62,2.75a21.46,21.46,0,0,0,.67,2.74l.77,2.72c.22.92.6,1.78.88,2.68.54,1.8,1.3,3.53,2,5.29a85,85,0,0,0,5,10.13,86.16,86.16,0,0,0,31.8,31.8L242,374.53a101.68,101.68,0,0,1-42.86-48.82c-.79-2.06-1.66-4.08-2.31-6.18-.32-1-.76-2.06-1-3.13l-.9-3.17c-.35-1.05-.52-2.14-.78-3.21s-.55-2.13-.72-3.21c-.35-2.18-.84-4.33-1-6.53a97.84,97.84,0,0,1,0-26.48c.2-2.2.69-4.35,1-6.53.17-1.08.49-2.14.72-3.21a30,30,0,0,1,.78-3.21l.9-3.17c.26-1.07.7-2.08,1-3.13.65-2.1,1.52-4.12,2.31-6.18A101.33,101.33,0,0,1,242,199.51Z"></path>
                <path class="cls-4" d="M156.64,415.85l6.2-5.88c2.91,3.15,6,6.08,9.16,9,1.59,1.44,3.23,2.83,4.84,4.24s3.3,2.75,5,4.07c3.33,2.71,6.85,5.16,10.36,7.64,1.78,1.19,3.6,2.33,5.41,3.49s3.65,2.26,5.52,3.32l-4.29,7.41c-2-1.12-3.9-2.25-5.78-3.48s-3.8-2.42-5.66-3.67c-3.68-2.59-7.37-5.16-10.86-8-1.77-1.39-3.54-2.77-5.22-4.27s-3.41-2.93-5.08-4.43C163,422.23,159.68,419.16,156.64,415.85Z"></path>
                <path class="cls-4" d="M120.36,360.84l7.85-3.38a178.7,178.7,0,0,0,26.84,43.79l-6.57,5.47a197.79,197.79,0,0,1-15.71-21.91A195.53,195.53,0,0,1,120.36,360.84Z"></path>
                <path class="cls-4" d="M107.28,259.17l8.46,1.27c-.48,3.92-1.1,7.83-1.33,11.77-.15,2-.31,3.94-.43,5.9l-.15,5.91-8.55-.14.16-6.18c.12-2.07.29-4.13.45-6.19C106.13,267.38,106.77,263.28,107.28,259.17Z"></path>
                <path class="cls-4" d="M190.72,129.8l4.66,7.18-2.5,1.6c-.82.55-1.61,1.13-2.42,1.7l-4.83,3.44L181,147.37l-2.32,1.84-2.25,1.93-5.55-6.49,2.35-2,2.43-1.93,4.88-3.82,5.06-3.61c.85-.59,1.68-1.2,2.54-1.77Z"></path>
                <path class="cls-4" d="M221.48,164l-13.6-23.5c-3,1.64-5.8,3.51-8.65,5.34.06,2.18.18,4.38.35,6.57s.36,4.36.58,6.5l-1.95,1.4c-.65.47-1.27,1-1.9,1.47l-3.78,3c-1.25,1-2.43,2.08-3.65,3.12s-2.45,2.07-3.59,3.2c-4.1-1.28-8.32-2.47-12.63-3.51A173.37,173.37,0,0,0,149.1,197.2c1.91,3.91,4.06,7.79,6.24,11.51A161.61,161.61,0,0,0,144,233.05q-6.33,1.13-12.81,2.69a178.33,178.33,0,0,0-6.06,26.2,176.21,176.21,0,0,0-1.83,26.76q5.71,3.39,11.44,6.32l.35,4.79c.14,1.6.21,3.2.44,4.78.42,3.18.74,6.37,1.37,9.52-1.66,1.37-3.32,2.79-5,4.24l-2.46,2.21-2.37,2.25c.58,2.48,1.1,5,1.77,7.43s1.37,4.91,2.1,7.35q6.48,1.59,12.82,2.74c.5,1.52,1.14,3,1.71,4.49s1.15,3,1.81,4.45c1.34,2.91,2.56,5.89,4.08,8.71-1.19,1.8-2.36,3.64-3.51,5.5l-1.71,2.83-1.62,2.84a168.74,168.74,0,0,0,18.31,26.59c4.38-.68,8.65-1.47,12.85-2.39a160.84,160.84,0,0,0,19.7,18.2c-.31,2.14-.6,4.31-.85,6.5s-.41,4.32-.57,6.51l3.37,2.39c1.13.79,2.31,1.51,3.46,2.26l3.48,2.22c1.17.73,2.38,1.39,3.56,2.09l13.6-23.5a142.66,142.66,0,0,1-60.24-68.65c-1.13-2.89-2.33-5.75-3.26-8.71-.47-1.47-1-2.92-1.44-4.42l-1.27-4.47c-.46-1.48-.74-3-1.11-4.51s-.74-3-1-4.54c-.52-3.05-1.16-6.09-1.48-9.18a139.5,139.5,0,0,1,0-37.08c.32-3.09,1-6.13,1.48-9.18.26-1.53.68-3,1-4.54s.65-3,1.11-4.51l1.27-4.47c.4-1.5,1-2.95,1.44-4.42.93-3,2.13-5.82,3.26-8.71A143.92,143.92,0,0,1,221.48,164Zm-9.2,243.35c2,1.28,4,2.64,6.08,3.85l-5.4,9c-2.22-1.3-4.35-2.75-6.53-4.13Zm-4.16-2.91,1.66,1.18-6,8.63L202,413Zm-4.07-3,1.61,1.26-6.33,8.41-1.72-1.35Zm-4-3.16c.51.46,1.06.86,1.59,1.28L195,407.75c-.56-.46-1.16-.89-1.7-1.38ZM196.22,395l1.54,1.34-6.9,7.94-1.65-1.43Zm-3.72-3.45,1.48,1.4-7.17,7.71-1.58-1.51Zm-3.6-3.57,1.41,1.47-7.44,7.45-1.51-1.57Zm-21.44-28.2c1.15,2.11,2.48,4.11,3.78,6.13l-8.82,5.75c-1.39-2.17-2.81-4.32-4-6.58Zm-7-13.53.84,1.86-9.54,4.44-.9-2ZM155,332c.79,2.26,1.48,4.57,2.41,6.78l-9.82,3.77c-1-2.38-1.74-4.85-2.59-7.28Zm-2.82-9.74c.14.66.32,1.32.51,2L142.52,327c-.21-.7-.4-1.41-.55-2.12Zm-2.9-14.94.23,1.79.32,1.77.63,3.55-10.33,2-.68-3.81-.34-1.9-.25-1.91Zm-1-10.09.16,2-10.49.88-.16-2.18Zm-.39-10.14.05,2-10.52.15-.06-2.18ZM148,282l-.05,2-10.52-.21V281.6Zm3-25.15c-.52,2.35-.87,4.72-1.31,7.08l-10.39-1.66c.47-2.53.85-5.09,1.41-7.6Zm1.14-4.94-.45,2-10.25-2.4.49-2.13Zm1.34-4.9-.56,2-10.15-2.76.59-2.1Zm1.48-4.85-.65,1.93-10-3.11.69-2.08Zm1.62-4.8-.65,1.93L146,235.81l.7-2.07Zm3.86-9.39-.84,1.86-9.6-4.17.9-2Zm4.44-9.11-.92,1.81-9.35-4.84,1-1.94Zm2.5-4.42-1,1.76-9.15-5.2,1.09-1.89Zm5.37-8.61c-1.32,2-2.6,4-3.9,6.06l-9-5.48c1.39-2.16,2.76-4.34,4.19-6.49Zm12.54-15.94L184,191.43l-7.89-7,1.43-1.65ZM203.9,172.7,202.3,174l-6.57-8.22,1.72-1.35Zm-2.1-11.57,6.16,8.53-1.66,1.18L200,162.4Z"></path>
                <path class="cls-4" d="M180.91,117.07c-1.06.69-2.14,1.36-3.16,2.11l6.13,9c1-.71,2-1.34,3-2Z"></path>
                <polygon class="cls-4" points="172.39 122.98 170.85 124.09 169.35 125.25 175.94 133.89 177.35 132.79 178.82 131.74 172.39 122.98"></polygon>
                <path class="cls-4" d="M164.19,129.31c-1,.77-1.95,1.61-2.91,2.43l7,8.3c.91-.78,1.81-1.58,2.76-2.31Z"></path>
                <path class="cls-4" d="M90.55,263.67c-.14,1.26-.33,2.51-.41,3.77l10.81,1c.08-1.19.26-2.38.39-3.58Z"></path>
                <polygon class="cls-4" points="113.78 383.98 115.66 387.29 125.11 381.93 123.32 378.8 113.78 383.98"></polygon>
                <polygon class="cls-4" points="118.97 392.97 121.02 396.18 130.17 390.34 128.24 387.3 118.97 392.97"></polygon>
                <polygon class="cls-4" points="124.61 401.67 126.81 404.77 135.66 398.47 133.58 395.54 124.61 401.67"></polygon>
                <polygon class="cls-4" points="166.94 446.86 169.93 449.2 176.48 440.54 173.65 438.32 166.94 446.86"></polygon>
                <polygon class="cls-4" points="175.24 453.05 178.35 455.25 184.45 446.26 181.51 444.19 175.24 453.05"></polygon>
                <polygon class="cls-4" points="183.86 458.82 187.07 460.86 192.71 451.58 189.67 449.65 183.86 458.82"></polygon>
                <path class="cls-4" d="M240.15,196.24a103.51,103.51,0,0,1,12.26-6.08c2.13-.81,4.22-1.72,6.4-2.38,1.09-.35,2.14-.79,3.25-1.07l3.29-.93c1.09-.36,2.22-.54,3.32-.81s2.21-.57,3.34-.75c2.25-.36,4.48-.86,6.77-1.08a101.67,101.67,0,0,1,27.44,0c2.29.22,4.52.72,6.77,1.08,1.13.18,2.22.51,3.34.75a31.5,31.5,0,0,1,3.32.81l3.29.93c1.11.28,2.16.72,3.25,1.07,2.18.66,4.27,1.57,6.4,2.38a105.58,105.58,0,0,1,56.75,56.75c.81,2.13,1.72,4.22,2.38,6.4.35,1.09.79,2.14,1.07,3.25l.93,3.29c.36,1.09.54,2.22.81,3.32s.57,2.21.75,3.34c.36,2.25.86,4.48,1.08,6.77a112.38,112.38,0,0,1,.93,13.72h32.48a143.2,143.2,0,0,0-1.21-17.92c-.3-3-.92-5.92-1.42-8.87-.25-1.48-.65-2.92-1-4.39s-.62-2.93-1.07-4.36l-1.23-4.32c-.38-1.44-.93-2.84-1.39-4.26-.9-2.86-2.05-5.63-3.14-8.41A138.66,138.66,0,0,0,345,160.13c-2.78-1.09-5.55-2.24-8.41-3.14-1.42-.46-2.82-1-4.26-1.39l-4.3-1.2c-1.43-.45-2.91-.71-4.36-1.07s-2.91-.72-4.39-1c-3-.5-5.88-1.12-8.87-1.42a133.58,133.58,0,0,0-35.84,0c-3,.3-5.92.92-8.87,1.42-1.48.25-2.92.65-4.39,1s-2.93.62-4.36,1.07l-4.32,1.23c-1.44.38-2.84.93-4.26,1.39-2.86.9-5.63,2-8.41,3.14a136.12,136.12,0,0,0-16.09,8l2.94,5.07c1.15-.65,2.28-1.34,3.45-2l3.53-1.81,1.77-.91,1.81-.81,3.61-1.64c1.22-.52,2.46-1,3.69-1.47s2.45-1,3.71-1.4c2.51-.83,5-1.76,7.56-2.42a129.58,129.58,0,0,1,31.28-5.06l.61,15.43a113.72,113.72,0,0,0-27.6,4.46c-2.27.57-4.45,1.41-6.67,2.13-1.11.34-2.18.83-3.27,1.24s-2.18.83-3.25,1.29l-3.19,1.45-1.59.72-1.56.8-3.12,1.59c-1,.55-2,1.16-3,1.74Zm173.27,39.23a135.69,135.69,0,0,1,6.88,21l.62,2.69.31,1.34.24,1.36,1,5.43.7,5.48c.22,1.83.29,3.68.46,5.51l-15.41,1c-.15-1.62-.2-3.25-.4-4.86l-.62-4.84-.84-4.79-.22-1.2-.27-1.18-.55-2.37a119.81,119.81,0,0,0-6.06-18.47Zm-30-43.3c2,1.85,3.87,3.9,5.78,5.88L377.84,208.5c-1.69-1.74-3.31-3.56-5.11-5.19Zm-84.78-36.43a132,132,0,0,1,36.7,7l2.22.75,2.18.85c1.45.59,2.91,1.12,4.35,1.74,2.84,1.29,5.71,2.53,8.46,4s5.47,3,8.19,4.56,5.3,3.31,7.81,5.19l-8.95,12.58c-2.21-1.66-4.58-3.07-6.89-4.59-2.4-1.34-4.74-2.82-7.23-4s-5-2.39-7.46-3.54c-1.26-.55-2.56-1-3.84-1.53l-1.92-.76-1.95-.65a116,116,0,0,0-32.37-6.2Z"></path>
                <path class="cls-4" d="M393.56,287H379.19a94,94,0,0,0-.78-11.38c-.17-1.89-.6-3.73-.89-5.6-.14-.93-.43-1.83-.62-2.75a21.46,21.46,0,0,0-.67-2.74l-.77-2.72c-.22-.92-.6-1.78-.88-2.68-.54-1.8-1.3-3.53-2-5.29a85,85,0,0,0-5-10.13,86.16,86.16,0,0,0-31.8-31.8,85,85,0,0,0-10.13-5c-1.76-.67-3.49-1.43-5.29-2-.9-.28-1.76-.66-2.68-.88l-2.72-.77c-.89-.31-1.83-.44-2.74-.67s-1.82-.48-2.75-.62c-1.87-.29-3.71-.72-5.6-.89a83.41,83.41,0,0,0-22.76,0c-1.89.17-3.73.6-5.6.89-.93.14-1.83.43-2.75.62a21.46,21.46,0,0,0-2.74.67l-2.72.77c-.92.22-1.78.6-2.68.88-1.8.54-3.53,1.3-5.29,2a85,85,0,0,0-10.13,5L242,199.47a100.67,100.67,0,0,1,11.82-5.86c2.06-.79,4.08-1.66,6.18-2.31,1.05-.32,2.06-.76,3.13-1l3.17-.9c1.05-.35,2.14-.52,3.21-.78s2.13-.55,3.21-.72c2.18-.35,4.33-.84,6.53-1a97.84,97.84,0,0,1,26.48,0c2.2.2,4.35.69,6.53,1,1.08.17,2.14.49,3.21.72a30,30,0,0,1,3.21.78l3.17.9c1.07.26,2.08.7,3.13,1,2.1.65,4.12,1.52,6.18,2.31a101.65,101.65,0,0,1,54.7,54.68c.79,2.06,1.66,4.08,2.31,6.18.32,1.05.76,2.06,1,3.13l.9,3.17c.35,1.05.52,2.14.78,3.21s.55,2.13.72,3.21c.35,2.18.84,4.33,1,6.53A105.4,105.4,0,0,1,393.56,287Z"></path>
                <path class="cls-4" d="M248.87,104.87l2,8.32-3.14.74-3.11.87c-2.06.6-4.14,1.14-6.19,1.81l-6.11,2.07c-2,.68-4,1.53-6,2.3l-3,1.19c-1,.41-2,.87-2.95,1.3-2,.9-3.93,1.76-5.86,2.69-3.83,2-7.68,3.87-11.36,6.08l-4.29-7.41c3.87-2.3,7.9-4.32,11.91-6.36,2-1,4.1-1.88,6.15-2.82,1-.45,2.05-.93,3.09-1.36l3.14-1.25c2.1-.81,4.17-1.7,6.31-2.41l6.41-2.17c2.14-.7,4.32-1.27,6.49-1.9l3.25-.91Z"></path>
                <path class="cls-4" d="M314.59,101l-1,8.49c-1.07-.12-2.13-.27-3.2-.38l-3.21-.25c-2.13-.15-4.27-.36-6.41-.43-4.28-.12-8.56-.29-12.84-.1-4.28,0-8.56.41-12.83.74-2.14.2-4.27.51-6.4.77l-3.19.41-3.18.55-1.43-8.43,3.33-.57,3.34-.44c2.23-.27,4.46-.6,6.7-.8,4.48-.35,9-.75,13.44-.78,4.48-.19,9,0,13.45.1,2.24.08,4.48.3,6.72.46l3.36.27C312.36,100.75,313.47,100.91,314.59,101Z"></path>
                <path class="cls-4" d="M409.24,140.58l-5.33,6.69c-1.56-1.22-3.1-2.45-4.67-3.65l-4.83-3.43c-1.59-1.17-3.26-2.24-4.92-3.3s-3.31-2.16-5-3.16l4.41-7.33c1.78,1,3.5,2.2,5.25,3.31s3.49,2.23,5.16,3.45l5.06,3.61C406,138,407.61,139.31,409.24,140.58Z"></path>
                <path class="cls-4" d="M479.55,277.52,471,278l-.43-5.9-.23-3c-.1-1-.24-2-.35-3l-.76-5.88c-.3-1.95-.67-3.89-1-5.84l8.41-1.55c.36,2,.74,4.08,1.06,6.12l.79,6.17c.12,1,.27,2.05.36,3.08l.25,3.09Z"></path>
                <path class="cls-4" d="M434.56,287h27.15l-.12-5.07c-.06-1.7,0-3.39-.2-5.08q-5.88-3.09-11.74-5.74l-.59-4.77c-.22-1.59-.37-3.19-.68-4.76-.58-3.15-1.06-6.33-1.84-9.44,3.15-2.91,6.39-6,9.35-9.18A170.27,170.27,0,0,0,442,207.67c-2.17-.15-4.38-.24-6.58-.28s-4.36-.06-6.52,0a161.51,161.51,0,0,0-15.45-21.92c1.46-4,2.85-8.21,4.1-12.45a174.44,174.44,0,0,0-19.63-18.32c-1.77-1.36-3.49-2.81-5.33-4.09l-5.48-3.89L381.43,143c-1.88-1.22-3.87-2.27-5.8-3.41-1.92,1.07-3.8,2.12-5.68,3.27s-3.72,2.31-5.53,3.49a162,162,0,0,0-17.6-7.74q-1.11-6.33-2.66-12.8c-4.86-1.52-9.77-2.9-14.75-4-1.53,1.59-3,3.14-4.48,4.78s-2.9,3.29-4.28,4.95c-1.58-.26-3.16-.59-4.74-.81l-4.77-.61-2.39-.29-2.39-.2-4.79-.36c-1.93-3.9-4-7.65-6.24-11.48a170.62,170.62,0,0,0-32.15,2.52c-1.62,4.12-3.1,8.13-4.38,12.33a150.42,150.42,0,0,0-25.65,7.93c-3.43-2.73-6.92-5.24-10.58-7.71-1.25.57-2.51,1.12-3.75,1.72l-3.68,1.88c-1.23.63-2.46,1.24-3.67,1.91l-3.59,2,13.6,23.5a140.72,140.72,0,0,1,16.65-8.24c2.89-1.13,5.75-2.33,8.71-3.26,1.47-.47,2.92-1,4.42-1.44l4.47-1.27c1.48-.46,3-.74,4.51-1.11s3-.74,4.54-1c3.05-.52,6.09-1.16,9.18-1.48a139.5,139.5,0,0,1,37.08,0c3.09.32,6.13,1,9.18,1.48,1.53.26,3,.68,4.54,1s3,.65,4.51,1.11l4.47,1.27c1.5.4,2.95,1,4.42,1.44,3,.93,5.82,2.13,8.71,3.26a143.15,143.15,0,0,1,76.89,77c1.13,2.89,2.33,5.75,3.26,8.71.47,1.47,1,2.92,1.44,4.42l1.27,4.47c.46,1.48.74,3,1.11,4.51s.74,3,1,4.54c.52,3.05,1.16,6.09,1.48,9.18A149,149,0,0,1,434.56,287ZM228.4,157.35,225.2,159l-1.6.82-1.57.9-5.13-9.18,1.67-1,1.72-.89,3.44-1.76Zm4.59-2.16-1.85.84-4.47-9.52,2-.91Zm4.66-2c-.63.26-1.28.48-1.89.77l-4.13-9.68c.66-.31,1.35-.55,2-.82Zm4.72-1.86-1.9.75-3.79-9.82,2-.8Zm4.8-1.65-1.93.66-3.44-10,2.07-.7Zm4.84-1.5-2,.56-3-10.08,2.1-.6Zm4.89-1.36c-.67.14-1.31.36-2,.53l-2.73-10.16c.71-.19,1.4-.42,2.11-.57Zm35.15-4.41-7.2.19-.55-10.51,7.72-.21Zm15.2.73-2-.16.91-10.48,2.18.17Zm15,2.34c-2.35-.49-4.72-.86-7.08-1.3l1.63-10.39c2.54.46,5.08.87,7.61,1.39Zm9.84,2.46-2-.56,2.74-10.16,2.1.59Zm14.39,4.92c-2.23-.88-4.45-1.8-6.74-2.52l3.44-10c2.46.78,4.84,1.77,7.24,2.71Zm9.28,4.1c-.59-.32-1.22-.59-1.84-.87l4.48-9.52c.66.3,1.33.59,2,.93Zm8.95,4.79-1.77-1,5.14-9.18,1.89,1.09Zm4.35,2.6-1.72-1.09,5.45-9,1.85,1.17Zm20.23,15.25c-1.82-1.56-3.6-3.17-5.47-4.69l6.65-8.15c2,1.62,3.91,3.35,5.87,5Zm3.69,3.48-1.47-1.4,7.21-7.67,1.58,1.51Zm3.58,3.59-1.4-1.47,7.47-7.41,1.51,1.58Zm3.48,3.7c-.44-.52-.91-1-1.38-1.5l7.73-7.14a19.14,19.14,0,0,1,1.47,1.61Zm3.32,3.84L402,192.67l8-6.87,1.43,1.65Zm6.23,8-1.18-1.66,8.43-6.3,1.27,1.78Zm5.67,8.41-1.1-1.71L423,203.2l1.18,1.84Zm2.6,4.36-1-1.76,9.05-5.38,1.09,1.89Zm4.77,9c-1.1-2.13-2.16-4.29-3.31-6.4l9.23-5.06c1.23,2.26,2.37,4.58,3.55,6.86Zm7.54,18.83-.66-1.93,10-3.36.7,2.07Zm5.57,24.71-.25-2,10.4-1.56.28,2.17Zm11.1,4-10.47,1c-.06-.68-.16-1.35-.24-2l10.45-1.19c.12.72.23,1.43.29,2.16Z"></path>
                <polygon class="cls-4" points="495.47 275.43 495.19 271.64 484.36 272.45 484.62 276.04 495.47 275.43"></polygon>
                <polygon class="cls-4" points="494.62 265.11 494.15 261.33 483.38 262.69 483.82 266.27 494.62 265.11"></polygon>
                <polygon class="cls-4" points="493.25 254.82 492.59 251.07 481.9 252.98 482.52 256.53 493.25 254.82"></polygon>
                <polygon class="cls-4" points="413.78 123.82 410.69 121.61 404.37 130.44 407.3 132.54 413.78 123.82"></polygon>
                <polygon class="cls-4" points="297.89 83.81 294.11 83.72 294.02 94.58 297.61 94.66 297.89 83.81"></polygon>
                <polygon class="cls-4" points="287.57 83.8 283.78 83.9 284.24 94.75 287.83 94.65 287.57 83.8"></polygon>
                <polygon class="cls-4" points="277.24 84.3 273.46 84.6 274.47 95.41 278.05 95.13 277.24 84.3"></polygon>
                <polygon class="cls-4" points="216.78 98.32 213.24 99.74 217.48 109.74 220.83 108.4 216.78 98.32"></polygon>
                <path class="cls-4" d="M207.24,102.43c-1.15.54-2.32,1-3.46,1.61l4.75,9.77c1.07-.54,2.18-1,3.27-1.52Z"></path>
                <path class="cls-4" d="M197.93,107c-1.13.59-2.27,1.14-3.36,1.79l5.23,9.51c1-.61,2.12-1.13,3.18-1.69Z"></path>
            </g>
            <g id="check">
                
                <path class="cls-5" d="M354.17,287a61.67,61.67,0,1,1-61.67-61.67A61.67,61.67,0,0,1,354.17,287h0"></path>
                <polygon id="checkmark" class="cls-6" points="286.95 291.73 266.19 282.89 261.67 284.33 286.95 309.82 323.33 264.18 316.96 264.18 286.95 291.73"></polygon>
            </g>
        </g>
    </g>
</svg> 