<svg xmlns="http://www.w3.org/2000/svg"
    xmlns:xlink="http://www.w3.org/1999/xlink" viewBox="0 0 1420 400">
    <!--
        original svg viewBox="0 0 1529.42 433.06"
    -->
    <defs>
        <style>
        .mi-logo-dark{
            transform: translate(10px, 0px);
        }
        .malware,.intercept {
            fill:hsl(205deg 43% 28%);
        }
        .shield-bdr,.cen {
            fill: none;
        }
        .shield-bdr{
            stroke:url(#lg-shield-bdr);
        }
        .key-hole {
            fill:#00000066;
        }
        .shield {
            fill:hsl(210deg 79% 19%);
        }
        .shield-half {
            fill:url(#lg-shield-half);
            opacity: .25;
        }
        .arch {
            fill:url(#lg-arch);
            mask:url(#mask-arch);
        }

        .arch-mask-shape {
            fill:url(#rg-arch-mask-shape);
            transform: translate(-113px, 0px);
        }
        </style>
        <linearGradient id="brand-gradient-w" gradientTransform="rotate(90)">
            <stop offset="0%" stop-color="hsla(350, 100%, 45%,1)"/>
            <stop offset="7%" stop-color="hsla(350, 100%, 45%,1)"/>
            <stop offset="15%" stop-color="hsla(350, 0%, 100%,1)"/>
            <stop offset="15%" stop-color="hsla(350, 65%, 45%,1)"/>
            <stop offset="100%" stop-color="hsla(350, 65%, 45%,1)"/>
        </linearGradient>
        <linearGradient id="lg-shield-bdr">
            <stop offset="0" stop-color="transparent" stop-opacity="0" />
            <stop offset="1" stop-color="aqua" stop-opacity=".25" />
        </linearGradient>
        <linearGradient id="lg-shield-half">
            <stop offset="0" stop-color="aqua" stop-opacity=".2" />
            <stop offset="1" stop-color="aqua" stop-opacity=".8" />
        </linearGradient>
        <linearGradient id="lg-arch">
            <stop offset="0" stop-color="hsla(180,100%,50%,.75)" />
            <stop offset=".5" stop-color="hsla(180,100%,50%,.75)" />
            <stop offset=".5" stop-color="hsla(210,100%,60%,.75)" />
            <stop offset="1" stop-color="hsla(210,100%,60%,.75)" />
        </linearGradient>
        <radialGradient id="rg-arch-mask-shape">
            <stop offset="0" stop-color="white" />
            <stop offset="1" stop-color="black" />
        </radialGradient>
        <mask id="mask-arch" maskContentUnits="userSpaceOnUse" transform="translate(-36 45.5)">
            <path id="arch-mask-shape" class="arch-mask-shape" d="M429.34,91.73q-8.26-3.89-16.39-7.67C366.8,62.53,323.2,42.2,275.59,2L274.06.66,272.54,2c-43.16,37.19-76.4,52.74-136.74,81q-9.2,4.3-19.23,9l-1.38.65,0,1.53c1.25,62.14,13.88,118.36,37.52,167.09,26.55,54.71,66.47,98.49,118.65,130.1l1.26.76,1.24-.8c54.59-35.49,93.67-78.88,119.47-132.64,22.08-46,34.29-99.87,37.32-164.66l.07-1.57ZM286.67,209v46.81H256.89V209c-12.74-5.91-20.59-18.36-20.59-32.86a36.33,36.33,0,0,1,36.2-36.37c20,0,35.73,16,35.73,36.37C308.23,190.15,299.82,202.89,286.67,209Z"/>
        </mask>
    </defs>
    <g id="mi-logo-dark" transform="translate(-112)">
        <path class="intercept" d="M631,221.15V293.9H606.11V240.17l-16.59-19Z"/>
        <path class="intercept" d="M662.27,221.15l55.39,39.57V221.15h25.15V293.9H724l-55.9-39.18V293.9H643.25V221.15Z"/>
        <path class="intercept" d="M755.06,240.17v-19H859.85v19H820V293.9H795V240.17Z"/>
        <path class="intercept" d="M968.08,221.15v19H872.23v-19ZM943.7,247.83V267H872.23V247.83ZM968,274.63V293.9H872.23V274.63Z"/>
        <path class="intercept" d="M1056.4,251.15v-11H980.33v-19h84c6.12,0,10.51,1.36,13.14,4.09a14.57,14.57,0,0,1,4,10.59v18.51a13,13,0,0,1-5.55,11.23q-5.55,4-15.25,4.08l24.25,24.25H1054l-24.38-23.74h-24.38V293.9H980.33V251.15Z"/>
        <path class="intercept" d="M1190.8,274.89v19h-77.34q-9.57,0-14.94-4.27a14,14,0,0,1-5.36-11.55V235.83a14,14,0,0,1,4.28-10.59q4.27-4.1,14.1-4.09h79.26v19h-72.62v34.72Z"/>
        <path class="intercept" d="M1299,221.15v19h-95.86v-19Zm-24.38,26.68V267h-71.48V247.83Zm24.25,26.8V293.9h-95.73V274.63Z"/>
        <path class="intercept" d="M1387.36,251.15v-11h-76.07v-19h84.24a25.78,25.78,0,0,1,8.11,1.09,12.51,12.51,0,0,1,5.16,3.06,11.52,11.52,0,0,1,2.75,4.66,19.83,19.83,0,0,1,.83,5.87v18.51a13.91,13.91,0,0,1-1.47,6.44,17.39,17.39,0,0,1-3.76,5,16.7,16.7,0,0,1-5.24,3.25,15.62,15.62,0,0,1-5.74,1.15h-60V293.9h-24.89V251.15Z"/>
        <path class="intercept" d="M1424.63,240.17v-19h104.79v19H1489.6V293.9h-25V240.17Z"/>
        <path class="malware" d="M614.47,87.91l27.43,23.82,27.44-23.82h14.27v52.83H665.45V113.4L641.9,133.88,618.27,113.4v27.34H600.19V101.53L588.33,87.91Z"/>
        <path class="malware" d="M709.29,113h28.27l-4.63-7H714.29l11.78-18.07h15l35.51,52.83h-20.4l-9.64-13.9H720.78L711,140.74h-20.3Z"/>
        <path class="malware" d="M783.63,140.74V87.91H801.7v39h45.24v13.81Z"/>
        <path class="malware" d="M865.29,87.91h18.54l20.95,34,21.6-34h19.93L912.1,140.74H898.38l-9-13.81-8.9,13.81H866.31L832.2,87.91H852l21.87,34,6-9.73Z"/>
        <path class="malware" d="M943.25,113h28.27l-4.64-7H948.25L960,87.91h15l35.5,52.83H990.15l-9.64-13.9H954.74l-9.82,13.9h-20.3Z"/>
        <path class="malware" d="M1072.83,109.69v-8h-55.25V87.91h61q6.68,0,9.55,3a10.61,10.61,0,0,1,2.87,7.69V112a9.42,9.42,0,0,1-4,8.15q-4,2.88-11.08,3l17.61,17.61h-22.43l-17.71-17.24h-17.7v17.24h-18.08V109.69Z"/>
        <path class="malware" d="M1169.23,87.91v13.81h-69.61V87.91Zm-17.7,19.37v13.9h-51.91v-13.9Zm17.61,19.46v14h-69.52v-14Z"/>
        <path id="shield-bdr" class="shield-bdr" d="M429.34,91.73q-8.26-3.89-16.39-7.67C366.8,62.53,323.2,42.2,275.59,2L274.06.66,272.54,2c-43.16,37.19-76.4,52.74-136.74,81q-9.2,4.3-19.23,9l-1.38.65,0,1.53c1.25,62.14,13.88,118.36,37.52,167.09,26.55,54.71,66.47,98.49,118.65,130.1l1.26.76,1.24-.8c54.59-35.49,93.67-78.88,119.47-132.64,22.08-46,34.29-99.87,37.32-164.66l.07-1.57Z"/>
        <path id="shield" class="shield" d="M429.34,91.73q-8.26-3.89-16.39-7.67C366.8,62.53,323.2,42.2,275.59,2L274.06.66,272.54,2c-43.16,37.19-76.4,52.74-136.74,81q-9.2,4.3-19.23,9l-1.38.65,0,1.53c1.25,62.14,13.88,118.36,37.52,167.09,26.55,54.71,66.47,98.49,118.65,130.1l1.26.76,1.24-.8c54.59-35.49,93.67-78.88,119.47-132.64,22.08-46,34.29-99.87,37.32-164.66l.07-1.57ZM286.67,209v46.81H256.89V209c-12.74-5.91-20.59-18.36-20.59-32.86a36.33,36.33,0,0,1,36.2-36.37c20,0,35.73,16,35.73,36.37C308.23,190.15,299.82,202.89,286.67,209Z"/>
        <path id="shield-half" class="shield-half" d="M273,255.76H256.89V209c-12.74-5.91-20.59-18.36-20.59-32.86a36.33,36.33,0,0,1,36.2-36.37l.47,0V1.59l-.43.38c-43.16,37.19-76.4,52.74-136.74,81q-9.2,4.3-19.23,9l-1.38.65,0,1.53c1.25,62.14,13.88,118.36,37.52,167.09,26.55,54.71,66.47,98.49,118.65,130.1l1.26.76.32-.21Z"/>
        <path id="key-hole" class="key-hole" d="M272.5,139.72a36.33,36.33,0,0,0-36.2,36.37c0,14.5,7.85,26.95,20.59,32.86v46.81h29.78V209c13.15-6.06,21.56-18.8,21.56-32.86C308.23,155.7,292.54,139.72,272.5,139.72Zm8.89,66.51-1.52.65V255.1h-21.3V206.88l-1.52-.65c-12.34-5.2-20-17.11-20-31.08,0-18.63,14.78-33.78,32.94-33.78s32.44,14.84,32.44,33.78A33.87,33.87,0,0,1,281.39,206.23Z"/>
        <!-- <path id="arch1" class="arch1" d="M272.46,206.65a30.22,30.22,0,1,1,30.22-30.22A30.24,30.24,0,0,1,272.46,206.65Zm0-58.65a28.44,28.44,0,1,0,28.44,28.43A28.46,28.46,0,0,0,272.46,148ZM283.1,321.9l-.13-1.78h.09a143.73,143.73,0,0,0,32.93-6.3l.07,0,.55,1.69-.09,0a145.94,145.94,0,0,1-33.33,6.38Zm36.73-7.47-.57-1.69.08,0a144.28,144.28,0,0,0,91-178.09v-.09l1.68-.51,0,.09a146.36,146.36,0,0,1,6.23,42.34A144.63,144.63,0,0,1,390.58,262a146.13,146.13,0,0,1-70.66,52.38ZM138.4,234l0-.09c-.48-1.1-.89-2.13-1.28-3.1L137,231v-.45l.06,0,1.56-.62,0,.09c.48,1.16.91,2.23,1.35,3.26l0,.07Zm-10.22-36.06,0-.09a148.28,148.28,0,0,1-1.54-21.39A145.8,145.8,0,0,1,205.3,46.94l.07,0,.82,1.58-.07,0A143.69,143.69,0,0,0,128.4,176.44a145.8,145.8,0,0,0,1.53,21.13v.08ZM397,104l0-.07c-.62-1.06-1.21-2.06-1.81-3l-.06-.09,1.52-.93.05.08c.55.9,1.14,1.88,1.83,3.06l0,.08,0,0ZM209.18,47l-.78-1.6.09,0a145.15,145.15,0,0,1,32-11.23l.09,0,.39,1.75h-.09a143.49,143.49,0,0,0-31.63,11.09ZM162.37,282.5l-.07-.05-11.53,11.1.07.07c1.64,1.71,3.36,3.42,5.14,5.13l.07.05L167,287.29h.2l-.16-.15Q164.65,284.88,162.37,282.5Zm-10-11.48,0-.23-.09.09a153.3,153.3,0,0,1-29.9-65.41l0-.09-15.63,3h-.09l0,.09a168.38,168.38,0,0,0,33.09,72.37l.07.07,12.48-9.84Zm-31.11-71.94V199c-.75-5-1.24-10.14-1.49-15.25v-.09l-15.92.75h-.08v.08a168.2,168.2,0,0,0,1.63,16.86l0,.09,15.75-2.33ZM229.38,323.17l-.07,0-4.5,15.38.07,0c5.45,1.58,11,2.9,16.48,3.93l0-.09.09,0,2.9-15.58,0-.08-.09,0C239.26,325.78,234.26,324.59,229.38,323.17ZM422.44,146.63l-.28.12h.39l15.64-3.08,0-.09c-.46-2.31-1-4.69-1.56-7.08l0-.09L421,140.19l0,.08C421.55,142.37,422,144.51,422.44,146.63Zm18.17,13.72,0-.09-15.94,1.5,0,.09c.44,4.8.67,9.71.67,14.59a151.13,151.13,0,0,1-16.92,70l0,.09,14.15,7.3.09.05,0-.09a167.82,167.82,0,0,0,18.71-77.33C441.36,171.05,441.11,165.64,440.61,160.35Zm-35.29,91.79,0,.07c-2.54,4.43-5.32,8.77-8.27,12.92l-.06.07,13,9.24.07.05.05-.07a166,166,0,0,0,9.1-14.22h.3l-14.06-8Zm-82.75,68.77-.08,0a154.2,154.2,0,0,1-71.71,6.85h-.09l-2.23,15.77v.09h.08a172,172,0,0,0,23.94,1.68h0a168.85,168.85,0,0,0,55.21-9.24l.09,0L322.59,321Zm20.13-8.65-.12.07c-1.92,1-3.92,2-5.89,2.88l-.07,0,6.73,14.52.08,0c2.16-1,4.35-2.07,6.5-3.19l.09,0-7.32-14.13Zm-70.24-65.71a70.12,70.12,0,1,1,70.12-70.12A70.2,70.2,0,0,1,272.46,246.55Zm0-138.46a68.34,68.34,0,1,0,68.34,68.34A68.42,68.42,0,0,0,272.46,108.09Zm-75.6,41L17,81.57l.34-.84a272.59,272.59,0,0,1,23-47l.51-.82.83.5L204.53,133.66l-.46.76a78.25,78.25,0,0,0-6.78,13.82ZM19.29,80.54l176.62,66.32a80,80,0,0,1,6.18-12.61L41.4,35.37A269.15,269.15,0,0,0,19.29,80.54Zm42,268.07-.56-.73a272.76,272.76,0,0,1-45.24-262l.25-.72,1,.13,180.4,63.58-.34.85A80.57,80.57,0,0,0,210,226.86l.58.72-.77.68ZM16.85,87.2A270.6,270.6,0,0,0,61.54,346.09L208.15,227.34a82.35,82.35,0,0,1-13.36-77.43ZM220.38,238.64l.07-.08h-.22L97.68,384.18l-.13.14h.16c1.48,1.25,2.85,2.39,4.2,3.47l.07.06,119.59-148.1.07-.07-.07-.06C221.14,239.29,220.73,239,220.38,238.64ZM362.83,433.06l-.29-.46L298.87,252.66l.49-.1a81.11,81.11,0,0,0,13.95-6.5l.41-.25.34.45,96.87,164.29-.44.32a273.07,273.07,0,0,1-47.26,22.05ZM300,253.27,363.26,432a272.09,272.09,0,0,0,46.47-21.69L313.46,247A81.9,81.9,0,0,1,300,253.27Zm-29.18,34.66-1.19,0v-.09l.64-26.59h.09c.25,0,.5,0,.75,0h.09v.09Zm5.88-.07-1-26.68.95,0,1.26,26.66Zm-12.94-.27h-.09l-.5,0-.5,0-.09,0,2.32-26.59H265l.37,0a2.56,2.56,0,0,1,.39,0h.09Zm20-.23v-.09l-2.69-26.47.34,0,.51-.06H282l0,.09L285,287.23l-.34,0-.75.09Zm-27-.54-1.18-.16,0-.08,4-26.31.37.05.48.06h.09l0,.1Zm34-.39-4.38-26.34.09,0,.66-.1.17,0,0,.07,4.59,26.22Zm-41-.82h-.09l-1-.2-.09,0v-.09l5.64-26,.09,0a3,3,0,0,1,.41.09,1.21,1.21,0,0,1,.34.07l.09,0Zm47.93-.55,0-.09-6-25.91L292,259l.49-.11.09,0,0,.09,6.27,25.88h-.11l-.59.14ZM242.91,284l-1.16-.3,0-.09,7.3-25.6.09,0,.37.11.35.1.09,0Zm61.65-.71v-.09l-7.68-25.49.08,0a6.55,6.55,0,0,0,.67-.19v-.52l8.08,26-.09,0c-.21.07-.41.14-.62.19Zm-68.41-1.37-.09,0c-.32-.11-.64-.21-1-.34l-.07,0L244,256.34h.09l.28.11a3.36,3.36,0,0,0,.45.14l.07,0Zm75.12-.89L302,256l.89-.32,9.51,24.87v.37l-.13-.25-.87.32Zm-81.76-1.64-.38-.14c-.21-.11-.42-.2-.64-.29l-.09,0,.06-.07L239,254.36l.07,0,.44.17.18.09.15-.33v.4Zm88.31-1,0-.09-10.86-24.3.73-.32v-.35l11.25,24.56-.09,0c-.3.15-.61.29-.93.43Zm-94.76-1.91-.08,0-.91-.47-.07,0,12.08-23.82.07,0c.23.12.47.25.7.35l.07,0,0,.09Zm101.12-1.17,0-.07L311.75,251.6l.09,0,.27-.15.41-.22.07,0,0,.07,12.6,23.46Zm-107.36-2.17-.09,0-.87-.52-.07-.05,13.56-23,.34.2c.14.07.26.16.41.23l0,.11v0Zm113.51-1.32-.05-.07L316.43,249l.22-.15c.18-.1.34-.21.51-.32l.08,0,.05.07,14,22.6-.07,0-.85.53ZM210.8,269.33l-.07,0-.71-.48-.21-.14.05-.07,14.95-22,.21.14a3.39,3.39,0,0,0,.5.34l.07.06-.05.07Zm125.44-1.43-.05-.07L320.94,246,321,246c.16-.13.32-.23.48-.34l.23-.16,0,.07,15.45,21.66ZM205,265.24l-.41-.33a5.2,5.2,0,0,1-.47-.35l-.07-.05.06-.08,16.3-21,.07.06.62.48.07.05-.07.07Zm136.86-1.57-16.66-20.86.08-.05a1.49,1.49,0,0,1,.28-.23,3.65,3.65,0,0,1,.32-.26l.07-.07.06.07L342.9,263h-.16c-.27.2-.52.41-.77.61Zm-142.36-2.9-.08-.06-.74-.65-.07-.08,17.65-20,.3.25c.11.11.24.21.36.32l0,0,0,.07Zm147.76-1.68-17.94-19.77.05,0,.57-.54.07,0,.05.07,18.14,19.63h-.16l-.73.66Zm-153-3.11-.05,0-.73-.71-.06-.08.06,0,18.83-18.81.07.07.37.37.11.11.09-.09,0,.21L213,237Zm158-1.8-.05-.05-19.1-18.55.07-.07c.14-.14.3-.3.44-.46l.08-.05v-.18l.07.09.1-.11v.2l19.23,18.33-.08.07c-.23.23-.46.48-.69.73Zm-163-3.24v-.16c-.21-.25-.42-.48-.64-.73l-.07-.07.07,0,20-17.59.18.2.39.44,0,.11,0,0Zm167.77-2-.05-.06-20.22-17.3.21-.25c.11-.14.23-.26.34-.4l.09,0,0,0,20.36,17.12,0,.07-.64.77Zm-172.23-3.51-.06-.05c-.21-.27-.41-.54-.62-.8l0-.07.07-.06,21-16.28.06.07.48.6.05.07Zm176.66-2-21.34-16,0-.07c.16-.21.32-.41.47-.62l.05-.07.07,0,21.41,15.81,0,.07c-.11.16-.23.3-.34.46Zm-180.86-3.67-.06-.07c-.19-.26-.37-.55-.57-.83l-.05-.08.09-.05,22-14.91.06.07.42.64.06.07-.07,0Zm184.94-2.11L343.35,223l0-.07c.12-.2.27-.41.39-.62v-.13l.07,0L344,222v.25l22.3,14.41v.22l-.07-.07c-.16.25-.34.5-.5.74Zm3.7-6-.07,0-23.12-13.17,0-.09c.05-.11.13-.22.18-.34s.12-.22.19-.32l0-.09.09,0,23.23,13-.18.32c-.13.21-.23.43-.36.64Zm3.33-6.26-.09,0-23.91-11.67,0-.08.34-.69.09,0h0l24,11.46,0,.07c-.15.32-.31.62-.45.93Zm2.9-6.46-.07,0-24.62-10.13,0-.07c.07-.18.14-.34.19-.5l.13-.3.09,0,24.67,10h0c-.09.25-.2.49-.29.73Zm2.49-6.64-.09,0-25.2-8.52,0-.09c.06-.14.11-.3.16-.45l.18-.34h0l25.29,8.3,0,.09c-.11.32-.22.64-.32,1Zm2.06-6.78-.08,0-25.71-6.89.13-.41.11-.42v-.08l.09,0,25.76,6.66,0,.09-.27,1Zm1.62-6.89-26.16-5.27.05-.3c0-.18.08-.36.11-.54l0-.08h.09l26.13,5,0,.09c-.07.34-.13.66-.2,1Zm1.18-7L356.48,188l.13-.93h.08l26.4,3.35,0,.07c0,.16,0,.32-.05.48s-.06.36-.07.53Zm.75-7-.09,0L357,182.67l0-.09c0-.25,0-.5.05-.77v-.08h.09l26.56,1.75c0,.34-.06.67-.07,1Zm.28-7.06h-.09l-26.61-.24v-.85l.09-.27,26.61,0v1.41Zm-26.82-5.81,0-.09c0-.25,0-.49,0-.76v-.09h.08l26.56-1.73v.11c0,.18,0,.37,0,.55l0,.54Zm-.46-5.35,0-.27a5.93,5.93,0,0,0-.07-.59l0-.09h.09L383,162l.14,1.2Zm-.8-5.33-.09-.44c0-.13,0-.27-.07-.39l.07,0v-.09l26.12-5,0,.08c0,.22.09.45.13.68l.07.39-.09,0Zm-1.14-5.25,0-.09-.2-.74,0-.09,25.83-6.73,0,.09c.07.27.12.53.19.82l.07.25-.09,0Zm-1.46-5.16-.25-.76h-.5l25.79-8.53,0,.09c.11.32.22.64.32,1l0,.09-.09,0Zm-1.8-5.07-.36-.87,24.78-9.95,0,0,.37,1,0,.07Zm-2.12-4.93,0-.09c-.11-.21-.22-.45-.32-.66l-.06-.1L373,128.24l.52,1.07-.09,0Zm-2.42-4.79-.14-.27-.27-.48,0-.08,23.3-13,.21.37.32.59,0,.07-.07,0Zm-2.72-4.63-.06-.09a3.41,3.41,0,0,0-.28-.42l-.18-.29.07,0,22.36-14.44.05.08.23.37a4.2,4.2,0,0,1,.3.48l.06.07-.07.06Zm-3-4.44-.25-.34q-.13-.2-.27-.36l-.05-.07.07,0,21.39-15.83.06.07c.18.24.35.47.51.72l.13.17Zm-3.29-4.28-.07,0-.4-.48,0,0-.07.07v-.24l0,0,20.36-17.14,0,.07c.12.16.27.32.39.48l.3.36-.07.07Zm-3.56-4-.07,0c-.18-.2-.34-.37-.52-.55l0-.11,0,0L353,99.32l.07.07c.13.13.25.27.38.39l.37.41Zm-3.81-3.81-.07,0c-.18-.18-.38-.35-.55-.53l0-.09,0,0,18-19.52h.21l-.09.09.12.12.56.5.05.07-.05,0Zm-4-3.56-.07,0c-.16-.14-.34-.28-.5-.43l-.13.25v-.41l0,0L342.6,89.74l.07.06.48.41.37.3Zm-4.26-3.31-.07,0c-.21-.14-.42-.28-.62-.44l-.07-.06L337,85.47l1,.7-.05.07ZM537.8,175H308.46v.89H537.8ZM243.06,26.69a7.45,7.45,0,1,0,7.45,7.45A7.45,7.45,0,0,0,243.06,26.69ZM285,313.46a7.45,7.45,0,1,0,7.45,7.45A7.44,7.44,0,0,0,285,313.46ZM290.49,243l-2-7.21.07,0A61.63,61.63,0,0,0,334,176.39l.08-.08,7.4.08A69,69,0,0,1,290.56,243Zm-72.14-23.82,0-.06a69,69,0,0,1-1.28-83.8l0-.06,6,4.45-.05.06a61.57,61.57,0,0,0,1.15,74.71l.05.06ZM334,174.58v-.08a61.55,61.55,0,0,0-47.11-57.95l-.12.51v-.6h0l1.72-7.21.06,0A68.37,68.37,0,0,1,309.18,118a68.93,68.93,0,0,1,32.25,56.32v.08Z"/> -->
        <path id="arch" class="arch" d="M157.79,206.65A30.22,30.22,0,1,1,188,176.43,30.25,30.25,0,0,1,157.79,206.65Zm0-58.65a28.44,28.44,0,1,0,28.43,28.43A28.46,28.46,0,0,0,157.79,148Zm10.63,173.9-.13-1.78h.09a143.73,143.73,0,0,0,32.93-6.3l.07,0,.55,1.69-.09,0a145.94,145.94,0,0,1-33.33,6.38Zm36.73-7.47-.56-1.69.07,0a144.28,144.28,0,0,0,91-178.09v-.09l1.68-.51,0,.09a146.36,146.36,0,0,1,6.23,42.34A144.63,144.63,0,0,1,275.9,262a146.13,146.13,0,0,1-70.66,52.38ZM23.72,234l0-.09c-.48-1.1-.89-2.13-1.28-3.1l-.09.17v-.45l.06,0,1.56-.62,0,.09c.48,1.16.91,2.23,1.35,3.26l0,.07ZM13.5,197.92v-.09A145.89,145.89,0,0,1,90.62,46.94l.07,0,.82,1.58-.07,0A143.69,143.69,0,0,0,13.72,176.44a145.8,145.8,0,0,0,1.53,21.13l0,.08Zm268.83-94,0-.07c-.62-1.06-1.21-2.06-1.81-3l-.06-.09,1.52-.93.05.08c.55.9,1.14,1.88,1.83,3.06l0,.08,0,0ZM94.5,47l-.78-1.6.09,0a145.33,145.33,0,0,1,32-11.23l.09,0,.39,1.75h-.09A143.49,143.49,0,0,0,94.59,46.92ZM47.69,282.5l-.07-.05-11.53,11.1.07.07c1.64,1.71,3.36,3.42,5.14,5.13l.08.05,10.94-11.51h.2l-.16-.15Q50,284.88,47.69,282.5ZM37.67,271l0-.23-.09.09a153.3,153.3,0,0,1-29.9-65.41l0-.09-15.63,3h-.09l0,.09A168.38,168.38,0,0,0,25,280.86l.07.07,12.48-9.84ZM6.56,199.08V199c-.75-5-1.24-10.14-1.49-15.25v-.09l-15.91.75h-.09v.08c.26,5.66.82,11.32,1.63,16.86l0,.09L6.47,199.1ZM114.7,323.17l-.07,0-4.5,15.38.07,0c5.45,1.58,11,2.9,16.48,3.93l0-.09.09,0,2.9-15.58,0-.08-.09,0C124.58,325.78,119.58,324.59,114.7,323.17ZM307.76,146.63l-.28.12h.39l15.64-3.08v-.09c-.47-2.31-1-4.69-1.57-7.08l0-.09-15.57,3.78,0,.08C306.87,142.37,307.35,144.51,307.76,146.63Zm18.17,13.72v-.09L310,161.76l0,.09c.44,4.8.67,9.71.67,14.59a151.13,151.13,0,0,1-16.92,70l0,.09,14.15,7.3.09.05,0-.09a168,168,0,0,0,18.7-77.33C326.68,171.05,326.43,165.64,325.93,160.35Zm-35.29,91.79,0,.07c-2.54,4.43-5.32,8.77-8.27,12.92l-.06.07,13,9.24.07.05.05-.07a166,166,0,0,0,9.1-14.22h.3l-14.06-8ZM207.9,320.91l-.09,0a154.2,154.2,0,0,1-71.71,6.85H136l-2.23,15.77v.09h.09a171.71,171.71,0,0,0,23.93,1.68h0A168.85,168.85,0,0,0,213,336.09l.09,0L207.91,321ZM228,312.26l-.13.07c-1.92,1-3.91,2-5.89,2.88l-.07,0,6.73,14.52.09,0c2.15-1,4.34-2.07,6.49-3.19l.09,0L228,312.38Zm-70.24-65.71a70.12,70.12,0,1,1,70.11-70.12A70.19,70.19,0,0,1,157.79,246.55Zm0-138.46a68.34,68.34,0,1,0,68.34,68.34A68.41,68.41,0,0,0,157.79,108.09Zm-75.61,41L-97.71,81.57l.34-.84a272.59,272.59,0,0,1,23-47l.51-.82.83.5L89.85,133.66l-.46.76a79,79,0,0,0-6.78,13.82ZM-95.39,80.54,81.23,146.86a80,80,0,0,1,6.18-12.61L-73.28,35.37A269.92,269.92,0,0,0-95.39,80.54Zm42,268.07-.55-.73a272.73,272.73,0,0,1-45.25-262l.25-.72,1,.13,180.4,63.58-.34.85a80.57,80.57,0,0,0,13.29,77.17l.58.72-.77.68ZM-97.83,87.2A270.6,270.6,0,0,0-53.14,346.09L93.47,227.34a82.35,82.35,0,0,1-13.36-77.43ZM105.7,238.64l.07-.08h-.21L-17,384.18l-.13.14H-17c1.48,1.25,2.85,2.39,4.2,3.47l.07.06,119.59-148.1.07-.07-.07-.06C106.46,239.29,106.05,239,105.7,238.64ZM248.15,433.06l-.29-.46L184.19,252.66l.49-.1a80.41,80.41,0,0,0,13.95-6.5l.41-.25.34.45,96.87,164.29-.44.32a273.07,273.07,0,0,1-47.26,22.05Zm-62.8-179.79L248.58,432a272.09,272.09,0,0,0,46.47-21.69L198.78,247A81.9,81.9,0,0,1,185.35,253.27Zm-29.18,34.66-1.19,0v-.09l.64-26.59h.09c.25,0,.5,0,.75,0h.09l0,.09Zm5.88-.07-1-26.68.94,0,1.26,26.66Zm-12.94-.27H149l-.5,0-.5,0-.09,0,2.32-26.59h.09l.37,0a2.56,2.56,0,0,1,.39,0h.09Zm20-.23,0-.09-2.69-26.47.34,0,.52-.06h.08l0,.09,2.92,26.44-.34,0-.75.09Zm-27-.54-1.18-.16,0-.08,4-26.31.37.05.48.06h.09v.1Zm34-.39-4.38-26.34.09,0,.66-.1.18,0V260l4.6,26.22Zm-41-.82H135l-1-.2-.09,0v-.09l5.64-26,.09,0a2.71,2.71,0,0,1,.41.09,1.21,1.21,0,0,1,.34.07l.09,0Zm47.93-.55,0-.09-6-25.91.34-.09.49-.11.09,0,0,.09,6.27,25.88h-.11l-.59.14ZM128.23,284l-1.16-.3,0-.09,7.3-25.6.09,0,.37.11.36.1.09,0Zm61.65-.71v-.09l-7.67-25.49.07,0a6.55,6.55,0,0,0,.67-.19v-.52l8.08,26-.09,0a6.36,6.36,0,0,1-.62.19Zm-68.41-1.37-.09,0c-.32-.11-.64-.21-1-.34l-.07,0,8.93-25.14h.09l.28.11a3.36,3.36,0,0,0,.45.14l.07,0Zm75.12-.89-9.3-25,.89-.32,9.5,24.87v.37l-.12-.25-.88.32Zm-81.76-1.64-.37-.14c-.22-.11-.43-.2-.65-.29l-.08,0,0-.07,10.5-24.46.07,0c.14,0,.29.12.45.17l.17.09.15-.33v.4Zm88.31-1,0-.09-10.86-24.3.73-.32v-.35l11.25,24.56-.09,0-.92.43Zm-94.75-1.91-.09,0-.91-.47-.07,0,12.08-23.82.07,0c.24.12.47.25.7.35l.07,0,0,.09Zm101.11-1.17,0-.07L197.07,251.6l.09,0,.27-.15.41-.22.07,0,0,.07,12.6,23.46Zm-107.36-2.17-.09,0c-.28-.18-.57-.34-.87-.52l-.07-.05,13.56-23,.34.2c.14.07.26.16.41.23l0,.11v0Zm113.52-1.32-.06-.07L201.76,249l.21-.15c.18-.1.34-.21.52-.32l.07,0,.05.07,14,22.6-.07,0-.85.53ZM96.12,269.33l-.07,0-.71-.48-.21-.14.05-.07,14.95-22,.21.14a3.39,3.39,0,0,0,.5.34l.07.06,0,.07Zm125.45-1.43-.06-.07L206.26,246l.07-.05c.16-.13.32-.23.48-.34l.23-.16,0,.07,15.45,21.66ZM90.36,265.24l-.41-.33a5.2,5.2,0,0,1-.47-.35l-.07-.05.06-.08,16.3-21,.07.06.62.48.08.05-.08.07Zm136.86-1.57-16.65-20.86.07-.05a1.89,1.89,0,0,1,.28-.23,3.65,3.65,0,0,1,.32-.26l.07-.07.06.07L228.22,263h-.16c-.27.2-.51.41-.76.61Zm-142.36-2.9-.07-.06-.75-.65L84,260l17.65-20,.31.25c.1.11.23.21.35.32l0,0,0,.07Zm147.76-1.68-17.94-19.77,0,0,.57-.54.07,0,0,.07,18.14,19.63h-.16l-.73.66ZM79.66,256l0,0c-.25-.24-.48-.48-.73-.71l-.06-.08.06,0,18.83-18.81.07.07.37.37.11.11.09-.09,0,.21,0,.07Zm158-1.8-.05-.05-19.1-18.55.07-.07.45-.46.07-.05v-.18l.07.09.1-.11v.2l19.23,18.33-.07.07c-.24.23-.47.48-.7.73Zm-163-3.24v-.16c-.21-.25-.42-.48-.64-.73L74,250l.07,0,20-17.59.18.2.39.44,0,.11,0,0Zm167.77-2-.05-.06-20.22-17.3.21-.25c.11-.14.23-.26.34-.4l.09,0,0,0,20.37,17.12-.06.07-.64.77ZM70.23,245.46l-.06-.05c-.21-.27-.41-.54-.62-.8l0-.07.07-.06,21-16.28,0,.07.48.6,0,.07Zm176.66-2-21.34-16,.06-.07c.16-.21.32-.41.46-.62l.05-.07.07,0,21.41,15.81,0,.07c-.11.16-.23.3-.34.46ZM66,239.78l-.06-.07c-.19-.26-.37-.55-.57-.83l-.05-.08.09-.05,22-14.91.05.07.43.64,0,.07-.07,0ZM251,237.67,228.67,223l.05-.07c.12-.2.27-.41.39-.62v-.13l.07,0,.11-.18v.25l22.3,14.41v.22l-.07-.07c-.16.25-.34.5-.5.74Zm3.7-6-.07,0-23.12-13.17.05-.09a3.65,3.65,0,0,0,.18-.34,3.45,3.45,0,0,1,.2-.32l0-.09.09,0,23.23,13-.18.32c-.13.21-.23.43-.36.64Zm3.33-6.26-.09,0L234,213.66l0-.08.34-.69.09,0h0l24,11.46,0,.07c-.14.32-.3.62-.45.93Zm2.9-6.46-.07,0-24.62-10.13,0-.07c.07-.18.14-.34.19-.5l.13-.3.09,0,24.67,10h0c-.09.25-.19.49-.28.73Zm2.49-6.64-.09,0-25.2-8.52,0-.09c.05-.14.1-.3.16-.45l.17-.34h0l25.29,8.3,0,.09c-.11.32-.22.64-.32,1Zm2.07-6.78-.09,0-25.7-6.89.12-.41.11-.42,0-.08.08,0,25.76,6.66,0,.09-.27,1Zm1.62-6.89-26.17-5.27.06-.3c0-.18.07-.36.1-.54l0-.08h.09l26.13,5,0,.09c-.07.34-.13.66-.2,1Zm1.17-7L241.8,188l.13-.93H242l26.4,3.35,0,.07c0,.16,0,.32-.05.48s0,.36-.07.53Zm.75-7-.09,0-26.56-1.9,0-.09c0-.25,0-.5,0-.77v-.08h.09l26.56,1.75c0,.34-.06.67-.07,1Zm.28-7.06h-.09l-26.6-.24v-.85l.08-.27,26.61,0v1.41Zm-26.82-5.81,0-.09c0-.25,0-.49,0-.76v-.09h.09l26.55-1.73v.11c0,.18,0,.37,0,.55l0,.54Zm-.46-5.35,0-.27a5.93,5.93,0,0,0-.07-.59l0-.09H242l26.4-3.39.14,1.2Zm-.8-5.33-.09-.44c0-.13,0-.27-.07-.39l.07,0v-.09l26.12-5,0,.08c0,.22.09.45.13.68l.07.39-.09,0Zm-1.14-5.25,0-.09c-.07-.25-.12-.49-.2-.74v-.09l25.82-6.73,0,.09c.07.27.12.53.19.82l.07.25-.09,0Zm-1.46-5.16-.25-.76h-.5l25.79-8.53,0,.09c.1.32.21.64.32,1v.09l-.09,0Zm-1.8-5.07-.36-.87,24.78-9.95,0,0c.12.3.25.62.37,1l0,.07Zm-2.12-4.93,0-.09c-.11-.21-.22-.45-.32-.66l-.06-.1,24.08-11.54.52,1.07-.09,0Zm-2.42-4.79-.14-.27-.27-.48,0-.08,23.3-13,.21.37.32.59,0,.07-.07,0Zm-2.72-4.63-.06-.09a3.41,3.41,0,0,0-.28-.42l-.18-.29.07,0,22.36-14.44.05.08.23.37c.11.16.22.32.31.48l.05.07L252,117Zm-3-4.44-.25-.34q-.14-.2-.27-.36l0-.07.07,0,21.4-15.83,0,.07c.18.24.36.47.52.72l.12.17Zm-3.29-4.28-.07,0-.4-.48,0,0-.07.07v-.24l0,0,20.36-17.14,0,.07c.13.16.27.32.39.48l.3.36-.07.07Zm-3.56-4-.07,0c-.18-.2-.34-.37-.52-.55l0-.11,0,0,19.22-18.38.07.07c.13.13.25.27.38.39l.37.41Zm-3.81-3.81-.07,0c-.18-.18-.38-.35-.55-.53l0-.09,0,0,18.05-19.52h.21l-.09.09.13.12.55.5,0,.07,0,0Zm-4-3.56-.07,0c-.16-.14-.34-.28-.5-.43l-.13.25v-.41l0,0,16.77-20.67.07.06.48.41.37.3Zm-4.25-3.31-.08,0c-.21-.14-.42-.28-.62-.44l-.07-.06,15.47-21.75,1,.7-.06.07ZM423.12,175H193.78v.89H423.12ZM128.38,26.69a7.45,7.45,0,1,0,7.45,7.45A7.45,7.45,0,0,0,128.38,26.69Zm41.89,286.77a7.45,7.45,0,1,0,7.45,7.45A7.44,7.44,0,0,0,170.27,313.46ZM175.81,243l-2-7.21.08,0a61.63,61.63,0,0,0,45.37-59.37l.08-.08,7.4.08A69,69,0,0,1,175.88,243Zm-72.14-23.82,0-.06a69,69,0,0,1-1.28-83.8l0-.06,6,4.45,0,.06a61.57,61.57,0,0,0,1.15,74.71l0,.06Zm115.6-44.6v-.08a61.55,61.55,0,0,0-47.11-57.95l-.12.51v-.6h0l1.72-7.21.06,0A68.37,68.37,0,0,1,194.5,118a68.93,68.93,0,0,1,32.25,56.32v.08Z" transform="translate(114.68)"/>
        <circle id="cen" class="cen" cx="272.46" cy="176.43" r="7.53"/>
    </g>

</svg>